/* XPM */
static char *fac5310648f44808c7fe35bc24d978833JRyqpkE4hG4v0j6[] = {
/* columns rows colors chars-per-pixel */
"42 96 248 2 ",
"   c None",
".  c #000000",
"X  c #0D0303",
"o  c #180000",
"O  c #121717",
"+  c #2B0100",
"@  c #230100",
"#  c #330B03",
"$  c #380300",
"%  c #3C1302",
"&  c #3B1702",
"*  c #311917",
"=  c #2A2929",
"-  c #2C3335",
";  c #393939",
":  c #322A2C",
">  c #252424",
",  c #421905",
"<  c #491A01",
"1  c #470E00",
"2  c #4C2305",
"3  c #4C2805",
"4  c #542503",
"5  c #552906",
"6  c #552B08",
"7  c #5C2E09",
"8  c #5B2A04",
"9  c #5C3108",
"0  c #632D04",
"q  c #63330A",
"w  c #6D3A0B",
"e  c #693604",
"r  c #723E0D",
"t  c #773B00",
"y  c #673B15",
"u  c #7A2E00",
"i  c #483A37",
"p  c #4D352C",
"a  c #7C450F",
"s  c #784109",
"d  c #7C4611",
"f  c #7A4618",
"g  c #664114",
"h  c #73492D",
"j  c #55433B",
"k  c #3C3F40",
"l  c #454545",
"z  c #4C4A49",
"x  c #534C4B",
"c  c #4E5151",
"v  c #555555",
"b  c #5B5B5B",
"n  c #575858",
"m  c #52514F",
"M  c #6D584D",
"N  c #76645B",
"B  c #5E5E60",
"V  c #6A6A6A",
"C  c #646667",
"Z  c #747576",
"A  c #5E6061",
"S  c #3F4F54",
"D  c #823B00",
"F  c #844400",
"G  c #874908",
"H  c #934C02",
"J  c #965508",
"K  c #834A11",
"L  c #8A4E12",
"P  c #834914",
"I  c #8C5014",
"U  c #8D531B",
"Y  c #8C581A",
"T  c #955615",
"R  c #975A1B",
"E  c #A75400",
"W  c #A95901",
"Q  c #A85510",
"!  c #9E611B",
"~  c #AD6300",
"^  c #AE6B00",
"/  c #B36900",
"(  c #B47202",
")  c #B57405",
"_  c #A4621C",
"`  c #B77519",
"'  c #B16818",
"]  c #924E23",
"[  c #8F5823",
"{  c #965A22",
"}  c #84583A",
"|  c #9C5D34",
" . c #AC5E29",
".. c #9D6124",
"X. c #9A6A39",
"o. c #A16428",
"O. c #A96826",
"+. c #B16A2C",
"@. c #B2742C",
"#. c #B67627",
"$. c #A66935",
"%. c #B47832",
"&. c #BA7C34",
"*. c #B67736",
"=. c #AC7037",
"-. c #C17D31",
";. c #92684C",
":. c #B87A45",
">. c #A97740",
",. c #85746D",
"<. c #B88700",
"1. c #BF9705",
"2. c #BE9928",
"3. c #BC8336",
"4. c #BE8D33",
"5. c #C18B09",
"6. c #CBBA00",
"7. c #CEB406",
"8. c #C4952A",
"9. c #C38235",
"0. c #C68837",
"q. c #C69939",
"w. c #CC9235",
"e. c #C3A427",
"r. c #C7A739",
"t. c #D1AA3A",
"y. c #D2B22F",
"u. c #D6C906",
"i. c #D8CE10",
"p. c #D9C837",
"a. c #DAD12D",
"s. c #E0D83A",
"d. c #BC8344",
"f. c #BD8747",
"g. c #B98B53",
"h. c #B68868",
"j. c #98877D",
"k. c #C28A4A",
"l. c #C68B48",
"z. c #CC954E",
"x. c #C69746",
"c. c #C58B57",
"v. c #CB945C",
"b. c #CC9B5C",
"n. c #C89554",
"m. c #D19B57",
"M. c #D29D4B",
"N. c #C9A743",
"B. c #D3A84A",
"V. c #D5B646",
"C. c #D2A959",
"Z. c #D7B857",
"A. c #CDB54A",
"S. c #CB9865",
"D. c #D19D66",
"F. c #C69777",
"G. c #D5A46B",
"H. c #D6A969",
"J. c #D9AC6D",
"K. c #D5A463",
"L. c #D9B864",
"P. c #D0AC73",
"I. c #D8C949",
"U. c #D9D54E",
"Y. c #DDD942",
"T. c #DBC55A",
"R. c #DCD553",
"E. c #CFC243",
"W. c #E2DD5E",
"Q. c #E1D859",
"!. c #E1D152",
"~. c #E6EB5A",
"^. c #E5E05F",
"/. c #E9F15B",
"(. c #DDC366",
"). c #DEC667",
"_. c #E1C768",
"`. c #E3D664",
"'. c #E6D57C",
"]. c #E6E162",
"[. c #E9E86B",
"{. c #EAEC7D",
"}. c #7D7F81",
"|. c #7C8386",
" X c #828384",
".X c #898A8C",
"XX c #8D8D91",
"oX c #939495",
"OX c #9B9B9D",
"+X c #949699",
"@X c #B7A89A",
"#X c #9D9FA3",
"$X c #A2A2A4",
"%X c #AAABAC",
"&X c #B9B9B9",
"*X c #B4B5B5",
"=X c #AFAEB0",
"-X c #A3918A",
";X c #C69E89",
":X c #C9A58A",
">X c #CCA995",
",X c #CFB29B",
"<X c #DAB799",
"1X c #D5AF8D",
"2X c #D0B4A1",
"3X c #DBBAA6",
"4X c #CDB0A1",
"5X c #E1BEA4",
"6X c #E4B997",
"7X c #DCC394",
"8X c #E4DA88",
"9X c #E8DE9D",
"0X c #E4CA8E",
"qX c #EBE998",
"wX c #EDEE92",
"eX c #DCCBB6",
"rX c #E3C5A6",
"tX c #E6CAB2",
"yX c #E8D7A4",
"uX c #EDEDA4",
"iX c #F2F9AB",
"pX c #F0F6A8",
"aX c #F2F2B0",
"sX c #B8BCC1",
"dX c #BDC1C3",
"fX c #D3D3D3",
"gX c gray86",
"hX c #CDCACB",
"jX c #E2CECA",
"kX c #E6D4C9",
"lX c #EBDAD4",
"zX c #F0DDD3",
"xX c #F5F7CA",
"cX c #ECE4D8",
"vX c #F2E8D8",
"bX c #F7F7D5",
"nX c #EFEACE",
"mX c #EEE5E4",
"MX c #E8E7E8",
"NX c #F5ECEA",
"BX c #F4EAE5",
"VX c #FBFEE5",
"CX c #FDFEE9",
"ZX c #F8F1EA",
"AX c #FFFFFF",
"SX c #F9F9F4",
"DX c #F5EDF1",
"FX c #DFE0E0",
/* pixels */
"                              *.%.%.                                                ",
"                              *.%.*.                                                ",
"                            ` ` ( ^                                                 ",
"            %.%.          %.^ ^ ^ W             %.%.%.                              ",
"            %.%.%.      %.%.0.0.%.%.            %.%.%.                              ",
"            =.-.@.@.    ( 9.G.<X,X>XF.          *.9.@.^                             ",
"            +.+.+.+.#.^ ~ &.1XkXlXjX;XE         *.&.` / E                           ",
"            %.%.9.%.%.) W *.2XNXAXZXrX%.W       %.%.0.0.%.%.                        ",
"          2.e.e.t.B.z.9./ %.3XNXAXAXBX5X;X      ^ %.D.6X3X>XF.                      ",
"        %.8.u.i.p.Z.K.l.( %.2XNXAXAXAXBXjX>X+.E W %.1XzXcXjX>X .                    ",
"       .%.V.!.~.]._.H.n.( %.,XlXAXAXAXAXlX,X*.W E %.2XNXAXNX5X*.E                   ",
"      W 9._.uXiXuX0Xm.9.^ @.;XjXBXCXSXCXnX7Xz./ E ) 2XNXAXSXaXV.<.<.                ",
"      Q *.rXbXCXbX7Xf.^ W +.h.1XrXaXaXiXqX0Xm.( E W >XNXAXSXaX!.6.<.E               ",
"      E *.5XZXAXMX2X%.~ ^ %.k.S.K._.`.~.Q._.H.l.( *.4XmXAXCXiX[.i.y.*. .            ",
"    / ^ *.,XlXmXjX:X#.( 8.r.r.x.w.y.u.u.p.!._.0X1X4XeXlXvXxXwX/.[.qX5X;XF.          ",
"%.%.@.) =.c.>X4X;Xh.@.2.E.!.I.V.w.8.2.8.y.p.`.qXnXmXmXjXtX8X[./.wXbXvXjX>X*.        ",
"%.%.%.%.%.%.%.%.%.+.%.N.U.~.^._.H.v.:.%.2.u.~.pXVXAXBXtXG.y.i./.iXCXAXNX5X%.E       ",
"9.9.&.` ) ( ( ( ) ' %.N.I.W.8XyXtX<XP.2.7.6.U.qXvXZXzX6XB.7.u.~.iXSXAXDXtX9.E ^     ",
"&.&.` ~ ^ ( 0.n.l.&.%.4.r.(.yXcXNXnX8Xu.6.7.4.P.5XtXrX1XK.V.a./.iXAXAXDX3X%.E ^ %.%.",
"*.%.@.@.%.k.b.H.b.f.%.3.w.H.tXNXAXVXiX~.u.e.=.d.m.G.J.D.H.Z.s./.iXCXAXmX4X%./ ( %.%.",
"` %.h.:X2X,X1XJ.z.d.@.&.l.K.rXnXVXVXxXpX8XT.2.1.q.M.M.c.S.A.s.~.wXxXvXkX1X3.) ` 9.9.",
"^ %.>XjXmXlXrXK.x.#.@.&.z.H.0XqXpXxXVXVXnX8Xu.6.B.b.v.k.f.A.Y.~.wX9XrX<XG.w.5.9.&.*.",
"~ %.,XBXAXCXtXH.0.&.%.:.v.K.Z.s.~.pXVXAXVXpX~.s.T.G.v.:.%.r.U.~.`._.H.G.J.H.b.f.*.@.",
"W %.,XnXCXbX9XZ.y.x.k.k.k.z.t.u.s.qXnXVXVXxXpXqX8X(.N.3.%.4.T.Q.!.V.M.P.rXtX<XF.%.^ ",
"~ %.P.9XiXpX[.s.p.C.b.l.#.( 1.t.T.'.wXpXxXbXCXbXqX^.p.2.@.k.C.(.L.B.K.5XvXBXkX>X%.^ ",
"+.%.r.U./././.~.Q._.H.v.d.%.d.v.H.T.s.~.pXVXAXCXiX~.u.2.*.:.n.H.C.B.H.tXZXAXBX2X%.~ ",
"+.&.2.i.s.[.wXpXqX0XJ.P.1X,X>XF.v.N.6.s.wXbXVXbXuX`.i.1.) *.v.G.G.m.J.0XbXVXnX1X%.W ",
"-.9.q.r.Z.uXbXVXvX0XJ.6XlXmXjX>X:.1.t.T.'.qXiXuX8X(.N.<.~ ( z.J.J.K.J.0XqXpX9XP.*.~ ",
"@.*.3.w.H.tXZXAXBXrXH.rXBXAXvX,X*.( l.G._.W.~.`.).H.v.d.%.d.m.H.H.G.H._.].~.U.N.*.+.",
"@.%.&.9.v.5XzXBXzX1Xb.1XzXZXlX<Xk.` k.v.B.I.s.p.B.S.F.>X,X1XF.b.m.K.J.L.U.s.p.e.*.+.",
"    &.#.k.1XrXtX<XS.:.F.6XtXrX1Xb.l.d.d.x.Z.Z.A.8.f.1XkXlXjX:X:.-.b.J.L._.T.A.k.&.@.",
"      #.%.z.C.K.C.f.*.d.b.H.L.J.K.b.d.%.f.C.H.b.) %.,XMXAXMX,X%.( n.H.J.J.J.b.f.%.@.",
"      _ _ -.0.w.q.N.r.r.8.0.x.H.J.K.n.d.l.D.D.z./ ^ 4XDXAXSXtXr.5.r.b.S.D.v.k.:.O.O.",
"      T R #.@.3.N.E.U.E.q.*.k.D.J.H.S.v.S.G.H.l.~ W >XMXAXSXuXR.6.r.f.d.k.k.*.$.{ R ",
"      L I _  .%.N.R.~.R.r.%.f.b.H.J.K.H.H.J.H.z.( &.2XMXAXCXiX~.i.e.%.+.%.%.=.R L L ",
"      G L T J O.x.R.[.R.A.r.4.n.b.K.L._._.J.J.F.:X4XeXvXbXxXwX].p.q.#.O.O.O.! T L L ",
"      L T Q H R f.C.).`.Q.U.V.f.:.N.T.W.Q.V.G.<XjXmXvXxXpXwX'._.A.x.@.O.! R R T T T ",
"      I I J F L >.g.P.).[.~.U.r.%.q.U.~.^.V.J.tXDXAXVXpX~.s.Z.J.S.k.%.O.R I K I I I ",
"        I G F L | :.S.L.`.`.Q.A.r.A.R.W.Q.I._.9XbXVXbXwXs.u.B.v.c.:.@.! J G F L I I ",
"          L G T O.$.:.g.L._.`.Q.R.R.(.(._.Q.].{.pXiXuX'.(.A.M.k.*.$.! J J H G H     ",
"            I I J F I >.c.G._.].~.W.(.H.L.W.~.~./.~.W.(.H.v.f.%.O.R I L T I I       ",
"              L F u D | :.c.Z.T.R.T.C.S.C.T.U.Y.a.i.y.Z.v.c.:.' J F w f [ h h       ",
"                      | ;.>.l.N.A.N.x.k.g.N.N.t.y.r.r.x.l.:.=.R G e 3 p M M M       ",
"                        G I O.O.%.%.%.%.3.%.%.3.%.%.*.&.*.O.o.I s < . - A V Z       ",
"                        0 e D P ] { { R Y [ ] ] ] ] ] { [ Y d s 2 o . c }.|.XX|.    ",
"                        < 2 7 q y y g g g y y y y y y g g g 9 6 + . . C oX%X#X.XV C ",
"                        . . . . . . . . . . . . . . . . . . . . . . . V $X&X=X.XV A ",
"                      . . . . . . . . . . . . . . . . . . . . . . . . Z #X&X=XoXZ V ",
"                    . . . . . . . . . . . . . . . . . . . . . . . . . C +X%X$X.XV C ",
"                  . . . . . . . . . . . . . . . . . . . . . . . . . . B XX$X+X}.V A ",
"                V z - = O . . . . . . . . . . . . . . . . . . . . . . B XX#XOX}.V A ",
"        V Z XXoX}.C c - O . . . . X . . . . . . . . . . . . . . . . . B XX$XOX XV A ",
"      b V .X+X#XoXj.V v : . . . . . . . . . . . . . . . . . . . . . . B XX$XOX XV A ",
"      v Z %XhXfXdX%X.XV b ; O O . . . . . . . . . . . . . . . . O O ; C  XoXXXZ V V ",
"      l V *XlXDXMXhX#X XZ n ; = . . . . . . . . . . . . . . . . = S n V Z  XZ Z Z Z ",
"      ; C &XMXAXSXfX&XOX XV z - . . . . . . . . . . . . . . . . ; b V V V V V V C V ",
"      k V =XFXMXDXMXfX&X+XV c i 2 , 3 6 6 6 6 3 3 3 3 3 3 & @ @ i M N ,.N N M N V V ",
"      c V +X&XfXFXMXMXfX$XV i h w t s s d d d s g w w w w 9 , # p h X.;.| } h N     ",
"      b V XX#X&XfXDXSXgX%XV j h a F G I Y I I L K d d d d w 6 , q a I T R U T       ",
"      c V +XsXdXFXMXMXfX#XV j g a t s d K K K a a r r s w y 6 , 8 s H H H H         ",
"      l C %XfXMXMXMXfX*XoXV z p 7 8 0 7 q q q q 6 5 5 5 5 2 2 , 4 e                 ",
"      k V *XFXSXDXfX*X#X XV x p , $ % 1 , & , , , , , , , , < , ,                   ",
"      l V %XfXMXFXhX%X+X|.C v i # $ < 4 , , # , 2 5 5 5 5 2 4 , #                   ",
"      n C #XdXfXhXsX%X+X|.V x ; # 1 8 y q 2 % 2 q w f r w q 5 , #                   ",
"      b C oX%X&XsX=X#XoX}.C x i & 4 t a r 5 , 5 w d K K a r 7 , #                   ",
"      M N j.@X,X@X@X-Xj.,.N M p 9 e s K r 7 , < q r a P K r 9 1 #                   ",
"      h h h.h.1X:Xh.h.;.;.h h h w t G K r q , & , 6 y r P r q & #                   ",
"      s Y d.b.J.K.k.%.O.R I I K a K I I d q , # # , 7 r a r q , #                   ",
"      F J @.x.M.M.x.0.@.! H F F d L Y R P y , # , 5 e r d r 0 , #                   ",
"      F J @.3.f.z.C.C.c.=.J F F d I { ..[ y , , q r r K K r q , #                   ",
"      L I _ O.%.k.K.J.g.=.Y D t d U ....[ y & 2 r d P K a r 7 , #                   ",
"        I T R ' d.b.b.g.X.a e t a U ....[ y & , q r r r r q 4 1 $                   ",
"          T T _ %.:.:.X.h q 0 e d U { o.{ y , % 4 7 7 q 5 4 < 1 $                   ",
"            I I T T I d 7 , 4 e d U o.o.[ y , + # , , , , , , , <                   ",
"              G F F D 0 1 # 2 e d U o.o.[ y , @ + + @ @ @ * p p i z                 ",
"                      8 % , 5 e K U { o.[ f & o o X . . X * i l x v v n             ",
"                        # , 8 e r U ..o.[ y , o X . . . . = l v b b v v             ",
"                        + , 0 w K I ..o.[ w , * = - - = - l v b b v v v             ",
"                        # , 7 w P U ..O.[ w < : i c c c c v b b b v                 ",
"                        # , 7 e r U ..o.U e , : z v n v v b b v v                   ",
"                        # , 0 e P I { { U e , : z b B b b b v v                     ",
"                        # , 7 w a L R R P e , * i                                   ",
"                        # , 7 w d K L T P q , +                                     ",
"                        # , 7 r a K L K K q , +                                     ",
"                        # , 7 r K K L K r q , +                                     ",
"                        # % 7 r a K P d r 7 , $                                     ",
"                        $ % 4 e r r r r e 4 1 $                                     ",
"                        $ 1 < 4 8 6 7 6 4 < % $                                     ",
"                        < , , , , , & , , & , ,                                     ",
"                      z i p p * + @ @ + * p p i z                                   ",
"                  v v v m z i = X . . X = i z m m v v                               ",
"                  v v b b n l : . . . . : l v b B v v                               ",
"                  v v n b n c k = > > - k c v b n v v                               ",
"                      v n v v c z l l l x n v n n                                   ",
"                        v v b n v v c v n b v v                                     ",
"                        v v A b v b b v b B v v                                     "
};
