/* XPM */
static char *result[] = {
/* columns rows colors chars-per-pixel */
"96 96 36 1 ",
"  c #6ABC98",
". c #6BBD99",
"X c #6DBF99",
"o c #6CBE9A",
"O c #6DBF9B",
"+ c #6FC19B",
"@ c #6EC09C",
"# c #6FC19D",
"$ c #70C29C",
"% c #71C39D",
"& c #70C29E",
"* c #71C39F",
"= c #72C49E",
"- c #73C59F",
"; c #72C4A0",
": c #73C5A1",
"> c #74C6A0",
", c #75C7A1",
"< c #74C6A2",
"1 c #75C7A3",
"2 c #76C8A2",
"3 c #77C9A3",
"4 c #76C8A4",
"5 c #77C9A5",
"6 c #78CAA4",
"7 c #79CBA5",
"8 c #78CAA6",
"9 c #79CBA7",
"0 c #7ACCA6",
"q c #7BCDA7",
"w c #7ACCA8",
"e c #7BCDA9",
"r c #7CCEA8",
"t c #7CCEAA",
"y c #7DCFAB",
"u c #7ED0AC",
/* pixels */
"<598<*:1::1595;@:<145411;5w5&o#<;:145511w81;*:14<4851<15e4*&:45188888888;;:;;<5w541598;o;::<4458",
":495<;:14<<<44:**;<14441:495;&:45444144485<;;;<1<4551<155:#*495:55555555:<441145511485:@11444455",
":185<:<481:;:<11<<144411<4541145w951<14511<<<14514541<141;&<9e5:44444444:489541151<155<*85554444",
":1441<1451:;:<11888541<<411144418541<114:<145899114111111115885411111111<155411141:<144<44444111",
":<441111:<111<<<4441111151<<11<;;:<1411<144441<:11<111111594;*<811111111:<<<:<4841<<1444<<<<<111",
"1114411<&:454<<<***;:<4454<<1<:;&*:141<:8851:&@O1<:<141<:48<#O*111111111:<:;;:49111<<144;:::<<<<",
"441441<:&:451<<1<<:::<1414441114:<<<1<<<544<:;**4<::141:<111<:;;11111111<141<<1411411<1111<<<<::",
"541441:;*<41<:15te941<<<<155448w851<::11<<<159we4<;:141:51<8tt4*4444444415995<::<1441<<18554<<:;",
";&*:;@@*1&oO:44:584*&:<::*&;154<5:#@&:<<#&;:1144@&;:;;;:;<11<;;;#15:&;145114:##;;**;<111451&#;<;",
"*&;11:<8t5:<595:<41;:598:;*;141<<<<5w94;<1111<<<;<5851::<144<<:::59<&*<<1:<41;<894:*;:::154::8w8",
"<:<5548tyw58et8<<41:<9w9<:::<1<:114wyt5:554411<<<5etw5:;544111119yy8<1441:<41<4et8<*;:<1154<19ew",
"51154<4w4115we8<485<<58411<<<<::51:<598411111455:18951::54<<<1449tt5<44151141;1995<:<455154::451",
"<::41;<8::<4881;<54<<5511441<:::5<:<4851<<<:<145:<11<<1551;;<441:44:;<1:1<<1<;<85444554<:41::44<",
"##*11:<8544551;#*<1<18951444<:<11149ew1*541:::<1111<<18w4<;:154<<54<1895*&;44<4w555884:&;14<19w5",
"&&<88<<4888551:*:4514994<454<:<45558w91*851<<145145411454<;<895<59845ee9**<88449544444<;<5845ww5",
"<18ew<;:1444441<8ww5585<<454<:15y8<;:11111<<18wt<4554<::51<4we8<141;:55<118ew1<11:;:15555994454:",
":1551<<11<<1441:11455544<<11144414441<<1<11444115555441<8415ww4;41115554<144441<<114411<:4981<48",
"::<:;;<41<:<14<:;;:<1111<<<<::::*:1411<<<<<<<:;*11111<<<111<:::<41<<11<<::;;;:<1:<<1111<;;:<111<",
"<<:**;4841<1441<*;;:<<1111<<:;;;&*<45411111<<;*&11<<<114:14:##:544111<<:<:*&&;14<<114444<*#*151:",
"5541:<48841155541<<<<11444111111<<<15554444441<:11<<14584551::151444111441:;;:14114445884<::144<",
"58884<<<51<<1441551<<<<1:<<1445581;;:111:<144444<:<<<1145445884:;<11<<154441<:;;11<<11454551:;<4",
"14551:;;1:**;<<<54<:;:<<&*;:<1448<*&;<<;&*;<<111*;::<::;4<<499<&&;<<;*:1<111<:*&1<:;;;:<1551*&:5",
"<141<<145<;;:<1141<:<158*;;:<1114<:<584;*;:<<<<<;<4551:;11<111<:<484;*;111<<<<1154<;;;:<411<:<58",
"441<<4wyw51<1588441149ey11111144114wuu911144411<45wee81:1551;*18wtyw1;:4541<15wtew51<14491:<8ete",
"<1111111<<<1454<44111<<<<111111444411<<:54411144:<11<:<11111111411111111145854<:11<1441:4<;<454:",
";;:11444411144<;111114441454<:<1<14554<<541<<<11<1441<144<:;:14444444444<<11444411<1441:1<<<4554",
"&*:14444854441:*111445551895:*;1:148851<84<::<14145511455<**:44455555555:::<145811<1441::<444459",
"*:<45541541141<;44444444<5w5:&:44455544154<:<159145411144:*:485<44444444<<14455511<1441:<4851<49",
"1445541<1<<1441<55444111;185:;18984<<<1441<<159w<111<:<11<<4994:11111111<459951<11<1441:1595<:<4",
"55411<<<<<<1454<44111<<<:<111145851:::<111114458:<11::<1:14554<:11111111145884<:11<1441:4454<::<",
"41:;;;:<41<1441:;;::<11451<<441:;:<<111<14441:;*<141<<14:14<*&;1444444441<:::<1411<1441:<:;:111<",
":;&##*:1541141:*##*;<458w4:<45<&o@:4851:4441:&O.14541145<44*. &4555555551;#O@;4911<1441:;&#*154<",
"15895444<4551:<1w8541589<111111484:;<144444444441<185<1984<4we5:<55:*:1:<1551<:<1444<:<1851<<158",
"58851::::*#&:11<951:;::<***:15551<;;:<<<*;:14555;*:41*;141<4881:&:<*&:1<5584<;**;;:::<14851:;;:<",
"4551:;:<4*oO;41:41<:;:<<*##*1854<:::11<;#*:14444;*:41*&;<<1111<<*11;*:1<5551:*;:::;;:<1554<:;:<<",
":<<<:<49t5*&;<1<<<<<459w1:*;151;1115851::<1441<:<<5w8:;<:144<:<15w91;<<;111<<<59w84<<111<<<<459w",
":<<<<18we95<;:15<<1489we51:<451:1148981:145541<<418ew1:11454<<158ew4:<1:1441149ee841141:::<1489w",
"14441145<441::1844444444<<111445<<<454<;444444551<498<:144111144:45<:154455511484<;<451:<<<<<<<<",
";:111<14:<1441<;1114411<:154:;<4<<<4541:851<:<14<:185:<551;;<41<:45<:485:<441<144<:1881*<<111<<:",
"o#;<11488415w8;.::145555<8w5&O#:54458851tw4;&&*;1<185<195:#&<4<;5ww51585O#;<1145w858w9:@:<145585",
"<14441<:411<<114<4981<1511444444e4;;154:5411459w:<<11<<:<::4994;<<<<<<<<<14541<:<<<<<<<<;498<;<5",
"45555544<<<<<<<<89984<<<4444445581::141<111148we<<1111<<11158851111111111114111<111111114595<;;:",
"44444455:<<11<<:851141<:44411111<<<<1111<<<<<145<114411<<14411451111111111<<<114111111114441<<::",
"1<:::<14<<1441<<<;&;154<<<<<<:::;:141<1441<:;*&&11444411;<1<**:4111111111<<::<4444444444<:;:1554",
"1<:::<11114444111:*;185411111<<<*:11<<14441<:;*&<114411<;<1<*&:1111111111<:::<1444444444<:*;<444",
"54411111441<<144w841144144445555::::<<<<<1455555<<<11<<<14541<11<<<<<<<<11<:::::1111111154<:;;::",
"55541<:;4<;**;<49951;;<1::<145585<**:1<:*:<48888;::<<::;5445851:::::::::111<<;**11111111454:&#;<",
"1141<;&#1:&@@&:1:<<;##:4#&*;:<119<&&:1<**;:<11<:;;::::;;41<485<&;;;;;;;;1141<;&#<<<<<<<<:14:##:8",
"<<:;;19tw5<;:<11:4545etw1<:<45411159ww84114441<<48etw4<:;<441::<wtw4154<1111<18ww5<;:<11411149ey",
"5541<15995<:<<<<15511881<1111114<<159951::<<1455159981<:144444418w81<44:4541<<1595<:<<<<851<1458",
"<1441148541<11<:<55<<44<<454<:<4<<<4551<11<<<145<1551<<184<<4841455::44<<11<::15541<11<:541<<144",
"O#;<<145411444<;;<1<1895:595:*:51114551<w84<::<<<14111458<&*151:154::451#*:<<159411444<;<<<<1489",
"O#:11144111454<;:4411995:595:*:554145541w84<::<<144414598<&*151:155<<884#*:<1159111454<;11114589",
"<15541<11<14551:5981154<<454<:<48544554111<<<1451444145984<<4841155<<884:<441<<11<14551:88554111",
"489841<11<<1441<488<<11;<1111114841<111<::<<1455<144111514444441154::45<<4554<<<1<<1441<55441<::",
"<1441<151<<<4441;<1::44<1<:<454151::<<::114441<<;<11<:<<;<441::<<41;;11:;<5855551<<<4441;:<<111<",
"1<;&#*1911<1441<&*;:<111<<<:::::o*481<18544<;&@O1114111<14<*@@*1:<11<:<44:*##*1551:::<<<<*&;141:",
":<11<158541455541111111111111111:<44<<15445441<:11<<14551441:;;:1444<:<1541<:::<5414551<<:::1588",
":18851<<84<<14449841<<<<<<<1144484<::<<<<<145885:;;;:145445895<*:<11<:<145554:*#5444551:444<:<48",
"1585<;&#4<**;:<<85<;;;:<;;;:<<118<**<1:&&*:<1444&*;:<<:;5448w91*&;:<::14<144<;&@41::<<<:885:##;4",
"4441:;:<4<**;:<<41<;;:14;;;:<<114:;19w1&**;:<<<<*:4881*#81<<584:<144<<<11<<:::::94;**:14454:&&<8",
"111<<49t84<<144444111589<<<114441<<8ty9<:<<11<<:15wte8:&51::<144ete94<:<51<:<189e8<;:158<<1<15wt",
"1141149e54145554444455581111111141159w84111441<<459w951<1111<<45www84<<<441<<459841144411<<159ww",
"4554<::<11<1441<111441<<<<<:::::1<::<111:<<111<<11111114:4851<48;:1<<<14<<<<<<11:<<454:&84:<45<;",
"O&:14458541598;o<<<11444:8t8;@;5:<4554<:w81;*;144444444494:;;<4555555555**;:<4582,>306-X==>,2333",
"&:488411511485:@44444444:495:*<58554111154<;;:14444444444:&*484<44444444;:1455413,>276-+,,223322",
":49w84<:51<155<*88554411:<411<45e951<<1411<<<145111111114;#:wt8;44444444<159951:3,>,33>%3333222,",
"14854<<141:<144<554441111<<<44418541<11444455554111111115<:19e8<44444444<145541<32>>,2,-3322,,,,",
"11<:;:1841<<1444::<<<11151<<441:;:<1411<445541<:111111115551<:<444444444<<:::14532>>>,,,>>--->,2",
"1<:;*:49111<<144;;::<<11541111<:#*:1441<111<:;*&11111111<45<&@*<111111111<;**<582,,>>,,2>-===-,2",
"<111<<1511411<11<<<<<<<<<<111144;::<111111<<<:::<<<<<<<<<144<;;:1111111141<::<14>,,,,,,23,>==->,",
"<48951<<<1441<<144411<<<*:11115954<::<4554444588<<<<<<<<1149ew4:11111111555541<<-,22,,,2062>=->>",
"4441;&&*1:**;<1<54:;**;:;&#*<41:;;*;:<;*@&:<<<45O&;<:;;;;<11<;;;;<4<*&;41441:*&&,>==->-=22>=$$=>",
"<141<<1481;*;14541<<148w<;*:141<1<14884<:144<:<<:1554<<<<144<<::<481*&;1:<11<<146,=%=>>>,2,,>,6q",
";<14459w95:;:158411148we4<<<141<1459ww8445551<<14899511154411111wet91<15:<11115903-%=>23,222230r",
":<44448984<<1441411<<144411111<:<<189951<141114814554<<154<<<1449ww841481441<<4573>->222,22,>>23",
"1441<::<<<1454:*1<<<<<11111<::::<<14884<<<1<:<48;<111<1451;;<441<<<<::14<111<<14322233,>>,,,>-,2",
"<11<;**;<<1554;&:<145889<111:;::54445841444<;;<1:14414584<;:154<11114588#*<11458,,2673,==>222360",
"*;:::;<1854444<:11458888<454<:<4w8414541554<:<48145411484<;<895<98558999&;4885552,,232,->2363367",
"@#;:<159t94<14448888541<<4851<48e81<<11<<11115wy4541::<151<4we8<54<<<1<<:4we951<32>->,,>36762,>,",
"541111<:8551<<481598<:15<<11144414441<<114455444144541<:4111411<411155544455541<114441<<:4851<48",
"<<<111<::<111<<1:;;:<141<<<<::::*:1411<<<<<<<:;*111441<<:<<;##;141<<11<<1<::::<1<<111<<<:;;:<111",
":<14541<*;<441<::&@&185111<<:;;;&*<45411<<<::*&#11444444;<1*Oo;544111<<:1<;&&;1411111144<*#*154:",
"15895411;;:1454<4<;;155444111111<<<1555411111<::11144555144<;*<51444111454<:;:<1444445585<;:1441",
"48981:;:<;**<1418851;*:4:<<1445581;;:111<<145544;::<<<115114881;;<11<<154441<:;*411<<1445551;;<5",
"<451*#&;1;##;11<588<&#;4&*;:<1448<*&;<<;*;:14444&*;:::**4<;4ww<@&;<<;*:1<111<;&#1<:;*;:<155<&&:5",
"<44<*&<581;<584<541::<59*;;:<1114<:<584;;;:<11<<;:4551;*1<:155<&<484;*;11<<<::::85<:;;:<44<::<59",
"1581:<9ue98wyy918<;:5tyy11111144114wuu91<<111<<:48eytw4<4441<<11wtyw1;:454<:<49wtw81<<1494;:5ett",
":1411<15411<<<1411111111;185:;1844411<<:411114551111111114454<<:<<<<<<<<441111<<114441<<<1111111",
"1454<:<1<<<141<;11111444<485:;<4<14554<<541<<<141111111141<:<<1<11111111::<11111114441<<<<<14455",
"4554<::<1<<485:#111445554585:;:<:148851<851:::14111111118<*&:14444444444&;:14441114441<<<<144588",
"4554<::<51<488<&444444441554<::144555441851::<45111111118<**155444444444;:145441114441<<44444455",
"<144<<14w5115841885411<<<1411<14984<<<1454111489111111114<:15851<<<<<<<<1145541<114441<<5554411<",
":<111145554114585541<<::<<<11444851:::<14111445511111111:<45541<<<<<<<<<444111<<114441<<44411<<:",
"<444<<<4*<54<:18<<<<<<<<4111111<;:<<111<11411:;*11111111;<41;&:1111111111<;;;:<1114441<<:::<<<11",
"4554<::<.*55<*:5**;:<114851111:;o@:4851:1141:*@o11111111*<1;Oo*444444444;*#@#;<4114441<<&&*:<144"
};
