/* XPM */
static char *result[] = {
/* columns rows colors chars-per-pixel */
"51 96 244 2 ",
"   c #000000",
".  c #0B0200",
"X  c #03050D",
"o  c #140200",
"O  c #1C0A01",
"+  c #1A0400",
"@  c #000618",
"#  c #181919",
"$  c #0B1915",
"%  c #2C0201",
"&  c #250702",
"*  c #330401",
"=  c #330B03",
"-  c #390C03",
";  c #291506",
":  c #351302",
">  c #3C1404",
",  c #381A04",
"<  c #2B1618",
"1  c #371C18",
"2  c #192808",
"3  c #3B2209",
"4  c #332614",
"5  c #000528",
"6  c #0A142B",
"7  c #162B34",
"8  c #252526",
"9  c #3A2826",
"0  c #2A3234",
"q  c #343535",
"w  c #3B3B3C",
"e  c #3A3936",
"r  c #2F3032",
"t  c #321D21",
"y  c #440300",
"u  c #451B04",
"i  c #4A1E03",
"p  c #451705",
"a  c #4D0F08",
"s  c #730A00",
"d  c #4C2204",
"f  c #482608",
"g  c #522504",
"h  c #552A05",
"j  c #5B2C03",
"k  c #552B09",
"l  c #5C2E09",
"z  c #512608",
"x  c #5B3309",
"c  c #5B3A16",
"v  c #4E2D18",
"b  c #642E01",
"n  c #792900",
"m  c #643304",
"M  c #6D3905",
"N  c #65340A",
"B  c #69360B",
"V  c #6C3A0B",
"C  c #6A3602",
"Z  c #723D0C",
"A  c #773902",
"S  c #6A3B16",
"D  c #703E15",
"F  c #423B3A",
"G  c #52352E",
"H  c #603F28",
"J  c #3B4936",
"K  c #5C4215",
"L  c #76410D",
"P  c #7B440D",
"I  c #7C4304",
"U  c #7D4611",
"Y  c #794716",
"T  c #6A4D18",
"R  c #574337",
"E  c #78552B",
"W  c #764B36",
"Q  c #6F4A2D",
"!  c #7D603B",
"~  c #021943",
"^  c #313B49",
"/  c #002E41",
"(  c #344551",
")  c #3E5668",
"_  c #434242",
"`  c #4C4C4C",
"'  c #474546",
"]  c #544C47",
"[  c #494954",
"{  c #4D5254",
"}  c #545454",
"|  c #55595B",
" . c #5B5B5B",
".. c #565856",
"X. c #5A524F",
"o. c #765748",
"O. c #665B57",
"+. c #745C53",
"@. c #7A665A",
"#. c #72634F",
"$. c #5B5D62",
"%. c #5D6365",
"&. c #636364",
"*. c #6A6B6C",
"=. c #66696B",
"-. c #766B65",
";. c #6D7174",
":. c #69727C",
">. c #727373",
",. c #7A7A7C",
"<. c #75777A",
"1. c #73706F",
"2. c #843B00",
"3. c #8B4D0D",
"4. c #874705",
"5. c #975606",
"6. c #844B12",
"7. c #8A4E13",
"8. c #844B19",
"9. c #8D5114",
"0. c #8C531C",
"q. c #85561B",
"w. c #925315",
"e. c #92561A",
"r. c #955A1C",
"t. c #9A5C1C",
"y. c #9A5A14",
"u. c #934F08",
"i. c #A15E17",
"p. c #9D611D",
"a. c #A7661A",
"s. c #A76409",
"d. c #875326",
"f. c #945B22",
"g. c #9A5E22",
"h. c #955A26",
"j. c #85502B",
"k. c #9E6125",
"l. c #97642B",
"z. c #9A6835",
"x. c #8F6D35",
"c. c #A26523",
"v. c #AC6D24",
"b. c #A26529",
"n. c #A66A2A",
"m. c #AB6D2B",
"M. c #A66925",
"N. c #AF7128",
"B. c #B1742C",
"V. c #B6782B",
"C. c #A56D36",
"Z. c #AD7333",
"A. c #A9753B",
"S. c #B57A34",
"D. c #B47B3A",
"F. c #B67A37",
"G. c #B26D2A",
"H. c #865E47",
"J. c #8A755C",
"K. c #926D49",
"L. c #A87A47",
"P. c #B07A42",
"I. c #A77D51",
"U. c #897A6E",
"Y. c #7C9B4B",
"T. c #7EA153",
"R. c #7B8B6F",
"E. c #888C3B",
"W. c #BB813E",
"Q. c #C2873B",
"!. c #B58143",
"~. c #BA8849",
"^. c #B98C54",
"/. c #B08953",
"(. c #908574",
"). c #B3936A",
"_. c #9F8053",
"`. c #C38E4D",
"'. c #C68A45",
"]. c #CA924C",
"[. c #C49252",
"{. c #CC9B5C",
"}. c #C99758",
"|. c #D39D56",
" X c #D49E4D",
".X c #D6A35B",
"XX c #C9AA54",
"oX c #E2A959",
"OX c #C89C61",
"+X c #CCA369",
"@X c #D6A767",
"#X c #DAAD74",
"$X c #D6B171",
"%X c #E2AE6A",
"&X c #E9B877",
"*X c #F2BC78",
"=X c #E8B56E",
"-X c #BCCC5E",
";X c #B0DA6F",
":X c #CBEA6F",
">X c #F6C27E",
",X c #777E87",
"<X c #7D8388",
"1X c #838384",
"2X c #8B8B8D",
"3X c #87878B",
"4X c #9B9B9D",
"5X c #939596",
"6X c #908F90",
"7X c #B09A8C",
"8X c #9DB589",
"9X c #ABA39D",
"0X c #9D9CA2",
"qX c #8B9AA5",
"wX c #A29EA9",
"eX c #9BA2A8",
"rX c #A2A2A3",
"tX c #A9AAAC",
"yX c #A5A7AA",
"uX c #AAABB1",
"iX c #B4B4B5",
"pX c #B9B9BA",
"aX c #AEB0B1",
"sX c #CAB094",
"dX c #E8BD84",
"fX c #C7BFBD",
"gX c #B4DD87",
"hX c #F3C68D",
"jX c #D3C7BD",
"kX c #EED2B4",
"lX c #BDBEC0",
"zX c #C5C5C8",
"xX c #D9D9D9",
"cX c #D5CFD1",
"vX c #F6E3CD",
"bX c #DDDFE1",
"nX c #DBE5EC",
"mX c #E3E3E4",
"MX c #E3E8ED",
"NX c #FDFDFD",
"BX c #F6F5F3",
"VX c #F7F1EA",
"CX c #E7DDD4",
"ZX c None",
/* pixels */
"ZXZXZXZXZXZXZXZXZX        ZXZXZXZXZXZXZXZXZX                                ZXZXZXZXZXZXZXZXZXZXZXZXZX",
"ZXZXZXZXZXZXZXZXZX        ZXZXZXZXZXZXZXZXZX                                ZXZXZXZXZXZXZXZXZXZXZXZXZX",
"ZXZXZXZXZXZXZXZXZX        ZXZXZXZXZXZXZXZXZX                                ZXZXZXZXZXZXZXZXZXZXZXZXZX",
"ZXZXZXZXZXZXZXZXZXZX          ZXZXZXZXZX                                ZXZXZXZXZXZXZXZXZXZXZXZXZXZXZX",
"ZXZXZXZXZXZXZXZXZXZX            ZXZXZX                                ZXZXZXZXZXZXZXZXZXZXZXZXZXZXZXZX",
"ZXZXZXZXZXZXZXZXZX              ZXZXZX                                ZXZXZXZXZXZXZXZXZXZXZXZXZXZXZXZX",
"ZXZXZXZXZXZXZXZX                                                          ZXZXZXZXZXZXZXZXZXZXZXZXZXZX",
"ZXZXZXZXZXZXZX                                                              ZXZXZXZXZXZXZXZXZXZXZXZXZX",
"ZXZXZXZXZXZX                                                                ZXZXZXZXZXZXZXZXZXZXZXZXZX",
"ZXZXZXZXZXZX                                                                ZXZXZXZXZXZXZXZXZXZXZXZXZX",
"ZXZXZXZXZXZX                                                                ZXZXZXZXZXZXZXZXZXZXZXZXZX",
"ZXZXZXZXZXZX                                                                ZXZXZXZXZXZXZXZXZXZXZXZXZX",
"ZXZXZXZXZX                                                                    ZXZXZXZXZXZXZXZXZXZXZXZX",
"                                                                                  ZXZXZXZXZXZXZXZXZXZX",
"                                                                                  ZXZXZXZXZXZXZXZXZXZX",
"                                                                                    ZXZXZXZXZXZXZXZXZX",
"                                                                                  ZXZXZXZXZXZXZXZXZXZX",
"                      .                                                           ZXZXZXZXZXZXZXZXZXZX",
"                                                                                    ZXZXZXZXZXZXZXZXZX",
"ZXZXZX              .                             .                                     ZXZXZXZXZXZXZX",
"ZXZXZX              .                             .                                       ZXZXZXZXZXZX",
"ZXZXZX                  O , 3 f x v x f 3 : &                                             ZXZXZXZXZXZX",
"ZXZX        .           , h N L Y E Y Y M h ,           .                                 ZXZXZXZXZXZX",
"              .         f M 6.r.p.v.c.r.6.M f .       .                                   ZXZXZXZXZXZX",
"                .   . f B 6.t.m.W.Q.F.m.p.6.B f .   .                                     ZXZXZXZXZXZX",
"                ; , d B 6.t.v.W.].XX].!.n.e.6.L x 3 ;               .                     ZXZXZXZXZXZX",
".             ZXZXC A 6.t.v.F.].|.@X.X`.S.a.p.9.I x ,               .                     ZXZXZXZXZXZX",
"            ZXZXZXZXw.p.M.v.F.^.OX@XOX[.W.v.p.w.P x ,     O & & .                         ZXZXZXZXZXZX",
"      .   ZXZXZXZXZXi.a.a.g.l.z././.~.!.S.v.t.U x f ;   ; d g u &                       ZXZXZXZXZXZXZX",
"    . . ZXZXZXZXZXZXa.v.c.Y c c K K q.n.B.n.E x +     & i C C j =         . .       ZXZXZXZXZXZXZXZXZX",
"      ZXZXZXZXZXZXZXW.F.l.K       X K l.S.Z.d.4       ; B 8.0.Y k .               ZXZXZXZXZXZXZXZXZXZX",
".   ZXZXZXZXZXZXZX].|.}.P.K   5 ~ ( @.I.`.D.l.x       < E A.P.z.E k = & .         ZXZXZXZXZXZXZXZXZXZX",
"ZXZXZXZXZXZXZXs.D.|.@X$X/.T X ~ { >.(.).OX~.A.L y     2 H./.}.^.x.L g p o           ZXZXZXZXZXZXZXZXZX",
"ZXZXZXZXZXZXa.v.'.%X*X&XOXE @ ( <X0X9XsX$X}.W.f.A y   9 K.OX@X}.A.3.b d O         ZXZXZXZXZXZXZXZXZXZX",
"ZXZXZXZXZXZXS.W.oX*X>X>XOXE 7 ,XuXlXjXdX$X.X`.W.z.Y N Q _.XX@X}.D.w.A g O         ZXZXZXZXZXZXZXZXZXZX",
"ZXZXZXZXB.W.`.}.%X*X>XhXOX! | <XzXnXCXjX$X X}.{.~.L.x.l.D.~.].~.Z.w.A j O     ZXZXZXZXZXZXZXZXZXZXZXZX",
"ZXZXZXN.B.'.|.+X%X*XhX&XOX! %.eXbXNXVXkX#X X.X@X+X[.D.m.B.F.F.Z.c.w.I j O   ZXZXZXZXZXZXZXZXZXZXZXZXZX",
"ZXZXZXN.B.W.`.{.@X&X*X&X^.T | eXnXNXNXkX=X X.X@X.X[.W.B.N.N.n.a.r.U N d o   ZXZXZXZXZXZXZXZXZXZXZXZXZX",
"ZXZXZXZXZXD.P.P.{.%X&X=X/.K ^ eXMXNXNXvXhXoX.X{.`.!.Z.a.a.a.p.r.U B f 3 ZXZXZXZXZXZXZXZXZXZXZXZXZXZXZX",
"ZXZXZXZXZXZXr.g.P.|.#X@X!., 6 qXbXNXNXvXhXoX X`.B.M.t.0.w.t.e.6.x ,   ZXZXZXZXZXZXZXZXZXZXZXZXZXZXZXZX",
"ZXZXZXZXZXZXZXA f.P.{.+XA.L R rXxXBXVXvX>XoXQ.S.s.5.0.3.6.3.U N 3     ZXZXZXZXZXZXZXZXZXZXZXZXZXZXZXZX",
"ZXZXZXZXZXZXZXZX9.A.!.^.W.l._.7XkXvXkXkX%X].W.v.5.u.7.6.4.Z m d ;   ZXZXZXZXZXZXZXZXZXZXZXZXZXZXZXZXZX",
"ZXZXZXZXZXZXZXZXZXf.h.D.~./.+XdXkXhXhX#X[.S.v.r.3.3.9.7.D N , O ZXZXZXZXZXZXZXZXZXZXZXZXZXZXZXZXZXZXZX",
"ZXZXZXZXZXZXZXZXZXZXn f.W.XX$X=X=X=X=X].B.s.y.w.7.w.w.8.V ,     ZXZXZXZXZXZXZXZXZXZXZXZXZXZXZXZXZXZXZX",
"ZXZXZXZXZXZXZXZXZXZXZXu.A.`.{.|. X XQ.N.y.5.5.p.y.t.y.7.V f   ZXZXZXZXZXZXZXZXZXZXZXZXZXZXZXZXZXZXZXZX",
"ZXZXZXZXZXZXZXZXZXZXZXZXn.C.Z.D.A.A.n.t.u.5.s.v.v.v.i.w.8.ZXZXZXZXZXZXZXZXZXZXZXZXZXZXZXZXZXZXZXZXZXZX",
"ZXZXZXZXZXZXZXZXZXZXZXZXZX7.w.w.3.3.4.6.7.k.n.S.Z.m.t.6.4.ZXZXZXZXZXZXZXZXZXZXZXZXZXZXZXZXZXZXZXZXZXZX",
"ZXZXZXZXZXZXZXZXZXZXZXZXR W W Y n n 4.p.A.L.L.I.L.z.d.M b ZXZXZXZXZXZXZXZXZXZXZXZXZXZXZXZXZXZXZXZXZXZX",
"ZXZXZXZXZXZXZXZXZXZXZX# ' O.+.W s s u.V.}.OX).J.@.o.H i *     0 '  .$.O.%.O.ZXZXZXZXZXZXZXZXZXZXZXZXZX",
"ZXZXZXZXZXZXZXZXZXZX. # ' $.=.@.j.u.a.].@XOX).U.$.^ 8       X w | =.*.1.=.=.ZXZXZXZXZXZXZXZXZXZXZXZXZX",
"ZXZXZXZXZXZXZXZXZX*   $ ( | *.1X(.7X7X+X+X).(.&.( / 5     # _ &.R.6X6X2X1X;.*.ZXZXZXZXZXZXZXZXZXZXZXZX",
"ZXZXZXZX2.2.u.w.P g o   7 ' 1.0XfXcXcXsX).J.#.] 7 6   X 8 w &.1X4XyXyX4X2X>.&.' ZXZXZXZXZXZXZXZXZXZXZX",
"ZXZXZX4.4.4.u.7.6.j %   6 q ;.aXbXBXmXiXU.] e 8       8 q { 1.2XtXiXiXyX0X3X<.%.} ZXZXZXZXZXZXZXZXZXZX",
"ZXZXZXz.n.S.m.i.7.T v 0 0 J >.aXbXMXbXuX:.7 6         # q ` *.2XtXpXzXlXpXpXiXrX3X(.ZXZXZXZXZXZXZXZXZX",
"ZX3.C.~.^.[.D.p.8.W ] { { } >.0XzXcXzX0X:.( 8 X       @ $ 0 } ,X4XaXzXxXbXmXmXcXpX4X,.ZXZXZXZXZXZXZXZX",
"4.3.A.^.@X{.~.g.8.o.O.%.$.&.;.2XwXuXwX6X1...w 6             q &.3XyXcXmXNXNXNXVXxXiX,._ ZXZXZXZXZXZXZX",
"4.w.D.}.@X@X~.g.8.o.-.*.=.$.&.,X8X8XqX,X%.{ F t & % ; ;     # } >.0XfXmXBXNXNXNXVXcXeX&.} ZXZXZXZXZXZX",
"5.y.Z.`.|.[.D.y.j.+.-.;.$.[ ] R.8XgX;XR.} F G v j j b h y + = ` *.3XaXzXbXBXNXNXNXmXpX1X>.1.ZXZXZXZXZX",
"u.y.b.F.!.W.G.u.j.H.>.;.[ 6 e T.;XgX;XT.w & a D I L Z Z j y 1 ' O.,.6X0XiXxXBXNXNXmXzXrX3X1. .ZXZXZXZX",
"7.3.t.M.B.N.a.5.j.o.-.=.^ @ 2 Y.;X:X;XT.2   a A P 6.6.P C i u F ` &.;.,X5XpXbXBXNXmXzXiXrX2X=. .ZXZXZX",
"3.w.e.p.c.v.s.5.j.H.-.%.~ . ; E.-X:X-XE.2   * m Z D Z B j i u 9 F ` $.=.,XyXcXbXmXxXzXpXaXrX1X<.>.ZXZX",
"ZXZXZXr.i.a.a.i.f.j.ZXZX6 X ; E.XX$XXX! 2   . u z z z z i u p 1 < q { &.,.5XuXlXzXzXzXpXiXtX5X3X,.=.&.",
"ZXZXZX7.7.w.y.w.9.ZXZXZXZX  ; x.~.[.~.x.;     > u u p u p p p %     r ` &.,.3X5XyXaXiXiXaXtX0X2X,.=.&.",
"ZXZXZXZX6.6.7.9.9.ZXZXZXZXZX; Q C.P.C.E k : d l l l k d z i > %     # w O.*.,X1X6X0XrXyX0X0X5X3X,.>.*.",
"ZXZXZXZXZXZXZXZXZXZXZXZXZXZXZXQ E j.j.Y N m A L Y L V B x z > * + ZXZXZXZXZX<.<.<X<X<X<X<X,X,X,X*.*.*.",
"ZXZXZXZXZXZXZXZXZXZXZXZXZXZXZXZXp f l S P 6.6.9.9.6.6.P B k > = ZXZXZXZXZXZX*.*.>.;.*.=.=.=.*.=.=.=.*.",
"ZXZXZXZXZXZXZXZXZXZXZXZXZXZXZXZX    a Z 8.e.e.w.9.9.6.P V l > = ZXZXZXZXZXZXO.+.-.J.J.J.J.J.-.H.@.-.-.",
"ZXZXZXZXZXZXZXZXZXZXZXZXZXZXZXZX  o l U r.g.r.e.9.7.6.P V l > = ZXZXZXZXZXZXQ W I.^.).).^.I.K.K.H.H.H.",
"ZXZXZXZXZXZXZXZXZXZXZXZXZXZXZXZX. - S q.k.k.t.9.7.7.6.P V k > * ZXZXZXZXZXZX2.6.A.}.@X@XOX~.Z.n.k.e.f.",
"ZXZXZXZXZXZXZXZXZXZXZXZXZXZXZXZXu h Y f.b.b.g.0.6.P U Z N g > - ZXZXZXZXZXZXZX4.g.~.{.@X|.Q.a.s.5.4.4.",
"ZXZXZXZXZXZXZXZXZXZXZXZXZXZXu g l V 8.k.b.b.g.9.6.Z V l z u : = = = ZXZXZXZXZXZXg.P.!.].'.V.a.s.5.ZXZX",
"ZXZXZXZXZXZXZXZXZXZXZXZXZX= u l A 6.e.k.b.k.f.7.L m k i > > - - > - : ZXZXZXZXZXZXg.l.C.G.a.e.w.ZXZXZX",
"ZXZXZXZXZXZXZXZXZXZXZXZXZX% z V 8.w.t.k.b.h.0.Y M j i : > p z z g z i ZXZXZXZXZXZXZX2.4.4.4.7.7.ZXZXZX",
"ZXZXZXZXZXZXZXZXZXZXZXZXZX+ p D 7.t.k.g.r.0.Y V l i > > f l N B V B l z i ZXZXZXZXZXZX2.4.4.6.ZXZXZXZX",
"ZXZXZXZXZXZXZXZXZXZXZXZXZX. p D f.g.g.f.8.U B k i > > p l V D Z Z Z N l p * ZXZXZXZXZXZXZXZXZXZXZXZXZX",
"ZXZXZXZXZXZXZXZXZXZXZXZXZX* z Y h.b.g.e.U M j u = * : f N Z 6.7.6.6.Z m i < ZXZXZXZXZXZXZXZXZXZXZXZXZX",
"ZXZXZXZXZXZXZXZXZXZXZXZXz j B 8.g.b.b.f.P M j p * * - f N Z 7.7.7.7.P m i < F ZXZXZXZXZXZXZXZXZXZXZXZX",
"ZXZXZXZXZXZXZXZXZXZX* i l M 6.e.k.b.g.e.6.Z N i - - > z N Z 6.w.w.9.P b > 9 F X. .$.|  .ZXZXZXZXZXZXZX",
"ZXZXZXZXZXZXZXZXZXZX= g M 6.9.t.g.b.g.f.U M l i - = - f N Z 6.6.7.7.Z b i 9 _ }  . . ...X.ZXZXZXZXZXZX",
"ZXZXZXZXZXZXZXZXZX9 < g Z 9.t.g.g.h.e.8.Z N l f = = = i l B Z Z 6.6.A C b G R ` { { } ' ` ZXZXZXZXZXZX",
"} } } .. . . .$.} w < u Z 0.k.g.t.0.8.D N z i ZXZXZXZXZXz k N N N N M A Z S G e 0 0 q q w { ..ZXZXZXZX",
"} } } } ..|  .| } F t i L f.b.g.0.6.Z b z - ZXZXZXZXZXZXZXu p p p u l D U L k ;       # w X... .ZXZXZX",
"&.O. ...` } { } ] F v B 6.g.b.g.0.M j i - & ZXZXZXZXZXZXZX> = % & % z S L M d o       $ _  ... .ZXZXZX",
"&.$...' q r 0 0 F H D 6.r.k.b.f.Y j i p ZXZXZXZXZXZXZXZXZXZXZXZXZXZXz l N j p         # F .... .ZXZXZX",
"$. .` e #     X 1 N U e.g.b.b.f.D i % ZXZXZXZXZXZXZXZXZXZXZXZXZXZXZXZXz u u % .       # _ } .. .ZXZXZX",
"..} ` e 8       % j L 7.r.k.g.d.S > o ZXZXZXZXZXZXZXZXZXZXZXZXZXZXZXZXZX= 1 < 8 8     # w } .. .ZXZXZX",
"ZXZX` ' ( e #   . > j L U 9.w.7.B p % ZXZXZXZXZXZXZXZXZXZXZXZXZXZXZXZXZXZX1 e F w 8   X w .... .ZXZXZX",
"ZXZXZX} } { w X     + 3 m I 4.A m p = ZXZXZXZXZXZXZXZXZXZXZXZXZXZXZXZXZXZXZX{ } ` q     w  ... .ZXZXZX",
"ZXZXZX$. .{ _ 8 $       f T D H v p = ZXZXZXZXZXZXZXZXZXZXZXZXZXZXZXZXZXZXZXO. ..._ 8 8 w `  . .ZXZXZX",
"ZXZXZXZXZX} ' _ e 6     v ] o.Q H p ZXZXZXZXZXZXZXZXZXZXZXZXZXZXZXZXZXZXZX . . . .} _ w _ ` ZXZXZXZXZX",
"ZXZXZXZXZXZXX.} } q     q X.O.X.ZXZXZXZXZXZXZXZXZXZXZXZXZXZXZXZXZXZXZX} ...... . .O. .` ` ZXZXZXZXZXZX",
"ZXZXZXZXZXZXZX .X.^ 8 # q [ }  .ZXZXZXZXZXZXZXZXZXZXZXZXZXZXZXZXZXZXZX......} } } | .. .ZXZXZXZXZXZXZX",
"ZXZXZXZXZXZXZX ...' e q w [ | ZXZXZXZXZXZXZXZXZXZXZXZXZXZXZXZXZXZXZXZXZX....} ..}  . . .ZXZXZXZXZXZXZX",
"ZXZXZXZXZXZXZXZXZX` ` ` ` ZXZXZXZXZXZXZXZXZXZXZXZXZXZXZXZXZXZXZXZXZXZXZXZXZXZXZXZXZXZXZXZXZXZXZXZXZXZX",
"ZXZXZXZXZXZXZXZXZX....} ..ZXZXZXZXZXZXZXZXZXZXZXZXZXZXZXZXZXZXZXZXZXZXZXZXZXZXZXZXZXZXZXZXZXZXZXZXZXZX",
"ZXZXZXZXZXZXZXZXZXZX..|  .ZXZXZXZXZXZXZXZXZXZXZXZXZXZXZXZXZXZXZXZXZXZXZXZXZXZXZXZXZXZXZXZXZXZXZXZXZXZX"
};
