/* XPM */
static char *f6803fb9c5e343e3c61b3384790d9a21tHNnWzIB9EPUK0lV[] = {
/* columns rows colors chars-per-pixel */
"45 96 243 2 ",
"   c None",
".  c #000000",
"X  c #060406",
"o  c #130101",
"O  c #1B0000",
"+  c #1C0B01",
"@  c #140D08",
"#  c #191A1A",
"$  c #090A12",
"%  c #230000",
"&  c #2D0000",
"*  c #230D01",
"=  c #2B0D08",
"-  c #330300",
";  c #3B0200",
":  c #340C03",
">  c #3A0E02",
",  c #2C1402",
"<  c #281502",
"1  c #3C1402",
"2  c #351604",
"3  c #371B16",
"4  c #271C1B",
"5  c #002B00",
"6  c #3A2207",
"7  c #31231F",
"8  c #000F2A",
"9  c #292929",
"0  c #2D3132",
"q  c #3C3C3C",
"w  c #363334",
"e  c #322C2E",
"r  c #132226",
"t  c #430400",
"y  c #421A04",
"u  c #4B1C01",
"i  c #441400",
"p  c #551800",
"a  c #590000",
"s  c #4C2404",
"d  c #482607",
"f  c #522503",
"g  c #542B04",
"h  c #5B2B05",
"j  c #542C0C",
"k  c #5B2E0A",
"l  c #532507",
"z  c #5A3408",
"x  c #472819",
"c  c #5A3610",
"v  c #4F2D11",
"b  c #642800",
"n  c #64350B",
"m  c #6A3708",
"M  c #6D3B0C",
"N  c #683604",
"B  c #723E0C",
"V  c #783800",
"C  c #723F14",
"Z  c #493B38",
"A  c #4C302B",
"S  c #6A3F29",
"D  c #630000",
"F  c #245111",
"G  c #7D4301",
"H  c #74410E",
"J  c #7B440E",
"K  c #7B4702",
"L  c #6D4618",
"P  c #7B4510",
"I  c #7D4C1C",
"U  c #774816",
"Y  c #574437",
"T  c #674926",
"R  c #754D34",
"E  c #78553A",
"W  c #71532A",
"Q  c #577A38",
"!  c #6E6A37",
"~  c #6A681A",
"^  c #0E3544",
"/  c #333E48",
"(  c #101842",
")  c #453D4E",
"_  c #3A4449",
"`  c #384D58",
"'  c #4B4B4C",
"]  c #474545",
"[  c #544C49",
"{  c #4B5458",
"}  c #555555",
"|  c #5A5A5B",
" . c #585657",
".. c #4D4E50",
"X. c #69554B",
"o. c #775847",
"O. c #635A57",
"+. c #745649",
"@. c #6B615D",
"#. c #766358",
"$. c #585D63",
"%. c #4B5D6A",
"&. c #5E6367",
"*. c #666565",
"=. c #6B6B6C",
"-. c #666769",
";. c #676D72",
":. c #6B7277",
">. c #727273",
",. c #7A7A7A",
"<. c #777778",
"1. c #766C6B",
"2. c #843C00",
"3. c #834401",
"4. c #8C4B02",
"5. c #874A07",
"6. c #924D01",
"7. c #8D5307",
"8. c #975704",
"9. c #844B12",
"0. c #894E12",
"q. c #824C1C",
"w. c #8C5115",
"e. c #8A5119",
"r. c #87541B",
"t. c #925414",
"y. c #9A5D1C",
"u. c #975918",
"i. c #A05708",
"p. c #9A6314",
"a. c #AC6B00",
"s. c #A56618",
"d. c #B37209",
"f. c #875627",
"g. c #995E24",
"h. c #955D27",
"j. c #895935",
"k. c #875026",
"l. c #9B6124",
"z. c #9A642B",
"x. c #996829",
"c. c #9A6937",
"v. c #916C3E",
"b. c #A36522",
"n. c #AB6C25",
"m. c #A16528",
"M. c #A56B2A",
"N. c #A76A27",
"B. c #AC722D",
"V. c #B47729",
"C. c #A36C36",
"Z. c #AB7538",
"A. c #B37632",
"S. c #B57933",
"D. c #B77B39",
"F. c #B16F28",
"G. c #986B43",
"H. c #856959",
"J. c #997659",
"K. c #A77745",
"L. c #A77A58",
"P. c #B87C45",
"I. c #8F7A6C",
"U. c #A07E62",
"Y. c #598A38",
"T. c #78A947",
"R. c #BB823B",
"E. c #B6862F",
"W. c #C48D36",
"Q. c #C28300",
"!. c #BA8748",
"~. c #B88A52",
"^. c #BC9358",
"/. c #A9874C",
"(. c #8FB653",
"). c #AEB355",
"_. c #9D877C",
"`. c #B08C72",
"'. c #C48C4B",
"]. c #C28945",
"[. c #C9944A",
"{. c #CC9B5B",
"}. c #C99555",
"|. c #D29E5A",
" X c #C9924F",
".X c #D5A458",
"XX c #D3AD59",
"oX c #C99B62",
"OX c #C19C7D",
"+X c #D4A564",
"@X c #D9AA69",
"#X c #D4AD6E",
"$X c #E8B778",
"%X c #ECBA77",
"&X c #ABD96A",
"*X c #D4D26B",
"=X c #CFEC76",
"-X c #797D83",
";X c #6F7780",
":X c #807F80",
">X c #7B8287",
",X c #848484",
"<X c #8B8B8C",
"1X c #868688",
"2X c #8D8E91",
"3X c #858C93",
"4X c #939394",
"5X c #9B9B9C",
"6X c #96979A",
"7X c #919092",
"8X c #A7948C",
"9X c #B59784",
"0X c #A59C98",
"qX c #B7A191",
"wX c #9A9DA1",
"eX c #9BA4AC",
"rX c #A1A1A3",
"tX c #AAABAB",
"yX c #A5A7AA",
"uX c #AAADB2",
"iX c #ACB1B7",
"pX c #BABBBC",
"aX c #B4B5B7",
"sX c #B8ACA5",
"dX c #CDAE92",
"fX c #CAB9AE",
"gX c #D6C4B6",
"hX c #E6CAAE",
"jX c #BABDC1",
"kX c #BFC4C9",
"lX c #C6C7C8",
"zX c #DBDADB",
"xX c #D4D4D5",
"cX c #D3D0CF",
"vX c #EAD9CA",
"bX c #F0E4DA",
"nX c #E6E8E9",
"mX c #FBF3EC",
"MX c #F4F4F4",
"NX c white",
"BX c #FAF9F6",
"VX c #F0EFEE",
"CX c #D7DBE0",
/* pixels */
"                                      . . . .                                             ",
"                                      . . . .                                             ",
"                                      . . . .                                             ",
"              . .                     . . . . . .                                         ",
"            . . . .                   . . . . . . .                                       ",
"            . . . .                   . . . . . . .                                       ",
"            . . . . .               . . . . . . . . .                                     ",
"            . . . . . .         . . . . . . . . . . . . .                                 ",
"            . . . . . . .       . . . . . . . . . . . . .                                 ",
"          . . . . . . . . .   . . . . . . . . . . . . . . .                               ",
"        . . . . . . . . . . . . . . . . . . . . . . . . . . . . . . .                     ",
"      . . . . . . . . . . . . . . . . . . . . . . . . . . . . . . . . .                   ",
"      . . . . . . . . . . . . . . . . . . . . . . . . . . . . . . . . .                   ",
"      . . . . . . . . . . . . . . . . . . . . . . . . . . . . . . . . . . .               ",
"      . . . . . . . . . . . . . . . . . . . . . . . . . . . . . . . . . . . .             ",
"      . . . . . . . . . . . . . . . . . . . . . . . . . . . . . . . . . . . .             ",
". . . . . . . . . . . . . . . . . . . . . . . . . . . . . . . . . . . . . . .             ",
". . . . . . . . . . . . . . . . . . . . . . . . . . . . . . . . . . . . . . .             ",
". . . . . . . X . . . . . . . . . . . . . . . . . . . . . . . . . . . . . . .             ",
". . . . . . . . . . . . . . . . . . . . . . . . . . . . . . . . . . . . . . . . .         ",
". . . . . . . . . . . . . . . . . . . . . . . . . . . . . . . . . . . . . . . . . .       ",
". . . . . . . . . . . . . . . . . . . . . . . . . . . . . . . . . . . . . . . . . .       ",
". . . . . . X X . . . . . . . X . . . X . . . . . . . . . . . . . . X . . . . . . .       ",
". . . . . . X . . . . . . . . X . . . X X . . . . . . . . . . . . . X X . . . . . .       ",
". . . . . . . . o * < 2 < + . . . . . . . X + * 2 6 6 d 6 6 , < + X . . . . . . . .       ",
"X . . . . . . . * d z c g 2 . . . . . . . . & u b H U U U H z g 2 o . . . . . . X X       ",
"X . . . . . . . , z P P H d . . . X . . . . i b G w.b.x.y.r.J N s + . . . . . . X X       ",
". . o + * + . . 2 n w.t.U g . . . . X . * j L w.l.A.D.E.A.M.u.J g * . . * < + X . .       ",
". . * d g g * . o z 9.w.J g . . . . 6 z L W c./.!. X}. X'.D.N.9.z . . , g g d o . .       ",
". . 2 z H N d . . g K 0.J d . . . . v U x.R.~.{.+X@X@X+X}.].B.w.z . . s M H z + . .       ",
". . d P w.w.m 2 , H U w.P g . . . . c r.n.R.}.+X@X#X#X@X|.].S.l.L < , M w.w.H d . .       ",
"s z H e.y.y.r.L L f.l.y.P g . . . . c r.M.D.!.^.^.^.^.^.!.!.D.n.h.L L r.y.y.0.M d d       ",
"J P w.y.b.n.M.m.x.B.B.M.7.f . . . . v U u.z.v.v.v.! W W x.B.S.A.C.x.l.N.n.s.y.w.B M       ",
"0.w.y.M.A.S.A.A.A.S.D.A.h.n . X . . d M 9.9.M d X X X * L l.S.D.D.S.S.S.A.B.n.y.0.9.      ",
"4.t.M.P.].'.P.S.A.V.D.S.v.o.' ^ 8 X s K t.0.z . . 8 ( / +.c.A.S.V.A.S.!.].].D.n.w.4.      ",
"    P.{.|.|.'.B.s.s.d.A.L.I.>.%.^ . u K p.8.V O X ^ %.;.I.K.B.d.s.s.Z.'.|.{.'.A.4.3.      ",
"      @X@X@X Xc.4.i.a.D.`.8X2X-X{ $ y 7.n.n.3.- 8 %.>X6X8X~.A.a.8.7.C.~.@X@X}.Z.4.V       ",
"      #X+X+XP.h.4.8.d.~.dXsXpXeX;X0 z x.!.!.p.d _ >XuXjXfXOX!.a.8.5.z.~.oXoX~.x.4.        ",
"      '.~. XD.u.y.d.W.oXgXvXCXkX>X' W /.+X+XZ.Y %.wXlXCXvXdX[.V.s.t.u.Z.!.!.P.x.          ",
"      z.h.N.y.6.l.V.[.#XhXmXMXCXeX| E }.$X#X/.R &.iXnXBXbXhX@XW.F.u.4.u.l.y.l.            ",
"      3.3.2.2.3.g.V.W.$XvXBXNXnXiX&.! {.%X%X^.! %.jXVXNXmXhX@XE.s.e.G 5.e.q.              ",
"        V 2.V   n.d.Q.@XhXBXNXVXeX` L }.%X%X~.c %.jXMXBXBXhX|.d.7.N p S o.+.              ",
"                    d.oXvXBXNXnXeX^ z ^.%X$X/.1 ` jXVXNXmXhX].i.V ; o [ @.@.              ",
"                    i.P.hXmXBXzX6X0 H /.$X$XR.g ' yXnXBXbXdXA.2.N 7 ^ { ;.=.>.            ",
"                  b V c.qXgXxXfX_.L 7.[.@XXXW.4.E 8XlXvXgX`.f.K X.-.;.:.:.;.=.=.          ",
"              . @ : y T H.9X9X`.L.a.d.W..X.XW.a.l.L.`.qX_.o.c X.,.2X2X,X<.;.=.=.=.        ",
"            @ X . . . o l V 4.8.s.A.'.{.#X@X{.!.A.s.8.3.b & . { ,XwXrX6X1X,.,.<.-.-.      ",
"            w . . . . . X ; D 3.c.`.dXdXhXhXdX`.L.h.V a & . X ` -X5XrXrX5X4X<X-X-.O.o.    ",
"        I.;./ . . . . . . O t E I.8XfXvXbXbXlXsX:XH.S ; . . . _ =.1X5XtXuXtXwX-X$.X.E 6.6.",
"      ,X,.<.| 9 . . . . . . @ } <.wXjXzXMXVXxXiX8X>...X . . . q | <.7XtXpXaXwX-X&.+.j.t.4.",
"      1X<X4X,X>.| ] 9 . . . X _ -.3XiXxXnXnXxXjXwX:._ X . . 9 ] | >.<X5XtXtX0XI.H.j.h.u.8.",
",.,.1X<X4XrXwX5X<X>.] . . X X 9 / &.3XaXlXxXjXjX6X;X` . . 9 ] } *.<.>X<X4X4X_.U.K.c.b.u.i.",
",.,.,X7X5XyXiXaXtX<X .. . . . . . # $.<XyXiXuXtXwX;X' . . q } &.*.=.>.:.;.1.J.L.A.F.y.t.7.",
",X,X7X5XyXtXjXfXaX4X| . . . . . . . e $.,.7X0XtX5XI.[ . . q ..| @.*.*.&.O.H.G.Z.F.s.y.0.0.",
",X,X7X5XyXuXpXpXtX<X} . . . . . . . $ ( ) =._.`.9XI.Y . . 9 / _ {   #.X.+.j.C.F.s.s.u.    ",
"<.,.<XrXtXaXaXtXwX-X... . . . . X X $ $ 8 ) J.^.oXL.W . . X # r       j.k.m.b.s.u.u.      ",
";X-X4XtXkXkXaXyX7X>.] . . O , * o . 5 5 F ~ E.^.[.R.T . . . X .         6.7.4.7.0.9.      ",
"1.T.5XjXxXxXgXrX:X*.] % ; f k u % . F Y.T.(.).}.[.Z.T . . . % O           6.4.5.          ",
";.:XrXcXnXnXlX5X>. .A - p N H b & . Q (.&X=X*XXX].C.T . . % 1 1                           ",
"1.;XyXzXVXVXlX6X*.) A i p V 9.b & . Q &X=X=X=XXX XG.T . . & y y                           ",
"*.1.uXzXMXVXlX6XO.Z A t p N m p . . Q (.*X*X*XXX XC.T . . & y u                           ",
"-.:XyXzXVXVXlX6X&.Z 7 ; t u l ; . . W /.XX*X%XXX}.K.T . . % y y                           ",
"=.;XyXzXMXVXlX6X=.[ A i ; i 1 & . . T Z.[.XX.X.X}.K.T . . & y y                           ",
"-.I.rXzXMXmXxXyX,X1. .Z x v l s 1 6 T j.C.P.!.!.!.c.L 6 & i y 1                           ",
"=.<.yXzXMXMXzXjX5X,X1.[ Y S M N N N C I k.j.c.C.x.h.I n f l y 1                           ",
"=.<.tXxXMXMXnXlXuX7X-X&.X.R J G 3.J C j d j C q.e.w.9.B m b y :                           ",
"1.-XrXlXnXnXxXlXuXwX:X-.+.E 9.3.4.9.B u O & b 3.7.0.0.9.C n 1 :                           ",
">.-X6XjXcXxXlXaXyX7X-X*.X.R J 2.3.P B p & i M e.g.u.0.J M k y :                           ",
";XT.7XtXjXjXjXyXwX3X;X*.X.R J G K P M g i j I h.m.g.w.P m h y :                           ",
":X1.<X0XsXsXsX0X8XI.<.@.+.R J G 3.P B g 1 j I z.m.g.w.B m h y :                           ",
"H.H.U.9XdXdX9X9XU.I.H.o.E q.P 3.5.9.H h 1 v I g.m.g.w.P n k y :                           ",
"k.k.J.oXOX#XoX~.K.C.j.k.q.q.9.P 9.P H g i j I z.m.g.w.B m k y :                           ",
"2.2.F.'.|..X[.W.d.s.i.6.K K B P P P M l y j I h.m.g.w.C m k y :                           ",
"2.2.b.P.[.[..X[.'.S.i.4.G V n n n M k u > v q.h.m.g.0.9.m b y :                           ",
"6.8.b.F.D.[.|.+X+X'.M.5.V b l d d l d > : j q.g.m.y.0.B m k y :                           ",
"0.0.u.b.F.R.}.@X+X~.C.9.b l 1 & : 1 : & ; k q.g.m.g.e.C m k y :                           ",
"0.w.u.t.s.A.].}.^./.v.S S y % . o % % % - c I h.m.g.w.B m k i :                           ",
"      u.u.F.A.D.K.G.H.[ ) 7 . . . . o O - c q.h.m.g.e.P m h y :                           ",
"      w.0.t.6.6.k.R X.} / 9 X . . X o O - c q.g.m.g.e.P m k y :                           ",
"        5.3.2.2.C +.} { ../ 0 0 0 0 0 4 : k q.g.m.g.w.B m k y :                           ",
"                  X.} | | } ' ' ....] e 3 h 9.g.m.g.w.P m h y :                           ",
"                    } | | | }  .| } ' q 3 f P g.m.g.w.J m k y :                           ",
"                    } } } | | | $.O.[ w 3 f P h.m.g.0.C n k y :                           ",
"                                    ) e 3 h P u.g.u.0.P B b y :                           ",
"                                      = 1 j J 0.t.w.0.P B k y :                           ",
"                                      - > l M J 9.9.P C n k y :                           ",
"                                      - ; p h N m M n n k l y : % .                       ",
"                                      t > i p s l l l d u u y > % . .                     ",
"                                      x x x 3 1 - - , : 1 1 1 2 3 # #                     ",
"                                      Y ] Z A * o o O % % % & 7 w q q                     ",
"                                      } ..[ q # . . . . . . X 7 ] [ }                     ",
"                                      | | } _ 9 X . $ $ X . $ 0 ' }  .                    ",
"                                      $.} | ..q 0 0 w w 0 0 0 ] } | |                     ",
"                                       .} | } ' ] ] ' ' ' ' ' ..| | }                     ",
"                                       .} &.| } } } } } } } } } | | }                     ",
"                                      } } | | | | | | | } | } | | | }                     "
};
