/* XPM */
static char *result[] = {
/* columns rows colors chars-per-pixel */
"46 96 235 2 ",
"   c #000000",
".  c #050307",
"X  c #160400",
"o  c #1B0100",
"O  c #1A0A02",
"+  c #181818",
"@  c #030B1A",
"#  c #230000",
"$  c #2C0101",
"%  c #270C00",
"&  c #330100",
"*  c #3B0200",
"=  c #340D02",
"-  c #3C0A00",
";  c #2B1606",
":  c #3C1403",
">  c #391902",
",  c #261916",
"<  c #301217",
"1  c #3C2408",
"2  c #37221A",
"3  c #011823",
"4  c #000235",
"5  c #0D2935",
"6  c #2B2C2C",
"7  c #252626",
"8  c #382B28",
"9  c #2E3131",
"0  c #333434",
"q  c #393838",
"w  c #2C2F30",
"e  c #440600",
"r  c #431501",
"t  c #441B03",
"y  c #4B1C01",
"u  c #461907",
"i  c #511F00",
"p  c #4C2304",
"a  c #4A2707",
"s  c #542502",
"d  c #542A04",
"f  c #5B2B03",
"g  c #532A0C",
"h  c #5A2C09",
"j  c #562504",
"k  c #5E3409",
"l  c #432318",
"z  c #573916",
"x  c #4D301F",
"c  c #642B00",
"v  c #6A2F00",
"b  c #643305",
"n  c #63330A",
"m  c #6D3A0B",
"M  c #6A3704",
"N  c #733C04",
"B  c #733E0B",
"V  c #773700",
"C  c #673C15",
"Z  c #483D3A",
"A  c #4E372D",
"S  c #673C22",
"D  c #75410D",
"F  c #7B440D",
"G  c #784406",
"H  c #694417",
"J  c #7D4611",
"K  c #7C4A1C",
"L  c #774815",
"P  c #73510A",
"I  c #54482B",
"U  c #634A29",
"Y  c #784B24",
"T  c #715234",
"R  c #4E622D",
"E  c #4D6930",
"W  c #58431F",
"Q  c #153748",
"!  c #374A57",
"~  c #34444C",
"^  c #454646",
"/  c #4A4A4B",
"(  c #484746",
")  c #545555",
"_  c #5B5B5B",
"`  c #575757",
"'  c #4F5050",
"]  c #6F584B",
"[  c #74655D",
"{  c #7D6558",
"}  c #796048",
"|  c #4A5B67",
" . c #5C666E",
".. c #646464",
"X. c #666A6B",
"o. c #6B6B6C",
"O. c #65676B",
"+. c #756D6C",
"@. c #686D73",
"#. c #6C7277",
"$. c #737474",
"%. c #7B7B7C",
"&. c #777778",
"*. c #813E00",
"=. c #854401",
"-. c #884B0D",
";. c #874906",
":. c #934D00",
">. c #984D00",
",. c #8A520A",
"<. c #975606",
"1. c #854B13",
"2. c #8A4E13",
"3. c #864B16",
"4. c #8D5115",
"5. c #8D531A",
"6. c #925414",
"7. c #92561A",
"8. c #94591C",
"9. c #9B5C1B",
"0. c #985713",
"q. c #A35900",
"w. c #A15D18",
"e. c #9A611A",
"r. c #9F600F",
"t. c #A96603",
"y. c #B37204",
"u. c #A7661B",
"i. c #B57618",
"p. c #B26E00",
"a. c #865626",
"s. c #955B21",
"d. c #9A5E22",
"f. c #8E5C33",
"g. c #9D6225",
"h. c #9A652A",
"j. c #996836",
"k. c #A26423",
"l. c #A26529",
"z. c #A86B26",
"x. c #AC722B",
"c. c #B27323",
"v. c #B67928",
"b. c #A8753B",
"n. c #B37632",
"m. c #B57A35",
"M. c #B87C3A",
"N. c #A96E32",
"B. c #845D46",
"V. c #866148",
"C. c #906F50",
"Z. c #AB7844",
"A. c #B37D4D",
"S. c #937B69",
"D. c #BC823A",
"F. c #B78129",
"G. c #C5893A",
"H. c #C0862E",
"J. c #9F9A47",
"K. c #AD8245",
"L. c #B8874A",
"P. c #B58859",
"I. c #B29053",
"U. c #99B85A",
"Y. c #BD8A62",
"T. c #BA9464",
"R. c #A48675",
"E. c #A88960",
"W. c #C48C48",
"Q. c #CB954B",
"!. c #C7934E",
"~. c #C89756",
"^. c #D29C56",
"/. c #D18E44",
"(. c #D7A35B",
"). c #C79A67",
"_. c #C29875",
"`. c #D4A564",
"'. c #D8A969",
"]. c #CBA86A",
"[. c #E5B575",
"{. c #ECBB7B",
"}. c #EBB976",
"|. c #E8B46E",
" X c #E5A55B",
".X c #BFEE76",
"XX c #C7C05A",
"oX c #C4DE6F",
"OX c #C2E26F",
"+X c #7A7D81",
"@X c #7E8385",
"#X c #838385",
"$X c #8B8B8D",
"%X c #848589",
"&X c #888C92",
"*X c #8D9196",
"=X c #969799",
"-X c #9A908F",
";X c #A69791",
":X c #BDA490",
">X c #9C9EA2",
",X c #9FA4A9",
"<X c #A3A3A5",
"1X c #ACACAD",
"2X c #A4A7AB",
"3X c #AEB1B5",
"4X c #B3B4B5",
"5X c #BCBCBC",
"6X c #B7B6B8",
"7X c #B3B1AE",
"8X c #D4B08E",
"9X c #CEB9AA",
"0X c #E4C29B",
"qX c #D9C2B1",
"wX c #E5D3BF",
"eX c #B7BDC3",
"rX c #AFB9C0",
"tX c #BCC1C5",
"yX c #C4C4C5",
"uX c #CACBCC",
"iX c #C7C7CA",
"pX c #CFCFD1",
"aX c #D6D7D8",
"sX c #CFD0D2",
"dX c #E3D0C2",
"fX c #F6E8DA",
"gX c #DFDFE0",
"hX c #E4E4E3",
"jX c #EBEBEB",
"kX c #F5ECE5",
"lX c #ECEEF1",
"zX c #FEFEFE",
"xX c #F3F5F6",
"cX c #EFF0F0",
"vX c None",
/* pixels */
"vXvXvXvXvXvXvXvXvXvXvXvXvXvXvXvXvXvXvXvXvXvXvXvXvXvXvXvX      vXvXvXvXvXvXvXvXvXvXvXvXvXvXvX",
"vXvXvXvXvXvXvXvXvXvXvXvXvXvXvXvXvXvXvXvXvXvXvXvXvXvXvX        vXvXvXvXvXvXvXvXvXvXvXvXvXvXvX",
"vXvXvXvXvXvXvXvXvXvXvXvXvXvXvXvXvXvXvXvXvXvXvXvXvXvXvX        vXvXvXvXvXvXvXvXvXvXvXvXvXvXvX",
"vXvXvXvXvXvXvXvXvXvXvXvXvXvXvXvX    vXvXvXvXvXvXvX            vXvXvXvXvXvXvXvXvXvXvXvXvXvXvX",
"vXvXvXvXvXvXvXvXvXvXvXvXvXvXvX        vXvXvXvXvXvX            vXvXvXvXvXvXvXvXvXvXvXvXvXvXvX",
"vXvXvXvXvXvXvXvXvXvXvXvXvXvXvX        vXvXvXvXvX              vXvXvXvXvXvXvXvXvXvXvXvXvXvXvX",
"vXvXvXvXvXvXvXvXvXvXvXvXvX          vXvXvXvXvX              vXvXvXvXvX  vXvXvXvXvXvXvXvXvXvX",
"vXvXvXvXvXvXvXvXvXvXvXvX            vXvXvXvX                vXvXvXvX      vXvXvXvXvXvXvXvXvX",
"vXvXvXvXvXvXvXvXvXvXvXvX              vXvX                    vXvX        vXvXvXvXvXvXvXvXvX",
"vXvXvXvXvXvXvXvXvXvX                                                      vXvXvXvXvXvXvXvXvX",
"vXvXvXvXvXvXvXvXvX                                                        vXvXvXvXvXvXvXvXvX",
"vXvXvXvXvXvXvXvXvX                                                        vXvXvXvXvXvXvXvXvX",
"vXvXvXvXvXvXvX                                                            vXvXvXvXvXvXvXvXvX",
"vXvXvXvXvXvX                                                              vXvXvXvXvXvXvXvXvX",
"vXvXvXvXvXvX                                                              vXvXvXvXvXvXvXvXvX",
"vXvXvXvXvXvX                                                                vXvXvXvXvXvXvXvX",
"vXvXvXvXvXvX                                                                    vXvXvXvXvXvX",
"vXvXvXvXvXvX                                                                    vXvXvXvXvXvX",
"vXvXvXvXvXvX                                                                    vXvXvXvXvXvX",
"vXvXvXvXvXvX                                                                    vXvXvXvXvXvX",
"vXvXvXvXvXvX                                                                    vXvXvXvXvXvX",
"vXvXvXvXvX                        .                                       .       vXvXvXvXvX",
"vXvXvX            .               .       . .                         .               vXvXvX",
"vXvXvX                . O % O X               . O O ; ; ; ; ; ; O O X                 vXvXvX",
"vXvXvX                o t p p =               O > p k D L H H n d > O                 vXvXvX",
"vXvXvX      .         % d V v r               ; d M J 5.e.g.8.-.N d %                 vXvXvX",
"vXvXvX                g K 8.7.H 1             1 b 1.e.z.m.M.x.e.4.m a                 vXvXvX",
"vXvXvX          O = d Y j.Z.K.j.Y H g ;       1 D 0.x.L.Q.Q.L.b.9.1.D d > %           vXvXvX",
"vXvXvX.         % s N j.L.~.^.L.m.e.H 1       a L z.D.Q.`.`.~.D.z.e.5.F k ;           vXvXvX",
"vXvXvX          t v ;.N.Y.'.'.Q.D.h.L 1       a K h.D.~.`.'.^.L.x.u.9.1.m a           vXvXvX",
"vXvXvX    X = p d j V h.L.`.~.L.x.,.D 1       ; H 8.j.K.I.~.I.D.n.z.5.N c d y = o     vXvXvX",
"vXvXvX    = j v c e & U Z.L.L.h.G t % O         1 C P U H Y h.F.x.h.C = r v v d =     vXvXvX",
"vXvXvX    d J 3.J p   z s.n.N.5.1                         1 a.N.n.h.z   a J 4.F d     vXvXvX",
"vXvXvX= a Y j.Z.b.a.W H e.c.N.B.' Q 5 @ O a k k 1   . 4 Q / V.N.x.g.L W Y b.b.j.Y d = vXvXvX",
"vXvXvXc D j.L.~.I.K.j.e.r.i.Z.S.%. .! @ $ G ,.4.M X 4 ~ | &.S.b.c.u.e.h.Z.~.~.I.j.B c vXvXvX",
"vXvXvXV -.m.~.`.`.!.D.x.y.i.A.;X>X*X@.5 - P x.x.;.* 5  .*X>X;XA.i.y.c.D.!.`.'.~.b.-.*.vXvXvX",
"vXvXvX=.6.M.~.`.^.W.n.c.y.H._.9XyXrX&X! a h.!.W.h.a ! &X6XyX9X_.H.i.c.m.L.`.`.~.M.6.=.vXvXvX",
"vXvXvX;.6.n.W.!.!.b.k.N.F.Q.8XdXhXaX2X .U K.'.'.K.U  .2XaXhXdX8XQ.F.z.k.n.W.!.W.n.6.=.vXvXvX",
"vXvXvX-.4.z.m.m.n.9.-.l.v.^.0XfXzXlXeX@.T I.0XXXI.T @.rXcXzXfX0X^.F.h.,.9.n.m.n.z.4.-.vXvXvX",
"vXvXvXvX4.8.u.z.u.<.=.g.i.Q.0XkXzXxXtX@.U ~.{.{.T.U @.tXxXzXkX0XQ.i.e.=.<.u.z.g.8.4.vXvXvXvX",
"vXvXvXvXvX8.9.u.u.<.0.w.p.H.8XkXzXxXtX| > I.}.{.I.1 | tXxXxXkX8XH.p.r.,.<.u.u.9.7.vXvXvXvXvX",
"vXvXvXvXvXvX7.4.w.0.6.<.q.p.8XfXzXxX3X! $ K.}.[.D.* ! 3XxXzXfX8Xy.q.<.6.0.w.7.6.vXvXvXvXvXvX",
"vXvXvXvXvXvXvX;.;.-.4.>.>.q._.dXjXhX7X..P I.}.}.I.P [ 7XhXjXdX_.q.>.<.,.-.-.;.vXvXvXvXvXvXvX",
"vXvXvXvXvXvXvXvXvXvXvX<.>.<.P.8XqXqX8XE.L.'.{.{.(.I.E.:XqXqX8XE.q.>.<.vXvXvXvXvXvXvXvXvXvXvX",
"vXvXvXvXvXvXvXvXvXvXvXvX:.6.N.A.T.).~.].'.[.{.{.[.`.).).).Y.A.N.<.:.vXvXvXvXvXvXvXvXvXvXvXvX",
"vXvXvXvXvXvXvXvXvXvXvXvXm J :.>.<.y.D.(.'.}.{.{.|.|.(.G.p.q.:.:.J C vXvXvXvXvXvXvXvXvXvXvXvX",
"vXvXvXvXvXvXvXvXvXvXvX  & d N =.>.t.i.W.(. X X'.(.(./.i.t.:.=.G d &   vXvXvXvXvXvXvXvXvXvXvX",
"vXvXvXvXvXvX#X%.o.~       # h B ,.r.i.F.H.G.(.(.Q.G.v.u.w.-.D g O       6 ) ..o.vXvXvXvXvXvX",
"vXvXvXvXvXvX#X$X%X+.' 0 3 . % s V 7.h.Z.Y._.8X8X`.~.Z.d.7.V j # . 3 0 ' O.%.&.$.vXvXvXvXvXvX",
"vXvXvXvXvX#X%X$X=X=X$X%.) 3   $ j T C.S.:X9XdXdX9X:XS.V.S e #   3 ) %.$X-X$X#X&.$.vXvXvXvXvX",
"vXvXvX&.%.#X&X*X>X2X3X>X&.9     o ' $.=X9XaXkXcXpXrX-XS.Z       6 #.>X7X1X>X$X#X$.O...vXvXvX",
"vXvXvX&.#X=X2X3X6XqXtX2X%.0       q X.@X3XaXlXlXaX3X+X+X' 3     q +X2XyXeX6X1X>X$Xo._ vXvXvX",
"vXvXvX+.#X1XqXtXpXuX5X<X&.0       5 ' @.*XtXaXaXeX*X+X@.#.@.) 0 / %.<X5XuXpXuX5X>Xo.) vXvXvX",
"vXvXvXO.&.1XsXjXhXuX7X*Xo.9       + + q  .=X3X4X*X_ / @.*X*X+X` ` &.*X4XuXhXjXpX<X..( vXvXvX",
"vXvXvX_ &.6XhXxXcXpX2X+X_ 6             q &.=X=X$.+ @ @.=X>X$X..` O.#X2XpXcXxXgX7X..q vXvXvX",
"vXvXvX` &.5XjXzXcXuX=XO./ 7             2 { R.R.B.$ . _ %X&X+X) ( ) o.=XuXxXzXhX7X_ 7 vXvXvX",
"vXvXvX) &.6XjXzXcXyX#X' q +             x C.T.T.C.a @ ~ O.@.| 0 6 0 ' %XyXlXzXhX1X_ + vXvXvX",
"vXvXvX..&.5XjXzXcX5X&.9 , +     X       W b.Q.^.b.z . 5 / / Z O   + 9 &.qXlXzXjX4X..Z vXvXvX",
"vXvX$.@.#X5XjXzXcX5X$.8 , , $ t d p     R J.(.XXJ.I   < A U x & # X 6 $.5XcXzXjX6X&._ ..vXvX",
"%.%.%.%.$X5XjXzXjX5X&.q 2 2 r f B b *   R U.OXOXU.R . e S Y n r < 2 0 &.5XjXzXhX5X%X#.o.o...",
"%.+X@X*X<XyXhXxXhX4X&.Z 8 2 i M F B e   E U.OXOXU.E   e V G M i 2 8 I &.6XgXxXhXyX<X$X%.o...",
"R.@X>X6XyXaXaXhXuX2X$.( 8 l e c B b &   E U.OXOXU.R   & c M c e l q ^ &.2XuXgXgXaXyX4X*X$...",
"$.@X2XaXjXjXaXyX1X*X@.) Z l e r d t     R J.XX].J.I     y s y e l Z ' #.*X1XyXaXjXjXpX<XX.) ",
"o.%.7XaXxXjXuX2X$X+X+.` ( l * e t =     W Z.~.I.Z.W     = u e e l ( _ @.%.$X2XpXkXxXaX<XX./ ",
"o.%.,XiXaXsX3X&X$.+.{ ] S x j j f f r > C f.Z.Z.f.C r t s g r - l A ] +.+.+.@XrXsXgXiX=X..) ",
"&.+X&X=X,X,X@X&.o.{ B.a.Y S M N B B M M C Y a.f.a.B N B m m f r l S Y B.V.o.+X@X,X2X>X@XO...",
"@X+X#.#.@. .#. .+.} a.=.=.J F 1.2.2.3.1.D k u g C 3.2.3.1.D b t t v =.a.B.+.O.@.o.o.@.X...o.",
"R.S.S.S.E.C.S.{ V.f.:.:.=.-.3.5.9.8.4.1.B i o $ n 5.9.0.3.D n p u v =.<.C.C.S.C.} T ] [ +.{ ",
"A.A.T.).].).E.Z.j.d.9.:.=.F J s.d.d.7.1.B s & r L s.d.8.3.D k u u v *.w.Z.T.T.Y.Z.j.j.V.V.V.",
"b.M.~.[.[.[.^.K.z.e.6.3.F J 3.s.k.d.5.3.B d r a K d.l.d.3.D k t t c V d.L.).'.`.L.m.z.e.7.6.",
"y.c.Q.|.}.|.^.v.t.<.6.1.F F 3.s.l.l.s.3.B f : g K d.l.d.4.F n p t i V d.K.~.(.^.W.i.t.<.:.=.",
"vXvX/.^.(. X/.c.<.0.vXvXB F 4.d.l.g.s.1.m s r g Y d.l.d.5.J m j : r vXvXb.Z.W.W.M.u.0.<.vXvX",
"vXvXvXW.M.G.m.w.-.vXvXvXB F 5.d.g.g.8.1.m f : g K d.l.k.7.-.B h : # vXvXvXs.g.l.u.6.5.vXvXvX",
"vXvXvXc.c.u.0.2.;.vXvXvXN F 6.d.h.g.s.3.B d r g Y d.l.g.7.2.B h =   vXvXvX*.*.=.;.3.3.vXvXvX",
"vXvXvXvXvXvXvXvXvXvXvXvXV B 2.d.l.l.s.3.B f u g Y h.l.g.7.3.B h $ . vXvXvXvXvXvXvXvXvXvXvXvX",
"vXvXvXvXvXvXvXvXvXvXvXvXB B 6.d.l.g.8.2.B f r g 3.d.l.l.7.-.B h = o vXvXvXvXvXvXvXvXvXvXvXvX",
"vXvXvXvXvXvXvXvXvXvXvXvXJ 1.7.d.g.d.a.J m s r g Y s.g.w.7.3.B n p t vXvXvXvXvXvXvXvXvXvXvXvX",
"vXvXvXvXvXvXvXvXvXvXvX1.5.s.9.d.d.7.3.B h t vXh 3.5.s.7.6.-.-.B n h p vXvXvXvXvXvXvXvXvXvXvX",
"vXvXvXvXvXvXvXvXvXD F 3.a.d.k.d.8.3.B h u vXvXvXvXJ 3.6.2.2.1.1.B n g : = vXvXvXvXvXvXvXvXvX",
"vXvXvXvXvXvXvXvXvXD F 9.k.l.l.d.6.F m u $ vXvXvXvXB -.4.5.5.3.-.F m h : = vXvXvXvXvXvXvXvXvX",
"vXvXvXvXvXvXvXvXvX=.1.9.l.l.l.s.3.D M y $ vXvXvXvXF 2.7.9.d.s.3.F m h : = vXvXvXvXvXvXvXvXvX",
"vXvXvXvXvXvXvXvXvXN D 7.g.l.g.s.1.B n p = vXvXvXvXJ 3.d.d.g.s.3.B m j r = vXvXvXvXvXvXvXvXvX",
"vXvXvXvXvXvXvXvXvXB B 4.d.g.d.5.3.B b s : vXvXvXvXB 1.s.d.h.s.4.B m h : = vXvXvXvXvXvXvXvXvX",
"vXvXvXvXvXvXvXvXvXf n J 5.d.d.7.1.B n y = vXvXvXvXn B 5.d.d.s.3.B m h : = vXvXvXvXvXvXvXvXvX",
"vXvXvXvXvXvXvXvXvXt u m 1.6.7.6.3.B n p - vXvXvXvXu h J 7.7.6.3.J m g : = vXvXvXvXvXvXvXvXvX",
"vXvXvXvXvXvXvXvXvX# - h B 1.3.1.J B n i : vXvXvXvX& p m 3.1.1.1.B m j : = vXvXvXvXvXvXvXvXvX",
"vXvXvXvXvXvXvXvXvX& = g n B D D m n j y = vXvXvXvX$ r c m B B m m h g r = vXvXvXvXvXvXvXvXvX",
"vXvXvXvXvXvXvXvXvX= r p g h g h g s y r e vXvXvXvX* r i d h h j p g y t r vXvXvXvXvXvXvXvXvX",
"vXvXvXvXvXvXvXvXvXu u t : : : = : = u l l vXvXvXvXl u l : - = : : t t : u vXvXvXvXvXvXvXvXvX",
"vXvXvXvXvXvXvXvXZ 8 = $ # o o X o < A Z I vXvXvXvXZ Z A ; X X # # $ $ = 8 ( vXvXvXvXvXvXvXvX",
"vXvXvXvXvXvXvX` ^ 9 X             , ^ ) ' vXvXvXvX' ` Z ,             X 8 / ` vXvXvXvXvXvXvX",
"vXvXvXvXvXvX_ ` ) q +     . .     7 ^ ) _ vXvXvXvX` ) ( 7     . .     + q ) ` ` vXvXvXvXvXvX",
"vXvXvXvXvXvX_ ` _ ( 0 6 w 9 0 9 6 q ^ ) _ vXvXvXvX_ ) ^ 0 9 9 9 9 w 6 0 ( _ ` ` vXvXvXvXvXvX",
"vXvXvXvXvXvX` ) _ ) / ^ ^ / ^ / / / ' vXvXvXvXvXvXvXvX' / / / ^ / ( ^ / ) _ ` ` vXvXvXvXvXvX",
"vXvXvXvXvXvX) ) _ _ ) ) ) ) ` _ ` ` vXvXvXvXvXvXvXvXvXvX` ` _ ` ` ) ` ` ` _ ) ) vXvXvXvXvXvX",
"vXvXvXvXvXvX) ) _ _ ` _ ` ` ` _ ..` vXvXvXvXvXvXvXvXvXvX` _ .._ ` ` ` ` _ _ ) ) vXvXvXvXvXvX"
};
