/* XPM */
static char *result[] = {
/* columns rows colors chars-per-pixel */
"96 77 256 2 ",
"   c #000026",
".  c #010137",
"X  c #002314",
"o  c #630F06",
"O  c #705C15",
"+  c #000245",
"@  c #000D55",
"#  c #042859",
"$  c #143054",
"%  c #273454",
"&  c #103365",
"*  c #243A64",
"=  c #16135E",
"-  c #5F3543",
";  c #1B4957",
":  c #0A4C56",
">  c #244358",
",  c #006358",
"<  c #1E5368",
"1  c #185166",
"2  c #28456A",
"3  c #334F6D",
"4  c #066E65",
"5  c #326471",
"6  c #556E77",
"7  c #505353",
"8  c #317032",
"9  c #970C04",
"0  c #A90400",
"q  c #B30101",
"w  c #BA0202",
"e  c #B11017",
"r  c #B51627",
"t  c #972931",
"y  c #AD262E",
"u  c #AA272E",
"i  c #B3252C",
"p  c #B5252A",
"a  c #AC2931",
"s  c #A62A34",
"d  c #B42931",
"f  c #BB2B34",
"g  c #B72D39",
"h  c #B2333B",
"j  c #B43038",
"k  c #AC343B",
"l  c #912E00",
"z  c #C40000",
"x  c #CB0200",
"c  c #D00F06",
"v  c #E70101",
"b  c #EB1C18",
"n  c #F11E15",
"m  c #EF0C07",
"M  c #D3260C",
"N  c #F3241B",
"B  c #CD2727",
"V  c #D62928",
"C  c #C12C35",
"Z  c #D23739",
"A  c #EF2B27",
"S  c #EC2D2A",
"D  c #E62B29",
"F  c #F62D29",
"G  c #F8312C",
"H  c #E93736",
"J  c #F33432",
"K  c #EA2F30",
"L  c #D01F23",
"P  c #92670E",
"I  c #B33246",
"U  c #9F3B4F",
"Y  c #D53E45",
"T  c #924856",
"R  c #B6484A",
"E  c #B14954",
"W  c #B4546F",
"Q  c #B2656D",
"!  c #926459",
"~  c #D94A4B",
"^  c #E44648",
"/  c #E85858",
"(  c #CD716D",
")  c #EA6969",
"_  c #EB7878",
"`  c #F17478",
"'  c #DC5E62",
"]  c #059073",
"[  c #329777",
"{  c #0AA977",
"}  c #34A47E",
"|  c #1F9945",
" . c #449474",
".. c #4BA56D",
"X. c #6AA45A",
"o. c #B8A831",
"O. c #988D28",
"+. c #CDA20F",
"@. c #E3D22B",
"#. c #B68B54",
"$. c #9D9760",
"%. c #EA817F",
"&. c #CDA45E",
"*. c #E0CF57",
"=. c #57738A",
"-. c #5F768B",
";. c #B86888",
":. c #BE5E81",
">. c #C57698",
",. c #CF7EA5",
"<. c #F07F81",
"1. c #29AF83",
"2. c #59858D",
"3. c #709493",
"4. c #73AF8D",
"5. c #7A98A9",
"6. c #7297AB",
"7. c #79A5AF",
"8. c #5EB497",
"9. c #6FC3A4",
"0. c #7BACC1",
"q. c #B58C8A",
"w. c #AA898B",
"e. c #859CAF",
"r. c #89A8B7",
"t. c #91B0B4",
"y. c #A6B6BA",
"u. c #B4ADB5",
"i. c #A195A5",
"p. c #CF8D8E",
"a. c #EB8787",
"s. c #F08788",
"d. c #EC9795",
"f. c #F29898",
"g. c #E7908E",
"h. c #D690B1",
"j. c #E28CB9",
"k. c #E893BE",
"l. c #F19FA0",
"z. c #C7B5B6",
"x. c #CDAEB3",
"c. c #E9A8A6",
"v. c #F3A8A7",
"b. c #E7B3AE",
"n. c #EBBBB5",
"m. c #ECBDBB",
"M. c #E8B5B6",
"N. c #F5BBB9",
"B. c #E8A8B8",
"V. c #E2AC9A",
"C. c #A5CCAE",
"Z. c #EEC2BD",
"A. c #F2C2BE",
"S. c #F3C5BF",
"D. c #E6CAB5",
"F. c #D4D09C",
"G. c #8AB3C5",
"H. c #99B8C7",
"J. c #97BCD7",
"K. c #8DB2CB",
"L. c #A5BAC9",
"P. c #B2AEC7",
"I. c #BB9EC3",
"U. c #D69BC2",
"Y. c #ED99C5",
"T. c #EE9BCA",
"R. c #E996C6",
"E. c #F39CCD",
"W. c #F89BCE",
"Q. c #F497C8",
"!. c #F59ED1",
"~. c #FA9DD2",
"^. c #FE9AD8",
"/. c #EA8EC3",
"(. c #C8A6C8",
"). c #D9A6C9",
"_. c #D8BCC2",
"`. c #D9ABD1",
"'. c #D5B7D0",
"]. c #E9A3CA",
"[. c #F1A2CE",
"{. c #F2ADC8",
"}. c #EEBBC3",
"|. c #F3B9C6",
" X c #E9A9D5",
".X c #F5A3D4",
"XX c #FAA1D5",
"oX c #FDA5DB",
"OX c #FDAADC",
"+X c #F8A9D7",
"@X c #FAB7D6",
"#X c #E3BAD6",
"$X c #FEAAE2",
"%X c #9DC1DB",
"&X c #9ECAC8",
"*X c #A9C7C6",
"=X c #B5C9CA",
"-X c #A9C7D7",
";X c #B5CBD7",
":X c #BCD4D9",
">X c #B1D8CB",
",X c #9AC7E8",
"<X c #A6C8E6",
"1X c #BAD7E8",
"2X c #B1D2EC",
"3X c #C7C7CA",
"4X c #D8C9C9",
"5X c #D5C7D5",
"6X c #CCDCDC",
"7X c #C6D6D8",
"8X c #DED1D1",
"9X c #D6DBDB",
"0X c #C7CDD3",
"qX c #EEC3C3",
"wX c #E7C9C9",
"eX c #F3C5C2",
"rX c #F3CAC5",
"tX c #F5CDCA",
"yX c #FACCCB",
"uX c #F8C6C7",
"iX c #F6D2CE",
"pX c #F9D1CE",
"aX c #FDC9D5",
"sX c #E8D4D4",
"dX c #F5D4D2",
"fX c #FCD5D4",
"gX c #FCD8D6",
"hX c #FDDBDB",
"jX c #FAD7D6",
"kX c #E4C9D6",
"lX c #C9E2DC",
"zX c #D0E9DC",
"xX c #FDE0DF",
"cX c #E0E1DF",
"vX c #C4DAE4",
"bX c #CADDF3",
"nX c #D6D9E1",
"mX c #CDE2E3",
"MX c #D4E3E4",
"NX c #DBE4E5",
"BX c #DCEAEA",
"VX c #D6E8E9",
"CX c #CBE4F8",
"ZX c #D8EAF6",
"AX c #DDF3F4",
"SX c #E3ECEC",
"DX c #E5EAEA",
"FX c #FEE5E3",
"GX c #E3F3F3",
"HX c #EAF5F4",
"JX c #E9F8F9",
"KX c #F4FDFD",
"LX c #FCFFFF",
"PX c #E6F0F0",
"IX c #FFDCE0",
"UX c None",
/* pixels */
"UXUXUXUXUXUXUXUXUXUXUXUXUXUXUXUXUXUXUXUXUXUXUXUXUXUXUXUXUXUXUXUXUXUXUXUXUXUXUXUXUXUXUXUXUXUXUXUXUXUXUXUXUXUXUXUXUXUXUXUXUX:XUXUXUXUXUXUXUXUXUXUXUXUXUXUXUXUXUXUXUXUXUXUXUXUXUXUXUXUXUXUXUXUXUXUX",
"UXUXUXUXUXUXUXUXUXUXUXUXUXUXUXUXUXUXUXUXUXUXUXUXUXUXUXUXUXUXUXUXUXUXUXUXUXUXUXUXUXUXUXUXUXUXUXUXUXUXUXUXUXUXUXUXUXUXUXUXUX-XUXUX1XUXUXUXUXUXUXUXUXUXUXUXUXUXUXUXUXUXUXUXUXUXUXUXUXUXUXUXUXUXUXUX",
"UXUXUXUXUXUXUXUXUXUXUXUXUXUXUXUXUXUXUXUXUXUXUXUXUXUXUXUXUXUXUXUXUXUXUXUXUXUXUXUXUXUXUXUXUXUXUXUXUXUXUXUXUXUXUXUXUXUXUXUXUX-X<X2X:XUXUXUXUXUXUXUXUXUXUXUXUXUXUXUXUXUXUXUXUXUXUXUXUXUXUXUXUXUXUXUX",
"UXUXUXUXUXUXUXUXUXUXUXUXUXUXUXUXUXUXUXUXUXUXUXUXUXUXUXUXUXUXUXUXUXUXUXUXUXUXUXUXUXUXUXUXUXUXUXUXUXUXUXUXUXUXUXUXUXUXUXUXUX-XCX1XUXUXUXUXUXUXUXUXUXUXUXUXUXUXUXUXUXUXUXUXUXUXUXUXUXUXUXUXUXUXUXUX",
"UXUXUXUXUXUXUXUXUXUXUXUXUXUXUXUXUXUXUXUXUXUXUXUXUXUXUXUXUXUXUXUXUXUXUXUXUXUXUXUXUXUXUXUXUXUXUXUXUXUXUXUXUXUXUXUXUXUXUXUXUXUXG.UXUXUXUXUXUXUXUXUXUXUXUXUXUXUXUXUXUXUXUXUXUXUXUXUXUXUXUXUXUXUXUXUX",
"UXUXUXUXUXUXUXUXUXUXUXUXUXUXUXUXUXUXUXUXUXUXUXUXUXUXUXUXUXUXUXUXUXUXUXUXUXUXUXUXUXUXUXUXUXUXUXUXUXUXUXUXUXUXUXUXUXUXUXUXG.t.7.t.UXUXUXUXUXUXUXUXUXUXUXUXUXUXUXUXUXUXUXUXUXUXUXUXUXUXUXUXUXUXUXUX",
"UXUXUXUXUXUXUXUXUXUXUXUXUXUXUXUXUXUXUXUXUXUXUXUXUXUXUXUXUXUXUXUXUXUXUXUXUXUXUXUXUXUXUXUXUXUXUXUXUXUXUXUXUXUXUXUXUXUXUXUXUX&X&X7.G.UXUXUXUXUXUXUXUXUXUXUXUXUXUXUXUXUXUXUXUXUXUXUXUXUXUXUXUXUXUXUX",
"UXUXUXUXUXUXUXUXUXUXUXUXUXUXUXUXUXUXUXUXUXUXUXUXUXUXUXUXUXUXUXUXUXUXUXUXUXUXUXUXUXUXUXUXUXUXUXUXUXUXUXUXUXUXUXUXUXUXUXUX-XUXG.UXUXUXUXUXUXUXUXUXUXUXUXUXUXUXUXUXUXUXUXUXUXUXUXUXUXUXUXUXUXUXUXUX",
"UXUXUXUXUXUXUXUXUXUXUXUXUXUXUXUXUXUXUXUXUXUXUXUXUXUXUXUXUXUXUXUXUXUXUXUXUXUXUXUXUXUXUXUXUXUXUXUXUXUXUXUXUXUXUXUXUXUXUXUXUXUX&XUXUXUXUXUXUXUXUXUXUXUXUXUXUXUXUXUXUXUXUXUXUXUXUXUXUXUXUXUXUXUXUXUX",
"UXUXUXUXUXUXUXUXUXUXUXUXUXUXUXUXUXUXUXUXUXUXUXUXUXUXUXUXUXUXUXUXUXUXUXUXUXUXUXUXUXUXUXUXUXUXUXUXUXUXUXUXUXUXUXUXUXUXUXUXUXUX-XUXUXUXUXUXUXUXUXUXUXUXUXUXUXUXUXUXUXUXUXUXUXUXUXUXUXUXUXUXUXUXUXUX",
"UXUXUXUXUXUXUXUXUXUXUXUXUXUXUXUXUXUXUXUXUXUXUXUXUXUXUXUXUXUXUXUXUXUXUXUXUXUXUXUXUXUXUXUXUXUXUXUXUXUXUXUXUXUXUXUXUXUXUXUXUXUXH.UXUXUXUXUXUXUXUXUXUXUXUXUXUXUXUXUXUXUXUXUXUXUXUXUXUXUXUXUXUXUXUXUX",
"UXUXUXUXUXUXUXUXUXUXUXUXUXUXUXUXUXUXUXUXUXUXUXUXUXUXUXUXUXUXUXUXUXUXUXUXUXUXUXUXUXUXUXUXUXUXUXUXUXUXUXUXUXUXUXUXUXUXs u s k C B UXUXUXUXUXUXUXUXUXUXUXUXUXUXUXUXUXUXUXUXUXUXUXUXUXUXUXUXUXUXUXUX",
"UXUXUXUXUXUXUXUXUXUXUXUXUXUXUXUXUXUXUXUXUXUXUXUXUXUXUXUXUXUXUXUXUXUXUXUXUXUXUXUXUXUXUXUXUXUXUXUXUXUXs u a y y y f f f C h c R p UXUXUXUXUXUXUXUXUXUXUXUXUXUXUXUXUXUXUXUXUXUXUXUXUXUXUXUXUXUXUXUX",
"UXUXUXUXUXUXUXUXUXUXUXUXUXUXUXUXUXUXUXUXUXUXUXp V B V B L V V B V V L V B B V V B B t a a d y f f C f f f f d f d d d h w ' aX;.w UXUXUXUXUXUXUXUXUXUXUXUXUXUXUXUXUXUXUXUXUXUXUXUXUXUXUXUXUXUXUX",
"UXUXUXUXUXUXUXUXUXUXUXUXUXUXUXUXUXUXUXUXUXUXT Z F G G G F F G G G G G G G G G G G F f f f d d d d d d d d d d d y i h w ' tXFXuXW z UXUXUXUXUXUXUXUXUXUXUXUXUXUXUXUXUXUXUXUXUXUXUXUXUXUXUXUXUXUX",
"UXUXUXUXUXUXUXUXUXUXUXUXUXUXUXUXUXUXUXUXUXo W.>.v J A F D A F A J D A A A A F D D D d y u i d d d d a d d d d d d j q Y kXhXjXhX].r UXUXUXUXUXUXUXUXUXUXUXUXUXUXUXUXUXUXUXUXUXUXUXUXUXUXUXUXUXUX",
"UXUXUXUXUXUXUXUXUXUXUXUXUXUXUXUXUXUXUXUXUXW XXj.k N S A D A A A A A D A A A A A A D d d d d d d i y d d d d d d j r ~ qXIXhXhXjXIXh.w UXUXUXUXUXUXUXUXUXUXUXUXUXUXUXUXUXUXUXUXUXUXUXUXUXUXUXUXUX",
"UXUXUXUXUXUXUXUXUXUXUXUXUXUXUXUXUXUXUXUX- W.[.oXh.z J D D A A A A A A A A A A A A D a d d d d p a d d d d d d d y x b.dXtXdXdXtXrX}.W 0 UXUXUXUXUXUXUXUXUXUXUXUXUXUXUXUXUXUXUXUXUXUXUXUXUXUXUXUX",
"UXUXUXUXUXUXUXUXUXUXUXUXUXUXUXUXUXUXUXUXh.$XoXoXOX:.c J A A A A A A S S A A A A A D a d d d d d d d d d d d j d z c.tXtXdXdXiXiXtXtX].E M UXUXUXUXUXUXUXUXUXUXUXUXUXUXUXUXUXUXUXUXUXUXUXUXUXUXUX",
"UXUXUXUXUXUXUXUXUXUXUXUXUXUXUXUXUXUXUXT XXOX+X.X+XT.j A S A S A D A D D A A A A F V y d d d d d d i y d d g d z b.hXhXhXhXhXhXhXIXhXhXB.e UXUXUXUXUXUXUXUXUXUXUXUXUXUXUXUXUXUXUXUXUXUXUXUXUXUXUX",
"UXUXUXUXUXUXUXUXUXUXUXUXUXUXUXUXUXUXo ,.Y.Y.E.Y.Y.Q.>.x G S S D A F S A A A S D A V y d d d d d d y d d d h x c.xXgXhXhXhXhXhXhXhXhXhXhXh.q UXUXUXUXUXUXUXUXUXUXUXUXUXUXUXUXUXUXUXUXUXUXUXUXUXUX",
"UXUXUXUXUXUXUXUXUXUXUXUXUXUXUXUXUXUXT oXXXXXoXoXoXoXOXW v J S S K S J S K S S J A V y d d d d d d d d d h z ( dXyXiXpXiXdXpXpXdXdXtXtXrXN.W w UXUXUXUXUXUXUXUXUXUXUXUXUXUXUXUXUXUXUXUXUXUXUXUXUX",
"UXUXUXUXUXUXUXUXUXUXUXUXUXUXUXUXUXo T.$XoXoXoXoXOXOXOX].j n n n b b n n n b N m N V a d d d d d d d d h z a.rXtXiXtXtXpXyXtXpXyXtXrXtXZ.rXB.I M UXUXUXUXUXUXUXUXUXUXUXUXUXUXUXUXUXUXUXUXUXUXUXUX",
"UXUXUXUXUXUXUXUXUXUXUXUXUXUXUXUXUXW .X.X[.[..XE..X].Y.k.;.k E R R ~ R R R R R R R s d y y d d d d d h w ( jXhXhXhXhXhXhXhXhXhXhXhXhXhXFXhXhXB.q UXUXUXUXUXUXUXUXUXUXUXUXUXUXUXUXUXUXUXUXUXUXUXUX",
"UXUXUXUXUXUXUXUXUXUXUXUXUXUXUXUXUXj.~.!.!.!.~.~.~.!.!.XX!.}.kXtXtXtXrXtXtXtXqXtXh.0 k a d d d d i h z ( dXgXgXhXhXgXhXhXxXhXhXhXhXgXhXhXhXdXhX>.q UXUXUXUXUXUXUXUXUXUXUXUXUXUXUXUXUXUXUXUXUXUXUX",
"UXUXUXUXUXUXUXUXUXUXUXUXUXUXUXUXUX!.$XoX X X X X X XoXoX!.qXfXfXpXjXgXgXjXfXhXM.g i a d d d d d h w ' dXhXhXhXhXhXhXhXhXf.d.jXhXhXxXhXhXxXhXhXyXW c UXUXUXUXUXUXUXUXUXUXUXUXUXUXUXUXUXUXUXUXUXUX",
"UXUXUXUXUXUXUXUXUXUXUXUXUXUXUXUXUXT.$X$XH.7.7.t.K.7..X$X!.qXfXjXjXfXiXjXyXfXqXk e g i d d d d j r Z b.tXrXtXtXtXtXS.S._ _ iXrXrXtXeXrXeXS.S.S.S.B.I M UXUXUXUXUXUXUXUXUXUXUXUXUXUXUXUXUXUXUXUXUX",
"UXUXUXUXUXUXUXUXUXUXUXUXUXUXUXUXUX/.+XR.u.2.2.e.3.r.j.Y.j.c.rXrXrXrXS.n.n.x.R r g d d d d i g r V Z.fXyXfXdXfXhXxXN.) a.b.v.n.xXgXdXgXdXjXjXjXdXaXh.q UXUXUXUXUXUXUXUXUXUXUXUXUXUXUXUXUXUXUXUXUX",
"UXUXUXUXUXUXUXUXUXUXUXUXUXUXUXUXUXT.XXT.L.6 + @ 2 r.T.oXY.eXaXpXfXpXfXjXaXQ q h d d d d y g y c M.hXdXhXhXhXhXN.IXeXm l.K s.gXuXxXhXxXxXhXhXhXhXdXfX>.w UXUXUXUXUXUXUXUXUXUXUXUXUXUXUXUXUXUXUXUX",
"UXUXUXUXUXUXUXUXUXUXUXUXUXUXUXUXUX!.OXoXL.2.7 * 3 G..XoXT.tXfXpXpXpXfXdX( 0 h d d d d d a y L n.hXfXhXhXfXA.FX/ ` v.s.f.s.f.f.v.hXxXiX_ eXxXhXhXgXgX|.W c UXUXUXUXUXUXUXUXUXUXUXUXUXUXUXUXUXUXUX",
"UXUXUXUXUXUXUXUXUXUXUXUXUXUXUXUXUX~.$X+XH.2.. . & r.!.oXT.tXgXfXfXgXdX( q g d d d d d d k x g.Z.S.yXrXiXA.v m.f.v H _ c./ / b.gXpXv.^ a.iXtXrXqXeXZ.N.h.g UXUXUXUXUXUXUXUXUXUXUXUXUXUXUXUXUXUXUX",
"UXUXUXUXUXUXUXUXUXUXUXUXUXUXUXUXU /..XR.5.r.r.r.r.r.U.W.j.M.qXrXm.}.p.q j d d d d d d h z d.dXpXhXb.v.hX|.) _ }._ m.a.iXN.fXgXf.f.) s.FXA.jXfXjXhXgXgXfXh.w UXUXUXUXUXUXUXUXUXUXUXUXUXUXUXUXUXUX",
"UXUXUXUXUXUXUXUXUXUXUXUXUXUXUXl I R.^.].7.5.e.e.r.y.W.oXT.tXfXtXfXp.0 h d d d d d d h z g.dXhXv.uXv.v.FXA.f.f.H s.f.FXhXxXFXd._ v.yXg.f.` FXxXjXhXhXjXjXaX:.w UXUXUXUXUXUXUXUXUXUXUXUXUXUXUXUXUX",
"UXUXUXUXUXUXUXUXUXUXUXUXUXUXUXB I !.OX Xt.-.+ + 5 P.XXoXT.rXaXfXB.e j d d d d d d k z a.dXjXhX|.^ / eXFXyXm f.v._ |.xXxXl.l.` S.uXuXS.^ FXN.N.xXhXhXxXhXhXuXW c UXUXUXUXUXUXUXUXUXUXUXUXUXUXUXUX",
"UXUXUXUXUXUXUXUXUXUXUXUXUXUXj p I XXOX Xr.2.* * =.P.oXOXT.tXhXM.0 d d d d d d i k z ' m.eXeXeXdXa.v _ d.n./ iXjXjXgXc.S.Z.b %.) ) / l.a.%.K l.iXrXtXrXrXqXeXh.e UXUXUXUXUXUXUXUXUXUXUXUXUXUXUXUX",
"UXUXUXUXUXUXUXUXUXUXUXUXUXg j e W .X{.].e.-.$ + =.P.T.T.h.rXM.I r h y d d y d h z ' wXtXtXtXpXfXeXH N.v.s.v.jXuX_ g.d.f.xXl._ fXxXyXH v./ yXjXiXdXyXtXtXyXtXaX,.w UXUXUXUXUXUXUXUXUXUXUXUXUXUXUX",
"UXUXUXUXUXUXUXUXUXUXUXUXy f g e W /.W.].r.6 3 =.6.u.E.!.{.n.k e g d d d d y k w ' rXjXfXfXgXgXfXhXa._ FXhXhXxXf.v.) ) ) dXFXg.l.f.s.^ hXxXxXhXhXhXhXhXhXhXhXhXyX;.x UXUXUXUXUXUXUXUXUXUXUXUXUXUX",
"UXUXUXUXUXUXUXUXUXUXUXa f d g 0 W oX$X+XJ.H.-X%XK.L..X^.k.Q e d d d d y d j e ~ tXfXpXfXgXfXfXfXhXyXeXxXeXs.yXd.FXyX) %.) xXf.v.S.d.S.xXhXhXhXhXhXhXhXhXhXhXhXhX@XI M UXUXUXUXUXUXUXUXUXUXUXUXUX",
"UXUXUXUXUXUXUXUXUXUXa f d d d p I Q W ;.w.i.w.Q Q T E E h e j u d d d i g i L d.n.n.m.n.Z.rXtXeXeXiXl.b.pX) l.g.yXjXa.v.s.^ ) S.dXdXiXtXtXtXtXtXtXrXZ.rXeXS.Z.m.m.p.e UXUXUXUXUXUXUXUXUXUXUXUXUX",
"UXUXUXUXUXUXUXUXUXa C d d d d d d 0 q q q q 0 q w r r r p d u d d d d g i c M.iXrXtXyXtXtXyXyXdXdXhXv.) FXf.^ s.a.FXv.v.xXpXiXgXfXiXfXpXfXpXfXdXfXpXpXpXpXdXdXdXtXaXp.w UXUXUXUXUXUXUXUXUXUXUXUX",
"UXUXUXUXUXUXUXUXs C d d d d y f g j g g h h h g j d d j d i d d d d d d x c.hXfXfXfXhXhXfXfXhXhXhXhXhX` s.%.` f._ ` s.fXhXhXhXhXhXxXhXhXxXhXhXhXhXhXxXhXhXhXhXhXIXhXaX:.w UXUXUXUXUXUXUXUXUXUXUX",
"UXUXUXUXUXUXUXUXC d d d d i d d d d d d y y y d d d d d d d d d d d h x c.dXyXyXyXdXdXpXpXpXpXjXjXpXxXv.v hXdX/ iXN.tXhXgXhXjXjXdXjXjXjXjXhXjXgXjXjXjXdXjXjXjXdXjXdXjX|.I M UXUXUXUXUXUXUXUXUXUX",
"UXUXUXUXUXUXUXf d y d d d d y d d d d d d y d d d d d d d d d u d d x p.n.b.b.b.n.n.n.A.Z.Z.A.S.rXtXtXiX/ d.jXn.A.pXiXtXtXiXS.Z.eXeXS.rXtXtXtXrXyXrXeXeXS.eXqXZ.eXm.M.M.h.w UXUXUXUXUXUXUXUXUXUX",
"UXUXUXUXUXUXg y u d d d d y d d d f d d d d d d d d d d d d i d k x g.aXfXfXgXfXfXfXfXfXfXfXfXgXhXhXgXFXN.f.hXhXhXgXhXgXgXjXhXhXgXhXhXhXgXgXgXgXgXgXgXhXhXjXhXhXgXjXjXhXaX>.w UXUXUXUXUXUXUXUXUX",
"UXUXUXUXUXd y y d d d d y y d d d d d y u d d d j d p d d d u I z a.hXfXfXfXfXfXfXfXdXfXhXgXhXhXhXxXhXhXhXxXhXhXhXhXxXhXhXxXhXxXxXhXhXxXhXxXhXxXhXxXhXhXhXhXhXIXhXhXhXhXhXaXW x UXUXUXUXUXUXUXUX",
"UXUXUXUXa f d d d d d p y d d d d d d y d d d d p p j d y y k z ~ M.S.m.A.A.Z.A.eXrXrXtXtXrXiXiXiXiXiXiXiXiXpXiXiXtXtXtXrXrXdXdXsXdXdXdXdXdXdXdXdXdXdXdXdXjXdXdXdXdXdXjXwXeXh.U UXUXUXUXUXUXUXUX",
"UXUXUXa f f d d d d d d f d f d d d d d d d f d f j f j g h w ) 4XA.Z.m.m.m.S.eXS.rXS.rXeXeXpXyXpXpXpXpXpXpXpXpXpXtXyXtXuXw.s Y ~ ^ ^ ~ ~ ^ ^ ^ ^ ~ ^ ^ ^ ^ ~ ^ ^ ^ ~ ~ ^ M H Y UXUXUXUXUXUXUXUX",
"UXUXu C d y g d j g g g g g g g g f g f d p p p p 0 0 0 9 q Y qXgXfXfXfXfXfXfXgXgXfXjXfXgXhXgXhXgXgXgXgXgXgXhXgXgXgXgXgXgXL.7.s v A n b b n n n N b b N n n n n n b b b A F N N V UXUXUXUXUXUXUX",
"UXk C f a d r r u 0 0 0 0 9 9 9 9 9 9 9 t t U U T W Q W ;.;.M.aXfXfXfXdXdXjXfXfXfXfXgXfXgXhXgXgXgXgXgXgXpXgXhXgXgXgXgXhXyXP.<XJ.-.x H J S S D S S K D S J S S S D D K J D D D D F J V UXUXUXUXUX",
"o q t t t t T E T Q ;.;.;.;.,.>.h.j.h.j.j.T.T.T.!.oX!.U.E.+XqXeXyXyXyXpXyXpXpXpXpXdXdXpXpXpXpXhXgXgXhXgXhXgXgXgXjXfXjXjXaXI.,X<X,X;.w F J S D A K J J J H J J H H J J H H J J H J J J H UXUXUXUX",
";.,.j.j.j.k.E.T.Y.!.XXXX!.!.Q.!.W.E.E.E.[.R.T.E.!.T./.j.R..X}.b.n.Z.eXeXeXS.S.S.eXeXS.S.Z.Z.Z.S.tXeXrXrXrXrXrXrXS.eXS.Z.].q.,X<X,X<Xe.u v N m m v v v v v v v v v v v v v v v v v v v v v UXUXUX",
"T.Q.Q.Y.E.E.E.!.!.!.!.!.XX~.oX~.XXXXoXoX+XoXoXoXoXoX$X!.E.[.qXyXfXpXfXfXfXfXgXgXfXfXgXgXgXgXfXpXgXhXfXgXgXgXhXhXgXgXfXdX+XI.,X,X,X,X,XK.! E W Q Q Q q.q.q.q.q.q.q.q.w.;.$.w.w.;.p.q.z.u._.w.UXUX",
"/.!.oX^.oXoXoXoX^.oXOXOXoX.X!.oXXXOXoX+XOXoXOXOXoXoX+X!.!.[.qXyXfXfXiXwXsXsXsXsXdXsXwXsXsXiXsXsXdXtXtXiXtXdXiXiXdXfXdXaXoXR.I.P.I.P.(.(.r.7.:X:X4X5X5X5X5X5X9XkX9X#X#X#X#X#X5XwX=XUX;X-XmX:XUXUX",
"/.oX$XoXoXOX+XoX(.i.u.i.y.P.;X=X'.[..X.X[.[.T.!.T.T.Y.j.R..XqX}.S.yXx.=XMX7X7X7X7XlX:X6XcX9XVXVXNXSXmXvXBXSXcX=X9X=X=X3XP.P.(.W.^.~.~.W.(.J.:X'.Q.Q.Q.T.Q.Q.Q.Q.Q./.W.^.^.^.@XeXUXUXUXG.-XUXUXUX",
"/.T.T.T.T.T.E.`.r.: < ; : L.6X6 6.).~.!..X!..XXXoX.XoXE.R.[.qXeXrXyXx.;XMXPXPXSXDX9X:X3 6 6 6 6 3.5.F.F.i.4.t.cX9X6X6X:X%X0.L.].{.{.{.{.B.r.>XB.j.j.k.k.Y.R.].R.Y.[.B.E.Y.B.b.|.UXUXUXr.7XUXUXUX",
"j.T.!.!.oXoX[.y.#   .   3 7X=X+ & t. XoXoXoXoXoXoXoXoXoXR.!.qXtXjXjXM.;X9XNXDXSXDXzX0X  # + . @   o.@.+.+.P 7 ( u.SXPXHXnXK.7XdXfXfXjXfXpXH.PXz.5  . . . . .[ [ X.m.rXOX^.fXpXuXUXUXUXH.MXUXUXUX",
"j.oX$XoXOX~.3Xt.3.e.r.r.P.1XnX;X=X0X;X[.oXoXOXOX+X.X.XE.T.].qXyXdXfXz.mX0XDXNXSXSXMX7X. % % % X 8 *.&.*.@.@.l C.VXNXSXNX7XH.:XuXfXfXpXfXtXL.SXx.] : : : : : ; , 3.{.rX@XOXjXpX|.UXUXUXH.MXUXUXUX",
"/.!..X.XXX).G.e.e.5.3.-.6.1Xy.3 6 6 r.T.!.[.T.E.Y.E.T.j./..X}.M.A.A.i.6X6XDXSXlX3X7X7X  % $ $ . - +.*.*.%.*.o.Q z.9XHXPXNX*X6Xm.eXeXA.eXb.L.PXz.] ; ; ; ; ; > , 3.|.M.|.|.Z.M.m.UXUXUXH.VXUXUXUX",
"R.E.Y.!.Q.(.7.    . *   =.vXy.+ $ @ r. XoX!.oXoXoXoXoXoXR.!.qXqXfXaXu.mX6XNXBXNX9X7X7X  % $ $ % o.*.#.$.u.&.&.Q q.7X9XNXDXL.:XtXfXyXyXfXqXL.PXu.] ; ; ; : ; > , X.}.tX@X@XpXyXeXUXUXUXH.MXUXUXUX",
"UX^.oXoX^.'.7.. 2 3 * $ =.vXy.+ * & t. XoXoXoXoXoXoXoXoXT.T.tXeXfXfXx.7X9XHXSXBXNX7X=X  % $ @ 7 @.+.#.D.V.P 5.mXVXPXSXNXDXL.vXtXfXfXfXfXtXL.PXz.{ ; ; ; ; ; > , 3.{.tXaX@XfXfX|.UXUXUXH.MXUXUXUX",
"UXoXoXoXoX`.5.+ 2 = 2 & =.vXt.+ 3 & r.+XoX+X.X+X.X.X+X!./.[.qXqXyXyXu.:X9XSXBXBXzX6Xy.  * % @ $.F.b.&.Q &.O.6.mX7XDXSXNX9XH.0XtXfXyXtXyXS.L.DXz.{ ; ; ; 1 ; ; 4 3.}.eXuX@XtXeXeXUXUXUXK.MXUXUXUX",
"UX!.Y.T.Q.(.7.+ & 2 3 # =.1Xy.@ =.= r.]./.Y.!.E.E.E.E.k./.!.}.M.S.uXu.:X7XSXBXNX9X9Xy.  # # = Q o.#.F.p.&.o.7.BX9XnX7XSXNXL.0XuXrXeXeXZ.b.*XPXu.{ % $ % $ & = 4 4.}.m.{.{.S.n.|.UXUXUXH.NXUXUXUX",
"UX~.E.XX^.`.H.= * 3 2 & 3 ;XP.# 3 + e.'.oXoXoX$XOXOXoXoXE.!.}.uXfXfX(.lXNXDXDXHX9XBXu.X ! o.&.#.O.X.$.w.*.O.r.BXmX9XSXSXDX-X0XyXfXfXfXfXtX*XHXz.} [ } } } [ [ { 4.B.yXaX@XfXfXeXUXUXUXH.NXUXUXUX",
"UXoXOXOX$X XH.* 2 * * & 3 ;XH.# 2 @ 7.#XoXXX.X.XoX.X+X.XR..XeXeXpXpXu.7XNXSXDXPX9XDXL.X $.o.o.X.&.O.8 6 #.7 t.VX9XBXGXHXNXH.0XyXdXpXyXuXeXH.VXz.[ } } } 2.1.1.1.4.N.m.|.{.rXqXN.UXUXUXH.6XUXUXUX",
"UXW.T.[.E.U.G.2 * * 2 * 2 ;Xy.@ * @ 6.'.E.Y.T.E.E.!.E.k.R.!.}.m.eXn.u.BXMXHXDXPXnXMXy.X ..X.X.$.O.! $ #.w.+ y.DX6X7X0X7X0XH.7XuXyXrXS.uXV.t.SXu.{ * & & & ; = 4 4.}.qX|.|.yXeXN.UXUXUX7.VXUXUXUX",
"UX~..X^.oX].t.. @ # # @ & -Xy.. 2 = 5.`.^.oXoXoXoXoXoXoXT.!.}.uXfXyXu.mX7XNXNXVX7XMX*X. #.*.*.O.O P O 7 7   e.DX6XNXDXcXcX*X0XyXaXfXpXgXz.1XLX*X{ < < < < < * ] 4.{.tX@X@XfXfXyXUXUXUX-XLXBXUXUX",
"UXoXoXoX$X].G.5.5.6.5.5.e.H.=Xr.L.L.=X XoXOXOXOXOXOXOXOXR.!.qXeXgXyXP.GXmXlXvXmX6XAX:XlXBXDXzXMX3X3X7X3X&.z.:XMXMX:X6X7X7X%X7XyXfXfXfXfX_.:XLX*X{ < < < < < * ] 4.M.rXOX+XpXyXaXUXUXUX-XLXBXUXUX",
"R.oXT.!.!.E.U.U.R.).).].].U.).U.].].T.]..X[.[.E.E.E.T.Y.j.E.}.m.S.|.x.x.m._.4XM.z.M.x.z.z._._.n.M.5X8X8X0X8X3Xz.4X4X8X8X'.P.z.eXS.eXS.A.u.7XLX=X1.5 < 2 < < * ] 4.}.n.[.+XeXm.uXUXUXUX-XLXBXUXUX",
"UXE.Y.E.E.!.~.~.~.~.E.~.W.XX~.W.XXXXoXXXXXXX~.XX!.XX~.E.R.!.}.}.yXyXpXyXyXyXyXyXyXaXyXyXyXyXyXyXyXuXuXuXuXuXuXyXuXyXeXuX|.^.@XtXyXyXtXyXx.1XKX*X{ 5 < < < < * ] 4.|.tXOX+XfXfXyXUXUXUX-XLXNXUXUX",
"UXQ.oXoXoXoXoXoXoXoXOXoXoXoXoXoXoXoXoXoXoXoXOXoXoXoXoXOXE.!.}.tXfXfXfXfXpXfXfXfXgXgXgXgXfXfXgXgXgXgXgXhXhXjXfXhXgXhXgXhXaXoXaXgXfXfXfXfX_.:XLX*X1.5 < < 2 2 * ] 4.|.rXOX@XpXdXaXUXUXUX-XLXBXUXUX",
"UXE.W.!..X.X+X.XXX+X.X.X.X!..X.X[.XX.X.X.X.X.X.X.X+XoX.XR.!.}.qXyXpXpXpXpXyXpXpXtXrXuXeXtXrXrXyXtXtXrXrXrXrXtXtXtXrXtXeX|.E.|.S.eXeXeXA.x.7XLXy.{ 4 4 4 4 , : ] 4.n.n.E.Q.rXn.uXUXUXUX-XLXMXUXUX",
"UX/.k.W.W.W.!.~.W.W.W.~.XXXXE.!.W.W.W.W.W.W.W.~.~.~.~.Q.j.~.}.b.N.S.S.S.uXS.S.S.A.S.yXS.uXuXyXS.yXyXuXuXeXuXuXeXuXuXS.yX@X^.@XdXtXuXD._.u.=XHX*X8.9.8.9.9.7.9.9.t._.wX8XkXsX8XsX9XUX:X:XHXMXUXUX",
"UX).(.`.`.`.`.`.`.`.(.U.h.U.).).`.`.`.).).'.`.`.).).`.'.).(.4X4X8X8X8X8X8X8X8X8X8X8X8X8X8X8X3X3X3X3X3X0XcX8X9XcX9X9X8X9X0XI.P.L.y.t.=XGXVX:XSXPXPXSXSXBXMXMXMXVXMXmXVXVXBXBXZXBXAXVXmXmX7XvXJXUX",
"UX1X1X1X1X1X1X1X1X1X7.X X 4 2X1X1X1X1X1X2X1X1XmX1X1X1X1X1X<XlXZXAXGXGXPXAXPXAXGXPXAXPXAXAX7X2.6.3.3.2.=XJXGXHXJXHXHXJXHX2X7.K.K.7.H.GXJX:X5.%X%X-XJ.L.J.J.J.J.J.%X,X%X%X%X%X%X%XJ.J.,X%X<X<X2XUX",
"G.ZXCX1X1XZXCXZXZXCX1X2X1X1XCXbXbXbXbXbXCXbX&X:X1XCXbX:XbX1XMXGXKXGXHXHXHXHXHXHXHXHXHXHXJXPX5.6.5.7.6.mXKXJXHXHXHXJXHXvX,XK.J.r.t.BXKX7XJ.-XBXZXZXZXZXZXAXZXZXAXJXGXGXGXHXGXGXHXJXHXHXKXKXJXJXUX",
"UX-Xt...t.;X;X;XH.-XvX*X:X&Xt.bXbXCXbXCXbXZX>X..CXCX&X1XCX1XmX>XzXKXLXLXKXLXLXKXLXKXLXKXKXLXJXGXKXJXJXGXzXBXKXLXLXLXAX2X,X&Xt.r.BXKXZX<X,X1XLXLXLXLXLXLXKXLXLXLXlXJXKXLXLXKXKXLXKXJX>XC.BXJX:X4.",
"UXUXUXUXUXUXUXUXUXUXUXUXUXUXUXUXUXUXUXUXUXUX3.| L.t...*X;XH.:X4...VX6XmXmX6XlXmXmXlXlX6XlX6XvXmXmX6XmX*X| ..UXUXUXUXUXUXG.t.3.*X6X:Xr.3.7.H.mX7X6X7X6X*Xt.UX>XUX..4.UXUXUXUXUXlXUXUX[ UXUXUXUXUX"
};
