/* XPM */
static char *eaf9cba03e324bceb7e2ebfc8c79ce66WadRwwRYJvweyWa7[] = {
/* columns rows colors chars-per-pixel */
"46 96 256 2 ",
"   c None",
".  c #000000",
"X  c #0A0505",
"o  c #1A0000",
"O  c #140602",
"+  c #101416",
"@  c #290201",
"#  c #330C02",
"$  c #370500",
"%  c #3B1404",
"&  c #381604",
"*  c #2E1917",
"=  c #030F2A",
"-  c #27292A",
";  c #373737",
":  c #322C2C",
">  c #252D22",
",  c #470500",
"<  c #441904",
"1  c #4C1E0C",
"2  c #700B00",
"3  c #4C2305",
"4  c #552605",
"5  c #542A0C",
"6  c #592A07",
"7  c #512D15",
"8  c #662C00",
"9  c #663509",
"0  c #693607",
"q  c #773C06",
"w  c #6E3A12",
"e  c #473A38",
"r  c #4D3525",
"t  c #5B451A",
"y  c #76400D",
"u  c #7B4306",
"i  c #7D4A1D",
"p  c #7C4612",
"a  c #67451D",
"s  c #56442F",
"d  c #7A4925",
"f  c #724C34",
"g  c #4A692D",
"h  c #343C45",
"j  c #3A4145",
"k  c #356F54",
"l  c #106054",
"z  c #474848",
"x  c #534C4A",
"c  c #555555",
"v  c #5B5B5B",
"b  c #575758",
"n  c #4C5053",
"m  c #765745",
"M  c #655B57",
"N  c #6E574E",
"B  c #697253",
"V  c #585B65",
"C  c #605F60",
"Z  c #5E6264",
"A  c #6B6B6C",
"S  c #656567",
"D  c #766B68",
"F  c #686D72",
"G  c #7B7A7B",
"H  c #747677",
"J  c #727474",
"K  c #5C7252",
"L  c #4A493B",
"P  c #853B00",
"I  c #A33800",
"U  c #824401",
"Y  c #884907",
"T  c #914E02",
"R  c #985605",
"E  c #864C14",
"W  c #894D14",
"Q  c #8D5216",
"!  c #965817",
"~  c #A75800",
"^  c #A6540F",
"/  c #AC6200",
"(  c #AE6C00",
")  c #A86407",
"_  c #B26A00",
"`  c #B27300",
"'  c #BA7802",
"]  c #A7651B",
"[  c #B4761A",
"{  c #B07015",
"}  c #995E24",
"|  c #975C21",
" . c #875834",
".. c #8D572A",
"X. c #9C6128",
"o. c #996838",
"O. c #99753B",
"+. c #A76727",
"@. c #B26D2A",
"#. c #AD7029",
"$. c #B2742C",
"%. c #B6792A",
"&. c #A96A37",
"*. c #AA7438",
"=. c #B37532",
"-. c #B57933",
";. c #B87A35",
":. c #B36C37",
">. c #9F6200",
",. c #C27E34",
"<. c #815F4A",
"1. c #917153",
"2. c #B87C47",
"3. c #AE7A4E",
"4. c #967868",
"5. c #A87F65",
"6. c #6A906C",
"7. c #629337",
"8. c #B78901",
"9. c #B8920C",
"0. c #BA8428",
"q. c #BB823B",
"w. c #BC8A36",
"e. c #BC942F",
"r. c #BFA025",
"t. c #C59307",
"y. c #C2A603",
"u. c #CAB700",
"i. c #CEB314",
"p. c #C68527",
"a. c #C38334",
"s. c #C78A37",
"d. c #CB9335",
"f. c #CC972F",
"g. c #C4A638",
"h. c #CFB12C",
"j. c #DAD600",
"k. c #D5C90F",
"l. c #D8CD2D",
"z. c #E4E835",
"x. c #E0DF16",
"c. c #BC8447",
"v. c #B98E54",
"b. c #91B051",
"n. c #8B8279",
"m. c #BB8967",
"M. c #B89967",
"N. c #B1906D",
"B. c #AAAD61",
"V. c #C28B4C",
"C. c #C48946",
"Z. c #C8964B",
"A. c #D19947",
"S. c #C38B55",
"D. c #CC9B5C",
"F. c #C99557",
"G. c #D19D56",
"H. c #CDB647",
"J. c #D5A65A",
"K. c #D7B758",
"L. c #CEAA4D",
"P. c #CA9865",
"I. c #D49C63",
"U. c #C49779",
"Y. c #C38A67",
"T. c #D2A464",
"R. c #D7A86A",
"E. c #D9B667",
"W. c #D7A976",
"Q. c #D9B778",
"!. c #CBA66D",
"~. c #E9B879",
"^. c #E4AD76",
"/. c #AFDF6C",
"(. c #D6C847",
"). c #DBD346",
"_. c #DCC758",
"`. c #DCD757",
"'. c #E2D857",
"]. c #E4E747",
"[. c #E5E859",
"{. c #EAF058",
"}. c #DCC86A",
"|. c #D5D56C",
" X c #E5D866",
".X c #EBC777",
"XX c #ECCF74",
"oX c #D4E970",
"OX c #E9E867",
"+X c #E7E975",
"@X c #EDF072",
"#X c #DDE158",
"$X c #7A7F81",
"%X c #157B88",
"&X c #35898A",
"*X c #11818A",
"=X c #748885",
"-X c #568681",
";X c #868788",
":X c #9B9B9C",
">X c #959497",
",X c #908E90",
"<X c #AE988A",
"1X c #B7A594",
"2X c #A3A3A5",
"3X c #A9A9A9",
"4X c #B4B4B4",
"5X c #BBBCBD",
"6X c #B5B8B9",
"7X c #B0B0B2",
"8X c #A59EA2",
"9X c #C49985",
"0X c #C08F80",
"qX c #CAA88B",
"wX c #D5AB86",
"eX c #DAB786",
"rX c #CCAB98",
"tX c #DAB698",
"yX c #E1BA92",
"uX c #D6B9AA",
"iX c #D0B9B0",
"pX c #E4BCA0",
"aX c #BDC3BB",
"sX c #D3CB90",
"dX c #E4C29C",
"fX c #E3D68D",
"gX c #E7E587",
"hX c #EDF093",
"jX c #DBC5B6",
"kX c #DBC5AB",
"lX c #E4C7A7",
"zX c #E8D4BA",
"xX c #E7CFB2",
"cX c #F3FAAA",
"vX c #F3F8B6",
"bX c #EDEBAD",
"nX c #BBBDC1",
"mX c #B2C9CC",
"MX c #DCC9C3",
"NX c #D7D8D8",
"BX c #C8CBCD",
"VX c #E8D6C8",
"CX c #E9DBD6",
"ZX c #EBD8CB",
"AX c #F6FAC8",
"SX c #F5E6D8",
"DX c #F9FCD6",
"FX c #EEE6CD",
"GX c #E7E6E6",
"HX c #F5EDE7",
"JX c #FBFBE8",
"KX c #FDFCF3",
"LX c #FEFEFE",
"PX c #F7F6F6",
"IX c #EEEFF1",
"UX c #E5DEE1",
/* pixels */
"                                          -.$.-.-.                                          ",
"                                          -.-.-.-.                                          ",
"                                          -.$.-.$.                                          ",
"                                            $.%.$.-.-.        -.-.                          ",
"                                            $.,.s.q.:.        -.-.$.                        ",
"                                          c.C.C.d.p.[ [     =.-.;.-.                        ",
"                          #.#.        $.q.S.D.G.d.' / / [ -.-.%.$.$.                        ",
"                        $.$.$.        $.q.D.T.R.Z.[ _ _ $.;.;.,.$.$.                        ",
"                        q.s.q.q.    @.#.A.G.R.R.qXqX9XU.S.,.s.C.c.q.                        ",
"                    ;.;.a.d.s.0.;.=.#.#.p.p.f.R.lXVXVXiXY.' p.G.Z.s.( ~                     ",
"                  $.=.a.A.G.Z.Z.q.$.#.#.,.t.f.eXZXPXPXVXU.` p.D.T.Z.[ / /                   ",
"                  ( $.I.eXtXeXW.C.[ [ q.V.T.wXlXSXKXJXVXU.( p.J.W.~.yXU.N.                  ",
"                  ~ ^ W.xXZXZXtXS.' ' s.R.uXVXFXDXAXvXfXM.[ ,.G.Q.lXZXVXuXU._               ",
"                  I / wXCXKXHXuXm._ ' A.eXZXIXKXAXcXOX_.w.=.%.d.^.zXHXPXZXqX_ ~             ",
"                  ' 8.tXHXLXLXMXS._ t.d.yXSXLXLXAXgXj.y.8.=.,.d.eXZXLXLXHXpX' ~             ",
"-.;.            8.y.u.fXJXLXLXMXm./ ' f.tXSXLXLXSX|.u.8.` _ ' f.eXFXLXLXHXuX' ~ _           ",
"-.-.=.        =.9.u.j.hXJXLXPXMXm./ ' t.eXSXPXLXCXW.8.) / ( ' d.eXZXLXLXUXqX_ ~ { -.;.      ",
"s.a.=.      ^ =.L.`.@XcXDXKXHXuXS.[ C.W.lXSXKXHXMXY.~ +.m.U.P.A.W.zXJXPXZXwX,.' p.;.=.      ",
"s.,.=.@.  ~ ~ [ W.bXAXDXDXAXbXsXF.P.tXVXFXDXDXbXeX%.~ <XiXMXuXY.D.sXbXAXzXQ.C.s.s.,.@.      ",
",.;.=.:.:.~ ~ _ qXCXJXKXAXhX+XK.J.wXZXPXKXDXcX+Xi._ :.iXGXHXVXU.p.H.+XhXgX}.G.S.,.+.]       ",
"=.=.-.0.s.p.' [ qXCXLXKXvX{.j.k.J.tXCXLXKXAX+Xj.u.e.<XVXKXLXCXN.` y.l.].'.E.R.I.A.a.%.      ",
":.=.e.h.h.i.t.p.W.xXDXAXcX{.j.u.L.W.xXFXZXfXl.h.Q.kXVXFXDXAXkXN.` t.l.)._.R.W.K.K.i.y.f.    ",
"@.=.r.l.x.l.i.d.K.fXhXhX@X{.].l.A.J.W.eXeXL.9.M.jXGXJXDXvXgX_.v.$.s.L.E.E.R.R.K.).x.k.r.=.:.",
"+.=.L.}.OX+XfX~..X'.].].].{. X.XQ.^.W.W.I.a.( Y.jXPXLXAXhXx.k.0.:.c.P.R.R.R.E.|.+X@X|.L.,.@.",
"/ $.!.fXvXvXFXZXxXfX).x.l.).XXfXxXVXzXxXpXqX2.Y.uXCXHXvX@Xj.j.r.;.2.P.R.E.K.XXgXcXvXbXW.w._ ",
"/ =.qXFXJXKXKXPXSXxX~.h.u.h.E.zXHXHXPXPXSXjXW.Y.W.pXlXgXOX].l.e.2.2.I.R._.).OXbXJXKXCXtX%._ ",
"/ $.rXUXLXLXLXLXHXxXW.A.A.I.pXSXLXLXLXLXJXZXeXJ.A.G.J.'.[.[.(.e.:.2.P.R.K.z.OXvXJXLXGXrX$./ ",
"/ %.rXGXLXLXLXJXvXdXP.F.wXlXZXHXLXLXLXJXAXbXfX(.g.d.f.L._.|.H.w.=.2.C.D.K.). XcXDXDXZXqX;./ ",
"~ %.rXHXLXLXDXvXfXL.C.U.uXSXPXLXLXLXJXvXhX@X+X'.H.s.;.Z.K.E.G.w.#.@.=.c.Z.J.}.gXhXcXfXR.;.) ",
"/ -.rXUXLXKXvXOXj.y.` 9XMXLXLXLXLXJXvX+Xz.z.{.[.H.s.:.S.T.R.F.C.$.#.$.;.V.D.R.}.'.[.).g.=.:.",
"_ ,.wXVXDXAXgXl.u.8.( <XUXLXLXLXJXAXhX'.j.l.).(.H.w.c.P.R.W.I.S.c.c.c.C.V.S.F.K.).).l.g.;.:.",
"{ ,.E.hXcXhX}.g.8.( ( qXCXLXLXJXvXgXfX}.(.H.g.g.Z.Z.T.R.^.~.^.P.D.F.I.D.S.c.c.A.K._.K.A.a.,.",
"#.*.g.#XOX`.H.-.] ~ _ 9XCXLXKXvX@Xz._.E.I.S.;.;.C.J.^.~.~.~.~.Q.T.R.R.R.F.q.-.c.T.R.D.V.=.$.",
"&.*.r.k.k.k.g.c.:._ [ U.iXUXSXcX{.j.l.J.Y.2.2.2.D.J.~..XXXXXXX}.}.E.T.T.F.v.c.c.S.v.v.c.$.$.",
"    9.9.9.r.G.D.F.,.%.v.9XrXsXgX{.].(.Z.2.2.S.D.R.^.~.XXOX[.OXOX XK.L.S.S.D.D.D.c.3.*.*.    ",
"      u i c.D.T.T.S.;.:.&.2.v.`.[.[.H.w.:.S.J.R.^.yX~.XXOX{.{.{.[.(.w.-.V.T.T.D.2.Q P       ",
"      2 2 :.F.T.I.v.=.) R ~ ' i.).).g.[ :.F.^.~.~..XXXXX|.oX|.#X).g.0.+.2.D.T.S.&.P 2       ",
"      8 Y @.C.V.V.-.X.R ~ ) ` 8.9.y.9.' ,.D.^.~.XXOXOXXXsX!.B.H.g.r.{ X.*.V.V.C.$.T u       ",
"      Y Q +.%.q.$.X.Q | +.=.%.[ ` ' ` #.C.I.~..X+X{.OX|.3X>XN.m.0.>.R Q X.-.q.$.+.Q Y       ",
"        W ! +.] +.! W | #.a.S.U.9XN.5.3.3.I.~..X X|.|.sXnX6X8XN.#.>.Q Y ! ] +.] ! W E       ",
"          ! ] ] ] R R +.q.Z.wXlXVXMX3Xn.n.D..X.X}.b.B.aXNXGXjXwXv.[ X.Y T ~ R R !           ",
"            Q Q ^ T Y +.0.D.yXSXPXIXmX-Xg M.~.~.M.K -XmXIXKXFXdXL.0.X.Y T R R T             ",
"              W Y U Y +.9.Z.lXHXLXPXmX&Xk M.~.~.N.l %XmXPXLXSXdXA.{ | u Y .. . .            ",
"                      { _ s.pXDXLXLXmX*Xk M.~.~.N.l *XmXPXLXHXdXw.>.u < 7 m N N             ",
"                        / ' yXSXLXIXmX&Xk M..X~.B.k &XmXLXLXSXwX` U < . ; v S D             ",
"                        P ~ U.MXIXGXmX6.K M.~.Q.v.K 6.6XGXIXMXU.R q s j n F F F             ",
"                      & 8 q 5.1XiX5X<X1.O.V.J.J.v.O.1.<XiXiX1X1.u f J G $XH F F A           ",
"                    . O o & s <.4.N.3.*.%.d.J.J.Z.$.O.3.N.4.<.5 r A ,X:X>X=XJ A A A S       ",
"                  - . . . . X , 2 P R :.F.W.wXeX!.m.;.R P 2 $ . = S >X2X:X>X;X;X$XA A       ",
"                v - . . . . . o , 8 <.5.rXiXVXzXuX9XN. .8 , . . = V ;X:X2X2X8X>X;XF M m     ",
"              $XS ; . . . . . . o x J >X4XNXHXGXMX7X;XD s o . . + n J ;X2X4X4X2X;XZ N f Q T ",
"            ;X=X;XA z : > X . . . h S ,X7XNXIXIXNX6X>XF h . . . > n Z n.:X7X4X2X;XD m ..! R ",
"          ;X;X>X:X>X;XJ n - . . . - j J >XnXNXNXBX6X>X$Xh . . - z b A 6.;X:X2X:Xn.1.o.X.^ R ",
"      G G ;X,X>X2X7X3X:XJ : . . . = = ; F >X4XnX6X7X>X$Xh . O z b Z D H $X=X=X4.5.;.&.X.! R ",
"      G 4.:X:X2X7X5X5X3XG ; . . . . . . - F ;X8X2X3X:XH z . + z b Z S S S Z M 1.3.$.{ ! Q W ",
"      H =X:X2X3X7X5X5X2XG ; . . . . . . . h V H ,X<X<X4.e . = ; z n Z S M N m o.#.{ ] ] Q W ",
"      H G :X2X7X4X4X3X:XJ : . . . . . . . = = z 4.N.N.v.s . . + - ;        . .&.+.] !       ",
"      H G :X7XaX5X7X2X,XS - . . O O O . . . X t O.Z.Z.*.a . . . . .       T W R ! W W       ",
"      D G 2XmXMXBX6X:XG M : o $ 4 3 @ . > g 7.b.g.L.A.&.t . . X o .         T T Y Y         ",
"      S 6.7XNXGXNX5X,XA x : $ 8 0 0 , . g 7./././.J.C.1.t . . $ # $                         ",
"      S G 6XGXPXGXjX;Xv e r , 8 p q , . K b./.oX|.K.V.o.t . . $ < <                         ",
"      v H 6XGXPXIXnX;Xx e 1 , 8 q 0 $ . g b.oXoX}.E.S.o.r . . % < 1                         ",
"      M G 6XGXPXGXnX;Xx r % $ , 4 < . . g b.K.}.E.J.S.1.s . . # < 3                         ",
"      Z H 4XGXIXGXnX;Xv e r $ , < # . X 7  .V.J.J.J.Z.O.t . . # < <                         ",
"      C H 6XGXPXIXBX:XH S x 7 7 5 1 % & r ..*.c.V.V.c.O.t # $ < % <                         ",
"      C G 6XGXPXIXNX7X>X4.C x e w 0 0 8 w d d  .o.&.X.X.p 6 4 3 < #                         ",
"      C G 4XNXPXIXNXnX2X,XF c f i u u u w 9 3 3 w E Q W E y 0 4 % $                         ",
"      S G 3XNXGXGXNXnX3X,X$Xv m d U Y W q 4 @ @ 6 U W Q Y p w 4 % #                         ",
"      J G 3XmXBXBXBX7X:X,XF M m d u Y p y 6 $ % w Q | Q E p 9 4 % #                         ",
"      H G :X7XiXnX7X3X>X=XJ M m i u U u y 6 % 5 d } +.} E y 0 5 % #                         ",
"      J 4.,X3X7X7X1X<X,XG D N f i q U u y 6 < 5 i X.+.} E y 0 4 & #                         ",
"      m m N.U.qXrX0XN.4.1.<.f d E u Y E y 8 % 5 i X.X.X.E q 9 4 % #                         ",
"      q ..3.D.R.!.S.2.&.X...i E p p E u q 6 < 5 i | +.! E y 9 5 % #                         ",
"      P T @.C.G.J.Z.w.[ ) T U u y y w y w 4 % 5 i X.X.X.E y 0 5 & #                         ",
"      U T [ a.Z.A.G.Z.V.=.R P q 0 6 9 9 6 3 # 5 i X.X.! W y 0 4 % &                         ",
"      Y Q ] $.;.V.J.R.T.c.! q 8 4 < < 3 1 # # 5 i ..X.X.W y 9 4 & #                         ",
"      E W ! ! +.c.F.I.P.3...w 7 % o @ # # @ $ 5 i } +.} E y 9 5 % #                         ",
"          ! R ] ;.C.V.v.1.m s r # . . O o o @ 5 i } X.} E y 0 5 % #                         ",
"            Q ! ] +.+.o.<.N z : + . . . O O @ 5 E X.X.} E y 0 4 % #                         ",
"            W W Y U P d N c n j - + + + * + # 5 d X.+.| W y 9 4 & #                         ",
"                U     f x b b n j j j s ; : * 6 E } X.| W w 0 6 % #                         ",
"                        b c Z v c c c c n e * 4 E } +.| W q 0 4 % #                         ",
"                          b b b b b V b x e * 4 p | } | E q 0 4 % #                         ",
"                            b b b b Z Z x e * 4 p | } | W p 0 4 % #                         ",
"                                          * & 4 y Q ! ! E p w 4 % #                         ",
"                                            # 4 w E E E p y 9 4 % #                         ",
"                                            $ 1 8 w y y w 9 9 3 % $ o                       ",
"                                          $ , < 3 4 6 6 5 3 3 1 % $ O .                     ",
"                                          * 1 1 < & # % % % % < % & * X +                   ",
"                                          s e e : # o o o @ @ @ # : : ; ;                   ",
"                                          b c z e O . . . . . . o ; z n n                   ",
"                                          v b c z - . . X X . . + ; c b b                   ",
"                                          v v v n ; - - : ; - - ; z b b M                   ",
"                                          v b v c n z z z z n j z c v b b                   ",
"                                          b c v v c c c c c c c c v v c c                   ",
"                                          c c v v b v b b b b b b v C c c                   "
};
