/* XPM */
static char *da18da8411e14fb2adb52dc97211ca9eGJIkGM1PdUveIvfB[] = {
/* columns rows colors chars-per-pixel */
"40 96 218 2 ",
"   c None",
".  c #000000",
"X  c #0C0200",
"o  c #070A0D",
"O  c #120300",
"+  c #1C0100",
"@  c #1C0B03",
"#  c #000815",
"$  c #0D181A",
"%  c #1C1C1C",
"&  c #131616",
"*  c #1E0F14",
"=  c #2B0201",
"-  c #220E01",
";  c #280802",
":  c #340300",
">  c #3C0300",
",  c #330C03",
"<  c #390D01",
"1  c #241102",
"2  c #281407",
"3  c #341301",
"4  c #3C1403",
"5  c #3A1808",
"6  c #261E1A",
"7  c #351B19",
"8  c #38240C",
"9  c #3C241B",
"0  c #2C211C",
"q  c #071C21",
"w  c #161F22",
"e  c #1C2123",
"r  c #242425",
"t  c #2B2C2C",
"y  c #26292A",
"u  c #372A28",
"i  c #2E3234",
"p  c #333334",
"a  c #3B3A3B",
"s  c #383738",
"d  c #2F3030",
"f  c #441501",
"g  c #431B05",
"h  c #4B1C01",
"j  c #441A08",
"k  c #511F00",
"l  c #451F12",
"z  c #4C2106",
"x  c #482406",
"c  c #532504",
"v  c #552A06",
"b  c #5B2C04",
"n  c #532708",
"m  c #552B0A",
"M  c #5A2D09",
"N  c #582500",
"B  c #56300A",
"V  c #5D320A",
"C  c #432318",
"Z  c #573719",
"A  c #652C00",
"S  c #653405",
"D  c #693503",
"F  c #63340A",
"G  c #68360A",
"H  c #6D3A0C",
"J  c #6A3A04",
"K  c #753B00",
"L  c #723D0D",
"P  c #763900",
"I  c #6B3D16",
"U  c #472C25",
"Y  c #413D3D",
"T  c #4A3C3A",
"R  c #493632",
"E  c #4E3933",
"W  c #623B23",
"Q  c #7C4302",
"!  c #76410D",
"~  c #7B440F",
"^  c #7C4610",
"/  c #7D4B1C",
"(  c #764619",
")  c #6B451A",
"_  c #4B423F",
"`  c #59443A",
"'  c #68432B",
"]  c #774A2B",
"[  c #7C5033",
"{  c #6D4632",
"}  c #423F40",
"|  c #3E4041",
" . c #444545",
".. c #4C4443",
"X. c #4B4C4C",
"o. c #484748",
"O. c #534E4D",
"+. c #554A44",
"@. c #4C4F51",
"#. c #4B5255",
"$. c #545455",
"%. c #565959",
"&. c #5A5B5B",
"*. c #585656",
"=. c #535050",
"-. c #6C5347",
";. c #765A4A",
":. c #665C58",
">. c #785D50",
",. c #7A6359",
"<. c #6D615D",
"1. c #5C5E60",
"2. c #605F60",
"3. c #5F6366",
"4. c #656464",
"5. c #6A6664",
"6. c #65696A",
"7. c #6A6A6B",
"8. c #67666A",
"9. c #716B6A",
"0. c #6C6E70",
"q. c #6D7273",
"w. c #727274",
"e. c #75777A",
"r. c #7A7B7B",
"t. c #77787A",
"y. c #834301",
"u. c #8B4C03",
"i. c #864909",
"p. c #914D00",
"a. c #8F5108",
"s. c #945202",
"d. c #97550A",
"f. c #844B13",
"g. c #8A4E13",
"h. c #804710",
"j. c #8D5115",
"k. c #8D531A",
"l. c #86531D",
"z. c #935515",
"x. c #9A5A15",
"c. c #91561B",
"v. c #9B5D1D",
"b. c #985817",
"n. c #A05C19",
"m. c #A46317",
"M. c #895727",
"N. c #965B22",
"B. c #995E24",
"V. c #865737",
"C. c #905B36",
"Z. c #9D6123",
"A. c #9B6429",
"S. c #9F6B2C",
"D. c #99623B",
"F. c #8E6031",
"G. c #A16525",
"H. c #AA6A25",
"J. c #A16429",
"K. c #A66C29",
"L. c #AF712B",
"P. c #B3752B",
"I. c #B57935",
"U. c #865E44",
"Y. c #856758",
"T. c #9E785C",
"R. c #936A50",
"E. c #A87842",
"W. c #8D7C72",
"Q. c #BD813E",
"!. c #C48837",
"~. c #BA8447",
"^. c #BC9B78",
"/. c #AD8467",
"(. c #C38C46",
"). c #CB944C",
"_. c #C69558",
"`. c #D29E54",
"'. c #D3A05E",
"]. c #CE9E61",
"[. c #D6A868",
"{. c #7F7F81",
"}. c #7C8182",
"|. c #828284",
" X c #85878A",
".X c #8A8A8C",
"XX c #8D8D91",
"oX c #939295",
"OX c #9B9B9D",
"+X c #96979A",
"@X c #938C8A",
"#X c #A9998E",
"$X c #BAAA9C",
"%X c #9E9DA1",
"&X c #9EA0A0",
"*X c #A3A3A5",
"=X c #A5A5A8",
"-X c #ABABAB",
";X c #ACAEB1",
":X c #B3B4B4",
">X c #BABABA",
",X c #B7B8B9",
"<X c #AFB1B3",
"1X c #CCAD86",
"2X c #BABFC3",
"3X c #C6C5C6",
"4X c #CCCCCD",
"5X c #CBCFD1",
"6X c #D2D2D2",
"7X c #DBDBDB",
"8X c #D7D7D8",
"9X c #E0E0DF",
"0X c #E3E3E4",
"qX c #ECEBEB",
"wX c #E7E7E8",
"eX c #F4F4F4",
"rX c #FCFCFB",
"tX c #F0F0F0",
/* pixels */
"                  . . .                                                         ",
"                  . . .                                                         ",
"                  . . . .                                                       ",
"                  . . . . . . . . .               . .                           ",
"                  . . . . . . . . .               . . .                         ",
"                  . . . . . . . . . .           . . . .                         ",
"                  . . . . . . . . . . . . . . . . . . . . .                     ",
"                  . . . . . . . . . . . . . . . . . . . . . .                   ",
"                  . . . . . . . . . . . . . . . . . . . . . .                   ",
"        . . . . . . . . . . . . . . . . . . . . . . . . . . . . .               ",
"      . . . . . . . . . . . . . . . . . . . . . . . . . . . . . . .             ",
"      . . . . . . . . . . . . . . . . . . . . . . . . . . . . . . .             ",
"      . . . . . . . . . . . . . . . . . . . . . X . . . . . . . . . . .         ",
"      . . . . . . . . . . . . . . . . . . . . . . . . . . . . . . . . . .       ",
"      . . . . . . . . . . . . . . . . . . . . . . . . . . . . . . . . . .       ",
"      . . . . . . . . . . . . . . . . . . . . . . . . . . . . . . . . . .       ",
"      . . . . . . . . . . . . . . . . . . . . . . . . . . . . . . . . . .       ",
"      . . . . . . . . . . . . . . . . . . . . . . . . . . . . . . . . . .       ",
"    . . . . . . . . . . . . . . . . . . o . . . . . . . . . . . . . . . . .     ",
". . . . . . . . . . . . . . . . . . . . . . . . . . . . . . . . . . . . . . . . ",
". . . . . . . . . . . . . . . . . . . . . . . . . . . . . . . . . . . . . . . . ",
". . . . . . . . . . . . . . . . . . . . . . . . . . . . . . . . . . . . . . . . ",
". . . . . . . . . . . . . . . . . . . . . . . . . . . . . . . . . . . . . . . . ",
". . . . . . . . . . . . . . . . . . . . . . . . . . . . . . . . . . . . . . . . ",
". . . o . . . . . . . . . . . . . . . . . . . . . . . . . . . . . . . . . . . . ",
". . . . . . . . . . . . . . . . . . . . . . . . . . . . . . . . . . . . . . . . ",
". . . . . . . . . . . . . . . . . . . . . . . . . . . . . . . . . . . . . . . . ",
". . . . . X . . . . . . . . . . . . . . . . . . . . . . . . . . . . . . . . . . ",
". . . . . X . . . . . . . . . X . . . . . . . . . . . . . . . . . . X . . . . . ",
"O X X . . . . . . . . . . . . . X . . . . . . . . . . . . . . . . . . . X X O X ",
"B m x - . . . . X . . . . . . . . . . . . . . . . . . . . . . . . . . . - x B B ",
"^ ^ V 3 . . . . X . . . . . . . . . . . . . . . . . . . . . X X . . . . 3 V ~ ^ ",
"j.g.! B O . . . . . . . . . . . . . . . . . . . . . . . . . . . . . . X B ^ j.j.",
"x.x.g./ ) Z 8 . . . . . . . . . . . . . . . . . . . . . . . . . . 8 Z ) / j.z.x.",
"x.x.v.S.S.M.Z . . . . X . . . . . . . . . . . . . . . . X . . . . Z F.Z.S.Z.x.x.",
"a.j.v.L.Q.S.( 1 . . . . . . . . . . . . . . . . . . . . . . . . 2 ) S.Q.L.Z.j.g.",
"g.j.Z.L.I.L.l.m ; X . . . . . . . . . . . . . . . . . . . X @ 2 B l.K.P.L.Z.j.g.",
"    v.G.H.H.v.f.G x . . . . . . . . . . . . . . . . . . . @ x G ^ a.m.m.m.d.    ",
"      k.c.x.x.z.^ B O . . . . . . . . . . . . . . . . . . - V ~ j.x.d.d.a.      ",
"        i.g.z.z.f.J v 9 u p p i p a  .@.$.%.$.@.o.a t w # @ v ! f.M.C.[ [       ",
"                a.Q Q ] -.$.%.#.$.&.q.|. X.X.X|.t.4.X.a q X 3 c F ] ;.-.;.      ",
"                  u.u.C.>.5.6.3.4.w. XOX*X=X%X%X.Xt.:.o.t . . X 6 _ :.<.7.      ",
"                  u.u.V.>.5.4.1.&.9.|.oX%X%X%XoX Xw.&. .t . . . # #.e.}.}.      ",
"                  J J ' ` +.X. .o.$.4.q.e.t.e.w.4.$. .p % . . . q 3.XX&XOX X7.&.",
"                  3 3 5 6 e e 6 w r d p s a a p i y % & o . . . y e.*X:X-X.X7.1.",
"                  . . . . . . . . . . . . . . . . . . . . . . . y r.-X>X<X@X9.6.",
"                . . . . . . . . . . . . . . . . . . . . . . . . y w.&X<X=X.X9.4.",
"            . . . . . . . . . . . . . . . . . . . . . . . . . . r 7.+X=XOX}.7.4.",
"            s r & o . . . . . . . . . . . . . . . . . . . . . . w 6.XX%X+X{.5.4.",
"          t.&. .d % . . . . . . . . . . . . . . . . . . . . . . w 3.+X=X+X{.6.4.",
"4.7.r..X+X.Xw.&. .y . . . . . . . . . . . . . . . . . o . . . . $ 8.+X;XOX/.5.2.",
"4.7..X-X,X<X+Xr.2.X.t . . o . . . . . . . . . . . . . . . . . . d 8.}.=X}.{.7.4.",
"&.w.&X4X9X8X>X+Xr.5.O.d w # . . . . . . . . . . . . . . . o e i @.0.{.XX Xr.7.7.",
"X.7.*X7XrXtX6X-XoXr.6.X.p # . . . . . . . . . . . . . . . $ a #.3.8.q.{.e.w.w.w.",
"X.4.-X9XrXrX9X3X-XoXw.$.Y 6 O + 1 2 2 1 1 1 - @ - 1 @ . . & ..:.9.9.8.3.4.6.7.6.",
"$.4.OX4XwXtXwX9X3X*Xr.*.E Z c b V F F F V V B m m B v g = 7 ` ;.Y.Y.Y.>.;.<.7.0.",
"&.8..X-X3X7XqXtX9X:Xr.+.' I K Q f.f.f.f.^ ~ ! ! ! ! L b 4 5 W V.C.R.D.C.V.      ",
"&.5.|.OX:X6XqXeX0X:Xr.` ' ] y.y.g.j.g.j.j.f.^ ~ ^ ^ ^ F z g S y.p.p.d.p.u.      ",
"&.8.@X<X4X7XwXwX6X-Xt.+.W I K K ~ ^ ^ ~ ~ ! H H H L H V z g b Q p.s.s.p.        ",
"$.5.%X4XqXqX9X6X>XOXw.O.} Z N N b M V F M M m n n n n z h g c                   ",
"X.8.*X8XeXtX8X2X*X.Xq.$.} U f f 4 g 5 4 f 5 g g g g g g h 5 g                   ",
"$.6.&X4XwX0X5X;X+X Xq.*.} C : f c z x , 4 g n M v m n c z 4 ,                   ",
"%.6.oX,X5X5X2X;X%X}.0.*.} 7 f k G G m j g m L L L L G F n 4 ,                   ",
"1.6. X*X,X,X;X*X+X|.w.:.} C f A ~ ~ F h g V L ^ f.^ ^ G m 4 ,                   ",
":.,./.OX$X$X$X#X/.r.<.-.` Z A K f.h.G x g m G ! ~ h.~ H m 4 ,                   ",
"[ V.T.^.1X1X^./.T.R.U.[ ] ) J Q f.h.H z 4 5 n M L ~ ~ L b < <                   ",
"Q g.E._.[.[.~.~.H.m.c.^ ~ ~ ^ a.j.f.H n < , < x F L ~ L m 4 ,                   ",
"y.p.K.(.).`.).!.Q.m.s.u.Q h.f.k.c.l.! v < 4 x M H ~ ~ L m 4 ,                   ",
"s.s.H.I.(.`.`.`.~.Q.N.y.y.h.f.N.B.N.( z 4 v F ! ~ h.~ L b 4 :                   ",
"g.c.Z.H.I.(.'.[._.~.N.Q P L f.N.J.B.] n 4 M L ~ f.h.~ H m 4 ,                   ",
"g.g.b.x.H.I._.'./.Q.M.P P ^ f.B.J.B.] m f v L ~ ~ L L S c 4 :                   ",
"    z.x.m.I.(.~.I.C.I A P L f.B.J.A.f.m , h V F F F M N h > >                   ",
"      z.b.m.G.B.M.I k h S L f.B.J.B.l.m : < j h h x h g h < f                   ",
"      g.i.i.y.y.P k < j S L f.B.J.B.] m = = , = = = , 7 U U R                   ",
"                A f < j F L f.B.J.B.f.B = + + O X X + u T ..O.O.%.              ",
"                  4 f m G L g.B.J.B.] m = O X . . . @ p o.$.*.&.*.*.            ",
"                  = 4 n D L g.B.J.B.l.m = * w w $ $ y | $.*.&.*.$.$.            ",
"                  = 4 m H L g.B.J.B./ n 7 u Y  . . . .$.&.&.*.%.                ",
"                  , 4 n D L g.B.J.B./ c 7 Y =.%.%.$.%.&.2.%.%.                  ",
"                  , 4 n G L g.B.G.B.~ c 7 a $.&.&.*.*.*.$.$.                    ",
"                  , < m F ^ f.c.v.c.^ c 7 p O.      &.*.*.                      ",
"                  , f N G ! f.g.c.g.! c 5 7                                     ",
"                  , 4 m H ^ f.a.g.f.L n ,                                       ",
"                  , 4 m G ^ h.g.g.^ L n ,                                       ",
"                  , 4 m H ~ f.g.f.~ H n < :                                     ",
"                  , 4 m H ! ~ h.~ L F k 4 ,                                     ",
"                  : < k A F H H G S b h :                                       ",
"                  > f f h n m n m c h f >                                       ",
"                  C C x 5 5 4 4 4 4 j l C C                                     ",
"                O._ T R u = + + ; , u R T ..=.                                  ",
"            $.$.$.=.O...u + . . . * s ..$.$.$.$.                                ",
"            $.$.1.&.*.X.a & . . . r a $.*.&.&.$.$.                              ",
"              $.$.&.%.$. .p y y t s o.%.&.&.$.$.                                ",
"                  &.*.%.#.X.o.o. .X.$.%.*.$.                                    ",
"                  $.*.&.&.$.$.$.$.$.%.&.*.$.                                    ",
"                  $.*.&.&.&.%.%.&.&.&.&.$.                                      "
};
