/* XPM */
static char *_135db2cb79042b6f782b7ac81e56c853gzOTwCsBVi0QiAG[] = {
/* columns rows colors chars-per-pixel */
"46 96 256 2 ",
"   c None",
".  c #000000",
"X  c #04050A",
"o  c #1C0100",
"O  c #160402",
"+  c #181818",
"@  c #06131A",
"#  c #2C0101",
"$  c #230000",
"%  c #340D03",
"&  c #380300",
"*  c #3C1403",
"=  c #3F1805",
"-  c #2A1615",
";  c #011A23",
":  c #282929",
">  c #2E3131",
",  c #373737",
"<  c #342C2B",
"1  c #262526",
"2  c #450500",
"3  c #431501",
"4  c #441B03",
"5  c #491A04",
"6  c #511F00",
"7  c #741200",
"8  c #4C2207",
"9  c #532503",
"0  c #562904",
"q  c #5C2B03",
"w  c #5A2C09",
"e  c #53290B",
"r  c #432318",
"t  c #583413",
"y  c #6D3A0B",
"u  c #663407",
"i  c #733E0B",
"p  c #743B03",
"a  c #68330A",
"s  c #473D3B",
"d  c #4E372D",
"f  c #673C22",
"g  c #76410C",
"h  c #7B430D",
"j  c #7B4307",
"k  c #7B4717",
"l  c #52482D",
"z  c #754B2B",
"x  c #4E642E",
"c  c #58431F",
"v  c #285E50",
"b  c #4A4A4B",
"n  c #464747",
"m  c #545555",
"M  c #5B5B5B",
"N  c #575858",
"B  c #4F4F50",
"V  c #6F584B",
"C  c #78655C",
"Z  c #7B6444",
"A  c #6B6B6C",
"S  c #656768",
"D  c #737474",
"F  c #7B7B7B",
"G  c #767778",
"H  c #6F6F71",
"J  c #5B6B5B",
"K  c #323C42",
"L  c #813E00",
"P  c #A13500",
"I  c #884805",
"U  c #954D00",
"Y  c #975605",
"T  c #854B13",
"R  c #894E13",
"E  c #844A14",
"W  c #8D5215",
"Q  c #8E531A",
"!  c #92561A",
"~  c #94591C",
"^  c #975918",
"/  c #8D500D",
"(  c #A64900",
")  c #A85800",
"_  c #AA5C0E",
"`  c #9D6015",
"'  c #AC6200",
"]  c #AE6A00",
"[  c #A76308",
"{  c #B16D00",
"}  c #B36702",
"|  c #B47305",
" . c #A7651B",
".. c #B57618",
"X. c #B66C14",
"o. c #955A21",
"O. c #9A5E22",
"+. c #8A562A",
"@. c #9D6226",
"#. c #9C612A",
"$. c #976537",
"%. c #A26528",
"&. c #A96826",
"*. c #B26C2D",
"=. c #B3752D",
"-. c #B67626",
";. c #B26B35",
":. c #A87637",
">. c #B37532",
",. c #B57933",
"<. c #B97B36",
"1. c #AA6B36",
"2. c #AC5D31",
"3. c #C27D2B",
"4. c #C07700",
"5. c #845D46",
"6. c #8F6D50",
"7. c #AA7544",
"8. c #B87B44",
"9. c #BA7C51",
"0. c #927D69",
"q. c #7C815A",
"w. c #B79009",
"e. c #B9872B",
"r. c #BA8738",
"t. c #BD9431",
"y. c #BDA232",
"u. c #C58D00",
"i. c #CBBA02",
"p. c #CBAF10",
"a. c #C38629",
"s. c #C58638",
"d. c #C49931",
"f. c #C8A638",
"g. c #CDB12B",
"h. c #DCDA00",
"j. c #D4C910",
"k. c #D4C538",
"l. c #DACF2E",
"z. c #E0DA3A",
"x. c #E0E214",
"c. c #BB8548",
"v. c #B8875A",
"b. c #AE8F56",
"n. c #9AB658",
"m. c #BC8B64",
"M. c #B69765",
"N. c #AF9070",
"B. c #BBA56A",
"V. c #A3995E",
"C. c #C38C4B",
"Z. c #C28748",
"A. c #C8974B",
"S. c #C48A56",
"D. c #CA9758",
"F. c #D29C57",
"G. c #D29949",
"H. c #D6A85A",
"J. c #D8B759",
"K. c #CBAF4B",
"L. c #CA9A65",
"P. c #D29D66",
"I. c #C49A79",
"U. c #C99269",
"Y. c #D6AA6A",
"T. c #D6A768",
"R. c #D9B767",
"E. c #D6AA76",
"W. c #DAB477",
"Q. c #CBAA6D",
"!. c #ECBC7C",
"~. c #E7B676",
"^. c #E7B26E",
"/. c #E3AE5D",
"(. c #BFEE76",
"). c #D9C94A",
"_. c #DBC758",
"`. c #DCD955",
"'. c #D4CC4C",
"]. c #E2D854",
"[. c #E6E75B",
"{. c #E6EB51",
"}. c #DCC968",
"|. c #D8D767",
" X c #D1D271",
".X c #E5DC64",
"XX c #E5CF72",
"oX c #E7E967",
"OX c #E7E777",
"+X c #EBF378",
"@X c #C2E26F",
"#X c #007B88",
"$X c #7A7D81",
"%X c #2B8688",
"&X c #788A82",
"*X c #568B83",
"=X c #838384",
"-X c #898A8C",
";X c #898D92",
":X c #979799",
">X c #929194",
",X c #A4948F",
"<X c #B5AA8F",
"1X c #9C9EA3",
"2X c #A7A8A9",
"3X c #AEB1B5",
"4X c #BCBCBD",
"5X c #B5B4B5",
"6X c #B5ACAB",
"7X c #A7A1A7",
"8X c #C49985",
"9X c #CBA889",
"0X c #D7AA85",
"qX c #D8B788",
"wX c #CDAB98",
"eX c #DBB598",
"rX c #CAB093",
"tX c #D5B9A8",
"yX c #D3B8AB",
"uX c #E1B492",
"iX c #B8C4BA",
"pX c #BCC082",
"aX c #D8CE91",
"sX c #E5C79A",
"dX c #E5DA8A",
"fX c #E9E888",
"gX c #EDF092",
"hX c #DAC5B5",
"jX c #DBC8A8",
"kX c #E6D0B2",
"lX c #F3F8B8",
"zX c #EFF0AC",
"xX c #BABBC1",
"cX c #B0C8CB",
"vX c #C8C8CA",
"bX c #DDC9C4",
"nX c #D6D7D8",
"mX c #CFCFD1",
"MX c #E8D8C7",
"NX c #EADAD4",
"BX c #E4D0C7",
"VX c #F6FAC8",
"CX c #F6E8D9",
"ZX c #FAFCD7",
"AX c #EEE6CA",
"SX c #DFDFE0",
"DX c #E8DDE3",
"FX c #E4E4E4",
"GX c #EBEAEB",
"HX c #ECE0E4",
"JX c #F3EAE7",
"KX c #FBFBE9",
"LX c #FDFDF4",
"PX c #FFFEFE",
"IX c #F6F5F7",
"UX c #EEEFF2",
/* pixels */
"                                                        ,.>.,.                              ",
"                                                      ,.,.,.,.                              ",
"                                                      ..>.,.,.                              ",
"                                ,.,.              ( ) ] =.<.<.      ,.,.                    ",
"                              >.>.,.=.            | ..3.s.3.:.      ,.,.,.                  ",
"                              -.s.>.,.          8X9XuX0XS.*.|     =.>.<.>.                  ",
"                          ( ' ] s.,.          8.yXBXHXhXU.| ] X.*.&.*.*.*.                  ",
"                        { { | a.<.,.        ( U.BXIXLXNX8X} ] ..=.-.<.*.*.                  ",
"                        8X9XuXP.c...]     m.I.sXCXLXKXMXI.} 4.3.G.f.f.d.t.                  ",
"                    ( N.hXMXNXeXS.} ) ) m.yXbXCXZXVXlXdXD.*.3.S.H.J.k.i.p.t.>.              ",
"                  P ' 9XNXIXJXhXm.) ( ) N.BXJXLXZXgX[.K.r.>.Z.P.^.].].z.k.f.>.2.            ",
"                  | u.sXJXPXIXBXS.} } 4.0XHXPXPXZX+Xh.i.w.;.8.S.Y.XXgXgXOX/.,._             ",
"              >.u.p.i.gXKXPXPXbXm.) } u.0XNXPXPXZX+Xx.j.w.) ) 3.P.sXVXVXzX0X..)             ",
"            2.>.w.i.h.gXZXPXUXbXm.{ | u.qXNXIXPXZXgXx.j.w.) ( } M.hXJXLXCXeXX.)             ",
"            _ -.J..X+XlXZXLXJXyXS.-.A.W.kXAXIXKXVXfXz.J.Q.N.7.[ c.hXIXPXHXeX{ (             ",
"<.<.        ( *.~.zXVXVXZXVXzXqXP.U.eXMXCXZXVXzXdXg.g.aXbXbXwX<.v.yXPXPXJXeX} (         ,.,.",
">.,.,.      ( ..uXNXLXKXVXgXoXJ.H.0XMXIXKXZXgXoXj.w.r.tXJXIXbXm.8.hXIXPXJXeX{ P       <.,.<.",
"s.s.>.      ) { eXHXPXLXlX[.h.i./.uXNXIXLXlXOXh.i.c.,XBXLXLXMXU.8.eXJXIXCXeX-.'       >.s.s.",
"s.3.>.;.  ) ( ] wXHXPXPXlX{.h.l.H.0XkXMXMXaXg.g.qXhXBXAXZXVXjXM.,.qXzXVXzXqXZ.3.*.  &.>.3.s.",
"3.<.>.;.&.) ) ] wXNXPXPXVX+Xx.].R.P.E.uXW.A.w.Q.hXGXIXZXzXOX_.c.e.Q.OXgXfXR.P.C.<.*.&.=.<.<.",
">.>.r.r.s.a.| ..rXnXLXKXlXoXz.).R.Y.Y.W.T.s.] m.bXIXLXVX+Xh.j.e.:.f.z.{.].}.T.P.A.d.a.3.>.>.",
";.>.t.g.g.p.u.a.E.kXVXVXzXXX].l.).}.sXkXhX0X9.U.tXNXCXlX+Xh.j.e.,.y.g.z._.Y.Y.T.J.g.p.a.>.>.",
";.,.d.j.x.l.g.f.J.XXgXfXXX~.J.l.h.OXlXJXJXkX0XS.E.eXsXfXoX{.k.t.>.Z.J.R.R.T.T.J.).x.j.d.>.;.",
"&.>.A..XOXOXXX~.R.`.{.]._.T.Y._.[.gXZXPXIXMXsXF.G.D.H.'.[.{.'.t.>.c.L.Y.Y.T.R.XXOXOX|.K.,.&.",
"} >.Q.dXzXlXAXMXkXXX].l.f.A.T.aXzXVXLXPXPXCXdXk.g.a.d.K._..XK.r.>.9.L.T.R.J..XdXzXlXzXQ.=.' ",
"' =.rXMXKXLXPXLXCXkX~.g.u.3.I.kXZXLXPXPXPXVXgXz.p.t.<.A.Y.R.F.e.=.c.P.R._.).oXzXKXKXNXrX=.' ",
"' =.rXNXPXPXPXPXJXkXE.a.| } <XBXIXPXPXPXKXVXfXz.i.t.<.S.P.T.U.3.<.c.L.Y.).z.oXlXKXPXHXrX=.' ",
") =.yXHXPXPXPXKXVXsXP...) ( 8XNXPXPXPXKXVXgX|.k.g.s.Z.U.P.^.P.F.Z.S.S.D.J.).oXzXZXZXAXrX=.' ",
"' =.yXHXPXPXZXzXfXR.c.[ ( ) 8XNXPXPXKXlXfX}.K.d.c.D.H.Y.~.~.^.P.D.Z.8.c.G.H.}.dXgXzXdXQ.>.[ ",
"' =.wXNXPXKXlX[.h.g.e. .) { 8XBXIXLXVX+Xx.i.e.:.c.T.^.~.!.uX!.^.T.D.r.>.Z.D.T.}.[.{.'.f.>.*.",
"{ -.0XMXZXVXgXl.i.p.c.c.d.d.W.hXNXAXzX[.h.i...2.v.P.^.~.XXXXXXXXR.H.A.c.c.S.D.J.).z.k.f.<.;.",
"X.s.W.gXzXgX Xf.w.c.L.Y.).].|. XwXqXOX[.{.k.e.1.9.L.Y.}..X[.[.[.[.}.R.D.S.8.c.G./._.J.G.s.3.",
"%.:.f.`.[.`.K.r.8.S.T.R.oX[.`.K.,.r.'.[.{.K.r.>.9.P.R.|.oX{.{.[.[.|.R.T.S.c.>.c.T.T.L.Z.,.-.",
"1.e.y.j.j.j.y.c.9.S.D.R._.`.'.y.:.:.K.'.'.K.e.,.A.R.}.|.|.|.@X`.'._.J.P.D.c.c.C.S.S.v.c.=.=.",
"    w.w.w.y.A.D.L.D.C.A.K.f.A.V.V.0.M.K.f.e.-.-.K.].[.@XpX<XB.B.f.f.A.C.D.D.L.D.c.7.1.:.    ",
"      j k r.D.Y.T.S.,.-.....9.,X1X1XN.c.| X.&.t.g.{.oXaX<X1X,X9...| =.<.A.T.Y.D.8.R I       ",
"      7 7 ;.S.P.D.c.&. .{ >.U.6XxXxX:X6.@.=.c.A.).'. XiXcX4X6X9.=.]  .&.c.F.P.D.1.L 7       ",
"      7 I *.Z.A.C.>.O. ...C.9XBXDXnX3X0.Z c.T.Y.K.n.n.iXnXSXhX0XC.e. .O.:.Z.C.c.=.U p       ",
"      I W &.=.e.=.` / @.-.F.sXCXIXUXcX*XJ B.~.!.n.J *XcXUXPXCXsXF.e.@./ ` =.r.>.&.W I       ",
"        W ~ @.&.&.Y I O...G.sXCXPXIXcX%Xv M.qXqXV.v %XcXIXPXCXsXA.| O.I Y  .&.@.~ R         ",
"          ~ ` %. .) / [ ] a.eXCXPXIXcX%Xv B.aX!.M.v %XcXUXIXCXeXa.{ [ / Y  . .^ ^           ",
"            W ! ^ ^ W Y ) { 9XCXPXIXcX%Xv n.~.!.B.v %XcXUXIXCXrX| Y Y W W  .! !             ",
"              I I / / Y U ) I.bXGXSXiX&XC Q.!.!.B.q.&XiXGXGXhXN.) U Y / T I I               ",
"                      Y U Y v.wXhXhX<XN.B.Y.!.qXQ.B.N.<XhXhXrXm.) U Y                       ",
"                        U / 1.9.m.U.L.Q.R.~.XXuX~.E.Q.L.U.m.c.1./ Y                         ",
"                        y g U U Y | s.F.Y.~.!.!.^.^.D.s.{ Y U U g y                         ",
"                      . # q p I U ] ..s.G./././.H.G.d...' U I p 0 % .                       ",
"            =XF S n . . . o e i / ` X.-.3.G.H.G.G.s.-. .` / g e O . . . : m S A             ",
"            -X=X-XH B > ; X $ 9 p ! #.7.S.I.0XqXI.v.7.O.! p 9 $ X ; , B S G D D             ",
"          $X=X;X:X:X;X$XN ; . # q z 6.0.wXyXkXBXjX<X0.6.f 2 $ . ; m G >X>X>X=XG D           ",
"      F $X$X-X>X1X2X3X1XD > . . o b D >X5XnXJXJXmXyX,XH d X X X : D :X6X2X1X-X=XD S S       ",
"      G N.:X2X3X5XvXyX2Xq., . . . K S ;X3XnXUXUXnX3X;XA b ; . X , &X2XvXxX4X2X2X;XA M       ",
"      H =X2X4XvXmXvXxX7X$X, X X . : B A ;XxXnXnXxX;X$XA $XS m > b 0.1XxXvXmXmX4X1XS m       ",
"      S G 5XnXFXSXmX3X>XH > . . . @ ; , A :X3X3X;XS b H ;X;X$XN N D 1X3XmXFXFXmX2XS n       ",
"      M F 5XFXLXUXmX2X$XN : . . . . . . , G >X>XH + X A 1X1X;XS m S $X2XmXUXIXFX6XS ,       ",
"      N D 4XGXPXIXvX:XS b : . . . . . X r C ,XN.C # X N $X;X$Xm n m A :XmXUXPXFX6XM :       ",
"      m D 5XGXPXUXvX=XB , + . . . . . . d 6.M.v.6.e @ K S H N , : K m =XvXUXPXFX6XM +       ",
"      M F 4XGXPXGX4XG < + + . . O . . . c :.A.B.:.d X ; b B , O X X > G 4XGXPXGX3XS ,       ",
"    G A =X4XGXPXGX4XD < - - # 8 9 8 . . x t.J.K.V.c . - d z d # # O < G 4XGXPXGX5XG M S     ",
"$X0.$XG -X4XGXPXUX4XF , < - 3 q i u & . x n.(.@Xn.x X & f z a 3 - - , F 4XGXPXGX4X=XH A A S ",
"$X&X-X>X1XvXFXUXFX5XG s < r 3 u h p 2 . x n.(.(.n.x . 2 p p p 6 = < s G 5XFXUXFXvX1X-XF S S ",
"$X=X:X5XvXnXSXSXvX2XD b d r 5 q y u & . x n.@X@Xn.x . % q p q 2 r s b G 2XvXSXFXnXvX5X>XH S ",
"H $X2XnXGXFXnXvX3X>XD B s r 2 3 9 4 . . x V._.R.V.l . . 5 9 5 2 r n B D >X2XvXnXGXGXmX1XA m ",
"A F 3XNXIXGXvX2X-X$XH M s r & 2 4 % . . c $.A.b.:.c . . % 4 2 2 r s N A &X-X2XmXGXUXNX2XS b ",
"H F 1XvXSXmXxX&XG H C V f t 9 9 q 0 4 * f +.8.7.+.c 4 4 9 9 4 & r l V C H G ;XxXmXSXxX1XS m ",
"G $X&X1X2X1X&X$XH C 5.+.z f p p i i y u y z +.+.+.k p i y u q 4 5 f z 5.5.A $X&X1X2X1X$XS S ",
"$X$XH H H S $XS A 5.Q I I i h T W W T j i t 8 8 a T R R k g u 4 5 u L Q 5.C A S H H H S A S ",
"N.0.0.0.0.6.6.S Z +.Y I I I T Q ~ ~ W R i 6 o & u W ^ ^ W g u 8 5 a L Y 6.6.0.6.V z V S C C ",
"9.9.U.U.B.U.m.7.$.#.^ U I h E o.~ @.! T g 9 # 3 g ~ @.~ T g q 8 5 u L ` 8.M.M.v.7.6.$.$.5.5.",
":.<.A.^.uX^.D.8.&.@.^ I h g E o.@.@.~ T y 0 * e z @.@.~ R g q 4 5 q p O.c.P.Y.P.C.,.&.@.o.Q ",
"] -.G.^.^.^.F.-.[ Y W E h h R o.@.#.~ T i 0 3 e k @.%.@.Q h u 8 4 6 p O.c.M.H.F.s.-.' Y I I ",
"    Z.F./.H.G.=.Y Y     j h R O.%.@.o.T y 0 * e k #.@.@.Q h y 9 * 3     :.:.Z.Z.<. .Y Y     ",
"      r.r.s.<.^ R       i h Q O.#.@.~ E i 0 3 e k #.%.@.^ T i q * $       o.%. . .! W       ",
"      -.&. .^ / I       p g Q O.%.#.~ E i q * e k #.%.@.^ T i w % .       L p I I / R       ",
"                        p i ! ~ %.%.o.R i 0 4 e z #.%.%.^ E i w # X                         ",
"                        p j W O.%.@.~ R i q 3 e k @.&.@.! E i w % o                         ",
"                        k T ~ @.@.O.Q k y 9 * e k O.%.^ ! R i a 8 =                         ",
"                      E Q ~ ~ O.~ ~ T y w 5   t k Q ~ ^ W R E i a e 8                       ",
"                  j h R o.@.@.O.~ E g w =         E R W R R T h g a 8 * %                   ",
"                  i h ~ @.#.%.O.Q h y 8 #         g E W W ! R R h i w * %                   ",
"                  j j ~ %.%.%.o.R i u 6 #         h R ~ o.o.~ R h y w * %                   ",
"                  h h ~ @.%.@.~ T i a 8 %         h R o.O.%.o.E h u e * %                   ",
"                  i g W @.@.@.~ E y u 8 *         i E o.O.%.o.Q h u e * %                   ",
"                  q u k Q O.~ ! E i a 8 *         u i Q O.O.o.T h a w * %                   ",
"                  4 8 y T Q ~ W T g a 8 %         5 q E Q ! ! R h y w * %                   ",
"                  $ % w i E R T h i a 6 *         # 6 y E E / h g a 0 * %                   ",
"                  # % e a i i i y u 0 3 &         # 3 q y i i y a t e * &                   ",
"                  & 3 8 e e w w e 9 6 3 &         & 3 6 0 w w e e 8 6 4 3                   ",
"                  = = 4 * * % * % * 5 r r         r r 4 % % * * * 3 4 = =                   ",
"                l < % # $ o o O $ - d s l         s s d - o O $ $ # # % < n                 ",
"              N b < O . X . . . . - n B B         B m s - . . . . . . O < b m               ",
"            N N m , + . X X X . . : n m M         M m n 1 . . X X . . + , m N M             ",
"            N N M b , : > > > > > , n B M         M m n , > > > > > : , n M N N             ",
"            N N N m n n n n b b b b B                 B n b b n n n n n m M m N             ",
"            m m M M m N m m N M N N                     m N M N m m m m N M m m             ",
"            m m M N N N N N N S M N                     N S M M M N M N M M m N             "
};
