/* XPM */
static char *result[] = {
/* columns rows colors chars-per-pixel */
"51 96 244 2 ",
"   c #000000",
".  c #0B0200",
"X  c #00010D",
"o  c #050A0C",
"O  c #1B0200",
"+  c #170701",
"@  c #000415",
"#  c #08171A",
"$  c #1B1C1C",
"%  c #161717",
"&  c #161E00",
"*  c #2C0100",
"=  c #250702",
"-  c #320401",
";  c #330B03",
":  c #390C03",
">  c #291606",
",  c #3C1404",
"<  c #371703",
"1  c #2B1718",
"2  c #371B15",
"3  c #192807",
"4  c #3B2209",
"5  c #342516",
"6  c #000527",
"7  c #0A142A",
"8  c #192E35",
"9  c #0B252C",
"0  c #262626",
"q  c #3A2826",
"w  c #293337",
"e  c #333434",
"r  c #3C3C3C",
"t  c #393937",
"y  c #333231",
"u  c #321D21",
"i  c #440200",
"p  c #530503",
"a  c #451B04",
"s  c #4A1E04",
"d  c #441805",
"f  c #491D0A",
"g  c #730A00",
"h  c #4C2204",
"j  c #482608",
"k  c #522504",
"l  c #552A05",
"z  c #5B2C03",
"x  c #552B09",
"c  c #5B2D09",
"v  c #512508",
"b  c #5B3309",
"n  c #593817",
"m  c #4D2C15",
"M  c #652D00",
"N  c #643204",
"B  c #6C3300",
"V  c #64340A",
"C  c #69370A",
"Z  c #6C3A0B",
"A  c #6A3A07",
"S  c #723E0C",
"D  c #773902",
"F  c #6A3C17",
"G  c #713E14",
"H  c #782900",
"J  c #423A39",
"K  c #52352D",
"L  c #3B4936",
"P  c #5C4315",
"I  c #76410D",
"U  c #7B440D",
"Y  c #7C4203",
"T  c #7D4611",
"R  c #794717",
"E  c #6A4D18",
"W  c #584337",
"Q  c #774926",
"!  c #78552B",
"~  c #764C36",
"^  c #6C4A30",
"/  c #7D603B",
"(  c #001742",
")  c #052944",
"_  c #313B49",
"`  c #344551",
"'  c #3E5568",
"]  c #424242",
"[  c #4C4C4C",
"{  c #474747",
"}  c #564C47",
"|  c #4D5254",
" . c #545554",
".. c #5A5B5B",
"X. c #565959",
"o. c #524D52",
"O. c #665B57",
"+. c #74594D",
"@. c #7A665A",
"#. c #72624F",
"$. c #595D62",
"%. c #5D6365",
"&. c #646464",
"*. c #6A6B6C",
"=. c #686869",
"-. c #766B65",
";. c #6C6F70",
":. c #6D7174",
">. c #69727C",
",. c #727274",
"<. c #7A7A7C",
"1. c #75767A",
"2. c #7D736C",
"3. c #605F61",
"4. c #823B00",
"5. c #854400",
"6. c #8B4D0C",
"7. c #874806",
"8. c #955401",
"9. c #985808",
"0. c #844B12",
"q. c #8A4E13",
"w. c #854C18",
"e. c #8D5115",
"r. c #8C531B",
"t. c #85561B",
"y. c #925415",
"u. c #92561A",
"i. c #955A1C",
"p. c #9A5C1D",
"a. c #9A5C15",
"s. c #924F07",
"d. c #A15E0E",
"f. c #9D611C",
"g. c #A8671A",
"h. c #A56306",
"j. c #885427",
"k. c #945B22",
"l. c #9A5E22",
"z. c #955C26",
"x. c #895430",
"c. c #9D6125",
"v. c #98652B",
"b. c #9C6934",
"n. c #8D6D36",
"m. c #A36523",
"M. c #AB6C24",
"N. c #A26629",
"B. c #A86B29",
"V. c #AF7127",
"C. c #B2752D",
"Z. c #B6782B",
"A. c #AA7538",
"S. c #B47B3B",
"D. c #B67A36",
"F. c #AC6D31",
"G. c #895E45",
"H. c #8A755C",
"J. c #926C4C",
"K. c #A87B46",
"L. c #AC7B48",
"P. c #8A7A6F",
"I. c #7C9B4B",
"U. c #7EA152",
"Y. c #7B8B6F",
"T. c #888C3C",
"R. c #BB813D",
"E. c #C2873C",
"W. c #B48142",
"Q. c #BD8A4B",
"!. c #B7874A",
"~. c #B78B56",
"^. c #B0894F",
"/. c #8E8477",
"(. c #B1926D",
"). c #9F8052",
"_. c #C38E4C",
"`. c #C58A44",
"'. c #CA924C",
"]. c #CC9C5D",
"[. c #C89656",
"{. c #D39C57",
"}. c #CD994E",
"|. c #D5A25A",
" X c #C9AA55",
".X c #E2A958",
"XX c #C69B62",
"oX c #CCA369",
"OX c #DAAB6B",
"+X c #D6A766",
"@X c #D9AE75",
"#X c #D6B171",
"$X c #E3AD6A",
"%X c #E9B877",
"&X c #F2BC77",
"*X c #E8B56E",
"=X c #BCCC5E",
"-X c #B0DA6F",
";X c #CBEA6F",
":X c #F6C17E",
">X c #777F85",
",X c #7C8388",
"<X c #8B8B8D",
"1X c #848487",
"2X c #8C8E93",
"3X c #9A9B9D",
"4X c #949695",
"5X c #95928C",
"6X c #AD988C",
"7X c #9DB589",
"8X c #ADA49C",
"9X c #9D9DA1",
"0X c #8C99A6",
"qX c #A29EA9",
"wX c #9CA2A7",
"eX c #A2A2A4",
"rX c #AAAAAC",
"tX c #A5A7AA",
"yX c #ABADB2",
"uX c #B4B4B5",
"iX c #BABBBC",
"pX c #B9B7B7",
"aX c #B1B0B0",
"sX c #C9B094",
"dX c #EABD83",
"fX c #B4DD87",
"gX c #F4C68F",
"hX c #D3C5B8",
"jX c #F1D5B6",
"kX c #BDC0C1",
"lX c #C5C5C7",
"zX c #DCDCDD",
"xX c #D4D5D6",
"cX c #D5CFD2",
"vX c #F1DECC",
"bX c #F6E3D0",
"nX c #DBDFE2",
"mX c #DCE4EC",
"MX c #E3E3E3",
"NX c #E3E8ED",
"BX c #FDFEFD",
"VX c #F7F6F3",
"CX c #F5F1EC",
"ZX c None",
/* pixels */
"ZXZXZXZXZXZXZXZXZXZXZXZXZX                                ZXZXZXZXZXZXZXZXZX        ZXZXZXZXZXZXZXZXZX",
"ZXZXZXZXZXZXZXZXZXZXZXZXZX                                ZXZXZXZXZXZXZXZXZX        ZXZXZXZXZXZXZXZXZX",
"ZXZXZXZXZXZXZXZXZXZXZXZXZX                                ZXZXZXZXZXZXZXZXZX        ZXZXZXZXZXZXZXZXZX",
"ZXZXZXZXZXZXZXZXZXZXZXZXZXZXZX                                ZXZXZXZXZX          ZXZXZXZXZXZXZXZXZXZX",
"ZXZXZXZXZXZXZXZXZXZXZXZXZXZXZXZX                                ZXZXZXX           ZXZXZXZXZXZXZXZXZXZX",
"ZXZXZXZXZXZXZXZXZXZXZXZXZXZXZXZX                                ZXZXZX              ZXZXZXZXZXZXZXZXZX",
"ZXZXZXZXZXZXZXZXZXZXZXZXZXZX                                                          ZXZXZXZXZXZXZXZX",
"ZXZXZXZXZXZXZXZXZXZXZXZXZX                                                              ZXZXZXZXZXZXZX",
"ZXZXZXZXZXZXZXZXZXZXZXZXZX                                                                ZXZXZXZXZXZX",
"ZXZXZXZXZXZXZXZXZXZXZXZXZX                                                                ZXZXZXZXZXZX",
"ZXZXZXZXZXZX      ZXZXZXZX                                                                ZXZXZXZXZXZX",
"ZXZXZXZXZXZX        ZXZXZX                                                                ZXZXZXZXZXZX",
"ZXZXZXZXZXZXZX      ZXZX                                                                    ZXZXZXZXZX",
"ZXZXZXZXZXZXZXZXZX                                                                                    ",
"ZXZXZXZXZXZXZXZXZXZX                                                                                  ",
"ZXZXZXZXZXZXZXZXZXZX                                                                                  ",
"ZXZXZXZXZXZXZXZXZXZX                                                                                  ",
"ZXZXZXZXZXZXZXZXZXZX                                                                                  ",
"ZXZXZXZXZXZXZXZXZX                                                                                    ",
"ZXZXZXZXZXZXZX                                      .                             .             ZXZXZX",
"ZXZXZXZXZXZX                                                                                    ZXZXZX",
"ZXZXZXZXZXZX                                            > < 4 j x m m j 4 < =                   ZXZXZX",
"ZXZXZXZXZXZX                                .           < l A I 0.! T T C k <         .           ZXZX",
"ZXZXZXZXZXZX                                  .         h A 0.i.g.M.c.f.0.A h                         ",
"ZXZXZXZXZXZX                                    .   + j A 0.f.F.R.R.S.C.l.0.C j .   .                 ",
"ZXZXZXZXZXZX                                    > j x I 0.a.B.W.'. X'.R.B.p.0.C h , >                 ",
"ZXZXZXZXZXZX                    .               < b I t.f.f.D._.|.+X|.'.D.g.a.0.D A ZXZX              ",
"ZXZXZXZXZXZX                        + + > +     4 b U u.f.M.R.Q.XX+XXX_.D.M.M.f.y.ZXZXZXZX            ",
"ZXZXZXZXZXZXZX                      = 4 k h ;   > j b T f.M.R.R.^.^.).b.v.v.g.g.g.ZXZXZXZXZX  .       ",
"ZXZXZXZXZXZXZXZXZX        .         ; z B M k +     O n t.B.C.v.t.E P n n R f.g.g.ZXZXZXZXZXZX+ .     ",
"ZXZXZXZXZXZXZXZXZXZX              . x R u.r.F >       4 j.A.C.b.E X       P b.R.R.ZXZXZXZXZXZXZX      ",
"ZXZXZXZXZXZXZXZXZXZX        . = ; l ! b.S.b.! >       b v.W.Q.K.#.` ( 6   P A.[.{.}.ZXZXZXZXZXZXZX  . ",
"ZXZXZXZXZXZXZXZXZX          + < k I b.!.XX~.n.$     i I A.'.XXXX/.1.' ( X E ~.OX*X{.R.h.ZXZXZXZXZXZXZX",
"ZXZXZXZXZXZXZXZXZXZX        + h M t.A.].+XXXJ.5   i B v.W.{.OXsX8X9X>X` @ ! (.%X&X.X`.V.g.ZXZXZXZXZXZX",
"ZXZXZXZXZXZXZXZXZXZX        + l D y.A.[.+XXXK.^ V R v.W.Q.|.#XsXhXlXtX>Xw ! XXgXgX&X|.R.E.ZXZXZXZXZXZX",
"ZXZXZXZXZXZXZXZXZXZXZXZX    + z D y.F.!.'.Q.S.v.b.K.~.[.{.}.#XhXvXmXlX2X[ / XX&X:X&X$X}.`.R.Z.ZXZXZXZX",
"ZXZXZXZXZXZXZXZXZXZXZXZXZX  + b Y e.m.F.S.D.Z.C.R.[.oX+X|.}.#XjXCXBXmXwXX.#.].%XgX*X$XoX[.`.Z.V.ZXZXZX",
"ZXZXZXZXZXZXZXZXZXZXZXZXZX. + j A 0.u.m.M.V.V.C.R.Q.].+X.XE.%XjXVXBXmXyXX.^ ~.%X&X%XOX]._.R.C.V.ZXZXZX",
"ZXZXZXZXZXZXZXZXZXZXZXZXZXZXZX< j b 0.u.p.m.g.g.A.R._.]..X.XdXbXBXBXmX0X_ b ~.*X%X$X].^.S.S.ZXZXZXZXZX",
"ZXZXZXZXZXZXZXZXZXZXZXZXZXZXZXZX  < V 0.y.p.r.t.f.B.C._..X.XgXbXBXBXmX0X7 , W.#X$X{.S.u.u.ZXZXZXZXZXZX",
"ZXZXZXZXZXZXZXZXZXZXZXZXZXZXZXZX    < N Y 7.7.0.e.9.g.D.'.|.gXjXCXBXzX8XW I T.].].L.u.D ZXZXZXZXZXZXZX",
"ZXZXZXZXZXZXZXZXZXZXZXZXZXZXZXZXZX  O : p B D 7.e.8.8.N.E.E.@XgXjXbXjXsX).v.R.'.W.A.e.ZXZXZXZXZXZXZXZX",
"ZXZXZXZXZXZXZXZXZXZXZXZXZXZXZXZXZXZXZXo   i B 7.y.e.6.i.g.D.'.@XgXgXgXsXoX_.Q.S.z.k.ZXZXZXZXZXZXZXZXZX",
"ZXZXZXZXZXZXZXZXZXZXZXZXZXZXZXZXZXZXZX9 8 K Q t.y.6.e.e.f.h.C._.$X*X*X*XOX[.L.u.H ZXZXZXZXZXZXZXZXZXZX",
"ZXZXZXZXZXZXZXZXZXZXZXZXZXZXZXZXZXZXZX,X,X/.H.x.8.8.a.g.d.8.f.V.`.}.{.{.[._.A.s.ZXZXZXZXZXZXZXZXZXZXZX",
"ZXZXZXZXZXZXZXZXZXZXZXZXZXZXZXZXZXZXZXuXyXaX6Xx.8.9.g.V.f.8.7.f.B.A.S.S.A.F.B.ZXZXZXZXZXZXZXZXZXZXZXZX",
"ZXZXZXZXZXZXZXZXZXZXZXZXZXZXZXZXZXZXZXkXiXiX6Xx.7.h.A.A.M.f.e.6.6.6.6.y.e.q.ZXZXZXZXZXZXZXZXZXZXZXZXZX",
"ZXZXZXZXZXZXZXZXZXZXZXZXZXZXZXZXZXZX<XeXtXeXP.~ Y j.K.K.K.W.b.f.7.H H R ~ ~ W ZXZXZXZXZXZXZXZXZXZXZXZX",
"ZXZXZXZXZXZXZXZXZXZXZXZXZX3.3... ...&.*.:.=.} n n +.@.H.(.[.[.R.s.g g ~ #.O.W % ZXZXZXZXZXZXZXZXZXZXZX",
"ZXZXZXZXZXZXZXZXZXZXZXZXZX=.=.;.*.=. .W $       0 ` ..P.(.+X+X_.M.5.~ #.=.%.` %   ZXZXZXZXZXZXZXZXZXZX",
"ZXZXZXZXZXZXZXZXZXZXZXZX=.:./.2X4X<X<. .$       7 ) ` &./.~.XXsX6X(.5XP.*.X.` #   : ZXZXZXZXZXZXZXZXZX",
"ZXZXZXZXZXZXZXZXZXZXZX[ &.1.<X3XeXrX4X<.X.e % X X 7 8 [ O.H.(.sXcXcXhXeX,.` 8   O k 7.y.s.4.4.ZXZXZXZX",
"ZXZXZXZXZXZXZXZXZXZXo.$.<.<X3XtXuXuXrX5X;.| t $       0 t W P.uXvXCXnXyX,.r 7   * N 0.e.s.4.s.4.ZXZXZX",
"ZXZXZXZXZXZXZXZXZX1X1XtXuXuXkXkXlXiXtX<X*.[ e $         # _ >.yXnXCXnXyX,.] w 8 m F e.a.F.D.b.b.ZXZXZX",
"ZXZXZXZXZXZXZXZX<.3XuXxXMXMXMXxXlXiX3X<.X.0 # @       @ 8 ` ,.9XkXcXlX9X,. .| o.} Q w.m.L.'.~._.ZXZXZX",
"ZXZXZXZXZXZXZX] P.aXxXCXBXBXVXNXlXtX1X=.e .           # t | ,.2XqXyXqX<X,.$.$.3.O.+.w.l._.+X+XOXZXZXZX",
"ZXZXZXZXZXZX .&.wXxXCXBXBXBXVXMXlX3X,. .%     > < = * u J | Y.2X4XwX<X<.%.$.&.;.=.+.w.l.`.+XOX@XZXZXZX",
"ZXZXZXZXZX*.,.1XiXMXBXBXBXVXnXlXrX<X=.[ = = i l b z z n K e | Y.7XfX-XY. .{ $.>.-.@.x.u.L.{.{.{.ZXZXZX",
"ZXZXZXZX..,.1XeXkXMXBXBXCXxXuXeX2X<.3.W 2 i z S I U S S p = L T.-XfX-XU.J 7 o.>.2.G.x.9.Z.E.`.`.ZXZXZX",
"ZXZXZXO.=.<XeXaXlXNXVXBXnXpX4X>X,.&.[ J f s B I U 0.0.S p X 3 I.-X;X-XI.> 6 _ %.-.+.j.9.g.Z.Z.Z.ZXZXZX",
"ZXZX,.1.1XqXyXiXlXzXMXnXlXtX1X=.$.[ J q f s z C S S S V :   & I.=X;X=XT.&   ) %.H.G.x.9.g.V.m.m.ZXZXZX",
"&.=.<.1X4XtXuXiXlXlXlXiXyX3X<.3.[ e 1 2 d a h v h x v s     3 n. X#X XT.>   6 ZXZXx.w.a.g.g.p.p.ZXZXZX",
"&.=.<.2X9XtXuXpXpXaXtX3X<X<.3.[ y     * , a a , a a a ,     5 n.^.}.!.x.>   ZXZXZXZXe.y.d.y.q.q.ZXZXZX",
"*.:.<.<X4X9X9XeX9X3X2X1X1.;...] $     * , f j v l c c b h , j ! b.S.A.! 1 ZXZXZXZXZX6.e.q.6.6.ZXZXZXZX",
";.:.:.1.,X,X,X,X1X1X>X>X,.ZXZXZXZXZXO * d h c C S I T I Z N C E x.x.! ^ ZXZXZXZXZXZXZXZXZXZXZXZXZXZXZX",
"=.=.*.=.=.=.=.=.*.;.,.=.*.ZXZXZXZXZXZX; , v Z I 0.0.e.e.q.T U Z V h , ZXZXZXZXZXZXZXZXZXZXZXZXZXZXZXZX",
"@.-.@.@.@.@.H.H.H.H.H.#.+.ZXZXZXZXZXZX; , c Z U 0.e.y.y.y.r.w.S d     ZXZXZXZXZXZXZXZXZXZXZXZXZXZXZXZX",
"G.G.G.J.K.).~.(.(.(.J.~ ~ ZXZXZXZXZXZX; , c Z T 0.q.6.y.p.l.k.w.l O   ZXZXZXZXZXZXZXZXZXZXZXZXZXZXZXZX",
"r.k.l.N.A.Q.].+X+X[.K.w.D ZXZXZXZXZXZX; , x C T 0.0.q.y.p.c.c.j.F : . ZXZXZXZXZXZXZXZXZXZXZXZXZXZXZXZX",
"5.s.8.h.g.E.}.+X].!.l.4.ZXZXZXZXZXZXZX< , v V Z S 0.0.y.l.N.m.k.R l d ZXZXZXZXZXZXZXZXZXZXZXZXZXZXZXZX",
"ZXZX8.d.g.Z.`.'.!.A.f.ZXZXZXZXZXZX; ; ; : f v c Z S 0.q.p.N.N.z.q.Z N l a ZXZXZXZXZXZXZXZXZXZXZXZXZXZX",
"ZXZXZXy.y.M.V.F.v.v.ZXZXZXZXZXZX: , : : , , , a z C S q.k.N.N.l.u.0.S l a ; ZXZXZXZXZXZXZXZXZXZXZXZXZX",
"ZXZXZXq.q.7.7.5.4.ZXZXZXZXZXZXZXs v x v h f , : d z C R r.k.c.c.p.y.0.Z s - ZXZXZXZXZXZXZXZXZXZXZXZXZX",
"ZXZXZXZX0.5.5.4.ZXZXZXZXZXZXf v c V C V V c j , d s c Z R r.i.l.l.l.r.G d = ZXZXZXZXZXZXZXZXZXZXZXZXZX",
"ZXZXZXZXZXZXZXZXZXZXZXZXZX- a c C S U I I C c a , , f c C T w.i.l.N.k.G , . ZXZXZXZXZXZXZXZXZXZXZXZXZX",
"ZXZXZXZXZXZXZXZXZXZXZXZXZX; s N S 0.0.0.T I V f ; ; ; a l Z T r.l.N.z.R v - ZXZXZXZXZXZXZXZXZXZXZXZXZX",
"ZXZXZXZXZXZXZXZXZXZXZXZXJ 2 a M U q.q.q.0.I V h : ; ; a l B 0.u.c.N.l.w.C l v ZXZXZXZXZXZXZXZXZXZXZXZX",
"ZXZXZXZXZXZXZX........ .J q , N U e.y.e.0.I V v : : : h N S 0.i.m.N.v.k.0.D c s ; ZXZXZXZXZXZXZXZXZXZX",
"ZXZXZXZXZXZX . .......o.{ q h M U q.q.q.T S c f : ; , f l A T r.c.v.c.p.e.0.Z v ; ZXZXZXZXZXZXZXZXZXZX",
"ZXZXZXZXZXZX[ {  .| | [ K K z A Y T T U S V c j : ; , h l N I w.r.l.l.l.p.q.S k 1 q ZXZXZXZXZXZXZXZXZX",
"ZXZXZXZXX.[ { e e y w y K F S S Z C C V V x h ZXZXZXZXZXh h V T w.r.i.l.m.r.S d 1 t o...$...X.ZXZXZXZX",
"ZXZXZX..X. .r $       > x S T S c d d d f , ZXZXZXZXZXZXZX: s V S T r.c.N.k.S s 1 ] o....... . .ZXZXZX",
"ZXZXZX..X...` +       . k A T Z v ; = * : : ZXZXZXZXZXZXZX= : h z D q.z.N.z.0.B n W o.| X.X.{ { ZXZXZX",
"ZXZXZX.... .r %         d N V c v ZXZXZXZXZXZXZXZXZXZXZXZXZXZXd s c R z.N.N.i.0.G K J e w t y y ZXZXZX",
"ZXZXZX.. . .W $         ; a s h ZXZXZXZXZXZXZXZXZXZXZXZXZXZXZXZX- f R k.N.m.l.y.w.F 5 X X X o o ZXZXZX",
"ZXZXZX.. .o.r %     $ 0 u < ; ZXZXZXZXZXZXZXZXZXZXZXZXZXZXZXZXZX. , F w.z.c.i.e.I k *     # % % ZXZXZX",
"ZXZXZX.. ...r o   0 r ] t u ZXZXZXZXZXZXZXZXZXZXZXZXZXZXZXZXZXZX* , A 0.y.e.0.Z l , .   $ ` J W ZXZXZX",
"ZXZXZX..X.X.r     e [  . .ZXZXZXZXZXZXZXZXZXZXZXZXZXZXZXZXZXZXZX; a N Y 7.Y V 4 +     o r |  . .ZXZXZX",
"ZXZXZX..X.[ t 0 0 { X.....ZXZXZXZXZXZXZXZXZXZXZXZXZXZXZXZXZXZXZX: a x F Q Q m       o 0 r  .....ZXZXZX",
"ZXZXZXZXZXo.] t ]  .........ZXZXZXZXZXZXZXZXZXZXZXZXZXZXZXZXZXZXZXa K ^ +.W m     9 t W [  .ZXZXZXZXZX",
"ZXZXZXZXZXZX[ o...O....... .X. .ZXZXZXZXZXZXZXZXZXZXZXZXZXZXZXZXZXZXZX .O.} y     r | o. .ZXZXZXZXZXZX",
"ZXZXZXZXZXZXZXX.X.X.X. . ... . .ZXZXZXZXZXZXZXZXZXZXZXZXZXZXZXZXZXZXZX..o.[ t % 0 _  ...ZXZXZXZXZXZXZX",
"ZXZXZXZXZXZXZX......X. . . . .ZXZXZXZXZXZXZXZXZXZXZXZXZXZXZXZXZXZXZXZXZXX.| J y t {  ...ZXZXZXZXZXZXZX",
"ZXZXZXZXZXZXZXZXZXZXZXZXZXZXZXZXZXZXZXZXZXZXZXZXZXZXZXZXZXZXZXZXZXZXZXZXZXZX[ [ [ [ ZXZXZXZXZXZXZXZXZX",
"ZXZXZXZXZXZXZXZXZXZXZXZXZXZXZXZXZXZXZXZXZXZXZXZXZXZXZXZXZXZXZXZXZXZXZXZXZXZX . .X.X.ZXZXZXZXZXZXZXZXZX",
"ZXZXZXZXZXZXZXZXZXZXZXZXZXZXZXZXZXZXZXZXZXZXZXZXZXZXZXZXZXZXZXZXZXZXZXZXZXZX .X...ZXZXZXZXZXZXZXZXZXZX"
};
