/* XPM */
static char *_3780630f60f4afccf44356fb7189d44BQwR4aAN8s3mVXJ7[] = {
/* columns rows colors chars-per-pixel */
"46 96 256 2 ",
"   c None",
".  c #000000",
"X  c #080709",
"o  c #160200",
"O  c #010614",
"+  c #141717",
"@  c #02161C",
"#  c #290101",
"$  c #330C03",
"%  c #340502",
"&  c #3B1303",
"*  c #381609",
"=  c #2A1713",
"-  c #352913",
";  c #051326",
":  c #11242A",
">  c #262727",
",  c #353434",
"<  c #3A3A3A",
"1  c #332D2D",
"2  c #2A0E2A",
"3  c #431A04",
"4  c #481B03",
"5  c #4A0007",
"6  c #4C2205",
"7  c #4B2308",
"8  c #532505",
"9  c #5A2D09",
"0  c #572A05",
"q  c #4E2C13",
"w  c #64340B",
"e  c #6D3A0B",
"r  c #683605",
"t  c #733D0C",
"y  c #773C03",
"u  c #663813",
"i  c #6B3204",
"p  c #50352B",
"a  c #740600",
"s  c #344914",
"d  c #76410D",
"f  c #7B440E",
"g  c #784203",
"h  c #794414",
"j  c #46403E",
"k  c #54473C",
"l  c #744B30",
"z  c #68712A",
"x  c #2A3848",
"c  c #3C4447",
"v  c #3F525E",
"b  c #005E5C",
"n  c #434444",
"m  c #4C4C4C",
"M  c #454747",
"N  c #534B48",
"B  c #555555",
"V  c #5A5B5A",
"C  c #56585A",
"Z  c #4B5353",
"A  c #6C564E",
"S  c #7A655A",
"D  c #6D7056",
"F  c #6B6B6C",
"G  c #646667",
"H  c #737374",
"J  c #77797C",
"K  c #72706C",
"L  c #566762",
"P  c #483A44",
"I  c #833A00",
"U  c #962E00",
"Y  c #A03200",
"T  c #8B4C02",
"R  c #874909",
"E  c #964A02",
"W  c #985806",
"Q  c #844B13",
"!  c #8A4E13",
"~  c #864C1A",
"^  c #8D5114",
"/  c #8C531D",
"(  c #91551A",
")  c #95591E",
"_  c #975917",
"`  c #8F4F0B",
"'  c #A85A01",
"]  c #A65F13",
"[  c #9B641F",
"{  c #AB6601",
"}  c #B56C00",
"|  c #B67504",
" . c #A5651A",
".. c #B3731A",
"X. c #AE6E12",
"o. c #895528",
"O. c #955B22",
"+. c #9B5E23",
"@. c #965828",
"#. c #844F30",
"$. c #AA572A",
"%. c #AA532F",
"&. c #9D6124",
"*. c #9B632B",
"=. c #9B6836",
"-. c #AB6C24",
";. c #A26529",
":. c #AD632A",
">. c #A76826",
",. c #B16C2D",
"<. c #B16A2B",
"1. c #AD7329",
"2. c #B2742C",
"3. c #B67727",
"4. c #A46935",
"5. c #B36E31",
"6. c #AB7539",
"7. c #B47532",
"8. c #B47932",
"9. c #BB7C33",
"0. c #B7793B",
"q. c #C17C1A",
"w. c #8E5E44",
"e. c #8F6C50",
"r. c #AB7644",
"t. c #B77B45",
"y. c #AA7451",
"u. c #887264",
"i. c #AE7D6F",
"p. c #B88A09",
"a. c #BA882A",
"s. c #BB8438",
"d. c #BE9836",
"f. c #B69128",
"g. c #B9A32A",
"h. c #C48702",
"j. c #C89212",
"k. c #C6A904",
"l. c #CCB815",
"z. c #C9B00B",
"x. c #C38234",
"c. c #C48939",
"v. c #C7983A",
"b. c #C88E2F",
"n. c #C5A73A",
"m. c #CFB030",
"M. c #D7CC0E",
"N. c #D7C83A",
"B. c #D9CF2E",
"V. c #E1DF22",
"C. c #93894F",
"Z. c #BA8648",
"A. c #BA8755",
"S. c #B38A50",
"D. c #B7B352",
"F. c #BA9466",
"G. c #B48E6A",
"H. c #8FA366",
"J. c #C28C4C",
"K. c #C58B44",
"L. c #C99549",
"P. c #D49847",
"I. c #C48C56",
"U. c #C99757",
"Y. c #D19B5A",
"T. c #D4A748",
"R. c #CCB648",
"E. c #D5A559",
"W. c #D7B759",
"Q. c #CEAE50",
"!. c #E4AF55",
"~. c #C69564",
"^. c #D29E68",
"/. c #C79473",
"(. c #CCA468",
"). c #D2A364",
"_. c #D7A969",
"`. c #DAB666",
"'. c #D7A974",
"]. c #D3AE75",
"[. c #E9B672",
"{. c #ABD470",
"}. c #D4C749",
"|. c #DAD64A",
" X c #D9C756",
".X c #DED657",
"XX c #CDCF4F",
"oX c #E4DB5A",
"OX c #E4CE4C",
"+X c #E5E758",
"@X c #E8EE56",
"#X c #DAC565",
"$X c #CFCF73",
"%X c #E2D664",
"&X c #E4D674",
"*X c #E6C96F",
"=X c #D0E56E",
"-X c #E5E665",
";X c #E9EA77",
":X c #EDEB70",
">X c #DEE058",
",X c #7A7E82",
"<X c #7D8489",
"1X c #699B9F",
"2X c #64989F",
"3X c #878889",
"4X c #979799",
"5X c #8C8F90",
"6X c #AE978E",
"7X c #9AA994",
"8X c #ACB58C",
"9X c #9D9EA1",
"0X c #A6A6A8",
"qX c #B3B4B4",
"wX c #BBBABD",
"eX c #ADAFB4",
"rX c #A1A0A6",
"tX c #C69C8C",
"yX c #C7A68A",
"uX c #D6AC86",
"iX c #DAB88A",
"pX c #C9AB98",
"aX c #DAB895",
"sX c #E2B791",
"dX c #D0BAB0",
"fX c #E2BEA0",
"gX c #B6CD91",
"hX c #DAC692",
"jX c #E6C398",
"kX c #EDCB8E",
"lX c #ECED90",
"zX c #DCC5BC",
"xX c #DDC6A8",
"cX c #E6CBB5",
"vX c #EAD3B2",
"bX c #F4F8B8",
"nX c #EFEFAA",
"mX c #BCBEC1",
"MX c #C9C9CA",
"NX c #D5D5D7",
"BX c #CED0CD",
"VX c #EBD8C7",
"CX c #E8D9D6",
"ZX c #E8D4CE",
"AX c #F7FCC9",
"SX c #F4E6D6",
"DX c #F8F8D6",
"FX c #F0E5CD",
"GX c #D1DBE2",
"HX c #E9E9E9",
"JX c #F4E8E5",
"KX c #FBFBE9",
"LX c #FDFCF4",
"PX c #FEFEFD",
"IX c #F6F4F4",
"UX c #F3EEF1",
/* pixels */
"                        8.8.8.            9.8.8.8.                                          ",
"                        8.8.8.            8.8.8.8.                                          ",
"                        8.8.2...          8.8.8.2.                                          ",
"                        0.8.3.} '           8.9.2.1.1.              9.7.                    ",
"                        8.8.a.q...}         0.x.c.9.5.7.            8.8.7.                  ",
"                        | 1.I.sXfXtXtX    } 2.x.P.P.K.t.            7.9.7.                  ",
"                        ' } '.ZXJXZXdX0.Y ' ..t.I.Y.I.K.0.2.        ,.5.<.                  ",
"                        ' ' uXSXPXIXzXA.' ' ..s.U.^.^.Y.K.2.        ,.5.5.                  ",
"                        ' } uXVXLXLXFXfX/.I.t.s.T.`.`.`.P.2.:.    d.d.v.d.                  ",
"              $.:.<.3...' X.(.kXbXDXDXDXCXpXy.| n. X%X XP.,.$.%.<.z.l.l.l.b.7.              ",
"            <.,.<.5.9.5.-.1.L.}.+XlXDXLXUXzXi.| l.oX>X Xd.,.$.$.a.m.B.@XN.v.5.%.            ",
"            d.n.T.v.c.9.5.3.f.z.M.;XAXLXUXzX/.h.B.+X+X}.d.,.2.x.Q.%XlXlXlX!.3.'             ",
"        2.v.R.}.OX!.v.x.5.5.3.h.k.#XxXVXZXaXI.j.B.@X@X}.s.<.p.l..XnXAXDXvX`.' Y             ",
"      $.3.n.}.+X+X XT.L.9.5.2...a.L.(.uXuX_.Y.T.}.+X-X}.s.5.k.B.;XbXLXPXJXuX' Y             ",
"      :.9.!.OX+X-XkXhX].(.Z.a.X.:.2.a.T.E.[.iXhX&X>X|.m.d.d.m.B.;XbXIXIXJXxX/.J.            ",
"      <.x.!.OX#XlXnXFXFXhXN.k.p.:.7.z.B.%XvXFXCXxXW.k.M.}.}.|..X%XlXnXAXFXSXBXdXyX          ",
"      -.9.P.m.!.vXSXIXKXnX+XM.k...a.l.V.lXAXLXIXMXI.p.k.|.+X#X`.`. X+XlXbXKXIXCXpX..'       ",
"      1.8.s.x.^.fXSXIXLXAXlX%XR.Z.a.l.B.lXAXLXIXZXtXI.R.oX+XoX`._. X>X;XAXLXIXJXfXq.'       ",
"        8.9.3.L.uXcXSXDXDXAXbXhXJ.h.l. XlXnXAXDXFXBXdXaXR.M.l.|.&XlXnXAXAXDXFXcXuX3.{       ",
"            3.9.Y.^.sXvXKXLXKXcX).h.T.W.#X-X;XnXDXIXHXzX~.p.k.M.;XbXKXLXJXvXsX[.Y.5.}       ",
"            <.2.x.h.v.sXSXIXIXFXsX'.^.^.E.B.M.:XAXLXLXCXtXZ.k.B.:XbXLXPXCXfXv.h.b.5.3.      ",
"            ,.2.j.| h.'.cXSXJXSXFXcXaX~.v.z.B.%XnXAXDXSXBXdXhXW. XjXFXSXcXuX| | | } }       ",
"            7.8.x...8.I.^.aXvXSXIXJXzXF.| b.T.*X&X;XnXAXKXJXBX].v.E.aXaXuX~.3.} } ' '       ",
"            8.8.x.9.7.9.h.v.aXFXPXIXzX~.} 9.~.`.B.V.:XAXLXIXZX/.{ | L.E.L.c.8.K.I.I.I.      ",
"            2.8.c.K.J.K.p.h.'.cXSXSXfX/.3.0.I.Y.B.M.@XnXFXCXdXi.E ' a.b.b.b.I.yXdXdXdXpX    ",
"            2.2.L.Y.^.Y.c.3.A.uXaXxXuX^.I.Z.t.c.m.@X@X:XhXtXi.w.T W 2.c.c.v.).cXSXUXCXpX9.' ",
"            1.2.L.^.).E.J.8.0.L.E._.`.'._.I.0.s.}..X@X}.f.' W ` ( +.>.8.x.v.'.vXLXPXHXaX3.} ",
"            2.7.K.U.U.U.K.s.x.c.P.E. X*X#XE.Z.K.Q. X}.z.{ Y E 4.r.4._  ...x.).vXDXDXFXiXx.} ",
"            2.9.x.t.t.0.c.b.P.L.E.`.#X-X%X#X).I.A.Q.d.X.T I 4.A.U.y.+.E W ,.L.$XlXnXlX_.8.X.",
"            8.7.x.3.2.Z.Y._.'._.).`.%X+X+X%X`.^.I.s.1._ T *.S.(._.U.=.! ` $.8.R.|.@X|.n.8.:.",
"            7.7.b.j.m.`.hXcXcXfX'.W.W.|.|..X#X#XU.0.<.1.f.g.Q.#X#XW.S.=.%.@. .g.N.|.N.v.8.5.",
"            :.9.T.M.OXlXFXUXSXcXiXT.v.n.n..X-X%XR.s.8.d.XXXX>X>XoX#X).A.%.~ T a.Q. XW.L.7.<.",
"            $.7.m.M.@XlXDXPXIXVXiXP.9.5.s.}.>X+X}.s.a.n.oX@X@X+X+X%X`.).A.=.^ 6.~._.).Z.8.3.",
"              7.b.M.|.lXAXKXDXxX(.9.0.t.Z.R.|.|.n.1.8.D..X:X=X=X=X$X*X*XE.Z.r.y.A.I.A.Z.8.2.",
"                d.j.n.&XnXbXnXhXS.4.t.U.E.Q.R.v.f.` [ Z.W.#X$X].8X$X=XoXoX`.).I.r.4.4.6.8.8.",
"                  :.8.T.+X@X>XD.&.@.A.(._.U.Z.1.W T O.Z.E.].tX9X6XhX=X@X:XkX[.^.r.` T >.8.8.",
"                    %.a.l.M.M.p.T / y.).).I.7.:.*.=.6.Z.Y.'.pXwXmXgX=X>XoX&XsX[.A.=.&.1.8.9.",
"                      a.m.m.m.p.T ~ 6.Z.L.s.7.7.Z.S.U.U.Y.'.zXCXGXBX7XH.(.*X[.[._.A.Z.c.x.x.",
"                        s.s.x.-.^ ^ >.8.s.8.1.Z.L.(._.E.P.'.VXLXPXGX1XL C.'.sX*X[._.U.K.0.3.",
"                          $.:.+.) [ ;.>.>.>.>.s.Z.Y._.E.!.iXFXPXIXGX2Xb u.[.[.[.`.Y.U.Z.8.2.",
"                            :.1.1.2.-._ _ _ ) 4.s.Z.Y.E.!.kXSXLXIXGX2Xb D `.*X[.Y.Z.r.6.    ",
"                              8.8.9.-.( ! ` ^ _ &.3.Z.T.!.kXSXLXIXGX1Xb D (.`.^.K.O.T       ",
"                                9.7.>._ ` T R ^ ` W 9.K.!.sXvXJXKXBX7XL C.F.U.Z.*.I         ",
"                                  3.{ { ' W ` ! R W >.8.I.'.jXFXFXcXaXH.S.A.S.4.*.          ",
"                                    X.} | X.^ ! R ! ) ;.2.J.[.sXkXkX[.(.U.Z.O.`             ",
"                                      G.F.r.@.T T ` ( W ] 2.K.E.!.[._.Y.S.*.I               ",
"                                      pXpXG.=.T W  . .W E W -.s.K.L.J.Z.6.;.                ",
"                                    MXmXdX6Xe.E W 3.1. .W R ( +.*.:.<.&.[                   ",
"                                    qXqXqX4Xw.g W s.6.6.=.O.R R I I ~ ~ ~                   ",
"                            V     K <X5X3XK l r l e.y.S.S.Z. .I a i #.A A ,                 ",
"                          G G V V V B m j 1 & p m G H.G.(.).a.E a t A F B 1 .               ",
"                        F F H.3X,XF Z + . . . @ x v G G.(.(.~.y.e.u.H G Z , . .             ",
"                      V F ,X5X9X9X4XH m + . . O ; x V u.S./.8XdXdXrX3XV c : X # r           ",
"                    P V ,X<X9X0XqX0X5XK Z , + . O ; < k D 5XzXNXHXMX4XV , @ . 3 g ^ ` T I y ",
"                  K J 4XrXeXeXwXmXeX4XH B < > . . . O @ , <XwXHXIXNX9XC > : = 0 f _ _ +.&.&.",
"                3X9XqXMXNXNXNXMXdX0X5XF c > @ . . . X : c J eXGXCXmX5XG M M j k ~ _ >.t.Z.J.",
"              m 5XwXNXIXIXIXUXNXwX4XH m . . . . . . @ c B J 9XeXmXrX<XG L L V A l _ 6.A.E.).",
"            M G 0XNXIXPXPXPXUXNX0X3XG 1 . . o o . . > p B F 1X7X9X5XJ G G G F A l ( 6.U._.`.",
"          K K 5XMXHXPXPXPXUXNXmX9XH V 2 . % 6 0 0 8 p p j L H.7X8XH.F Z C G H S #.) 1.A.).).",
"        V J 3X0XBXUXPXPXHXBXqX9X3XK N 1 % 8 i d g y u 5 = N H.{.gX{.D > x G K u.l ^ >.0.J.J.",
"      V G 5X9XqXNXHXPXUXBX0X3X,XF V j - 4 i h h Q h d 5 . s H.=X=X{.z . ; C ,XA #.^ _ 1.2.8.",
"    H H 3X0XqXwXBXHXHXNXmX4XH L V j p - 4 0 e t d t i % . s H.XX=XD.z . ; v G u.#._ '  . .-.",
"G F J 3X4X0XqXwXMXMXMXmX0X3XF C M > = 3 4 4 8 0 0 0 6 . . s C.Q.XXD.z . O     w.o._ ]  . .>.",
"G F u.5X9XeXqXwXqXeX0X5X3XH B c + . # & 3 4 4 * 3 4 & . X - =.I.I.C.l . O       ` ^ _ ^ ! ^ ",
"F H ,X3X4X9XrXrX9X4X5X,XH G m 1 . . # & 4 7 7 0 0 9 0 4 $ q o.6.t.=.l .           ^ ! Q R Q ",
"F F H ,X,X<X<X<X<X<X,XH H           # & 7 9 u t t h d e r w l o.o.l                         ",
"G G G F F F F F F K H F             $ & 8 e t Q ! ! ! Q f d e 9 4 *                         ",
"F S S S D e.u.K u.u.S A               & 8 e d Q ^ ( ( ( _ ! r 5 . .                         ",
"w.w.=.e.r.S.G.F.F.S.w.l               & 8 e f ! ! ^ ( ) &.) h 6 . .                         ",
"^ o.O.>.6.J.E._.(.Z.*.g             $ & 8 w t Q Q ! ^ +.&.*.o.w # o                         ",
"T T W { 3.c.Y.E.U.6.W I             $ & 7 9 e d f Q ^ +.4.*.o.t 7 4                         ",
"    W W  .9.K.Z.t.4.            $ $ $ $ 3 6 9 w t R ^ +.>.;.O.Q e w 8 &                     ",
"      ^ ^  .:.+.O.              & & & * 3 & * 8 r t ~ ) *.*.&.( Q e 0 & #                   ",
"      ! ! T R I I             7 7 9 9 0 7 3 $ 3 8 r h / O.&.) [ ( Q e & #                   ",
"                            8 9 w t e e w 8 3 & 4 0 e h ~ / +.;.O.~ w % .                   ",
"                          & 8 w t f f f e w 7 & & & 8 w d Q _ ;.@.~ u # .                   ",
"                        - 3 0 y Q Q ! Q d w 7 & % $ 3 0 e f ) *.;.O.t 6 3                   ",
"                V   V N 1 = 8 y Q ^ ^ R f e 8 & $ $ 4 0 y Q ) >.;.+.~ w 0 8                 ",
"            C B C V V m p 2 4 y ! ^ ! R d w 8 & $ & 6 r t ^ O.&.;.+.( Q e 0 & #             ",
"            Z B V V C m p q 0 y Q ! Q f t 9 7 & $ $ 7 9 e f / O.+.+.) ( f i 3 =             ",
"          m n n M c c j p u i e t t t t w 0 6       6 8 9 t Q / O.O.+.) Q r $ > P           ",
"      V B m < > + @ + q u d g e 9 0 8 9 7 7           3 3 9 t h ^ ) $.&.~ 0 = , m V V V V V ",
"      V V B , . . . . & r d d w * # % * &               # 3 8 r f O.*.;./ r 7 p m C V C B B ",
"      C C B < . . . . # 0 t u 9 & o # %                   & 4 8 e / *.;.) R d p k n c n n c ",
"      V B B , X . . . o 4 8 8 8                             & 3 9 ~ *.;.*.) f h q > @ + + + ",
"      V B m , X . . + = * & &                                 # 7 h O.&.[ _ ! r 6 . . . X + ",
"      V C B , . . > , , 1 %                                   # 6 d / _ ^ Q d 0 # . X > , < ",
"      V V B 1 . + < m m                                       $ 7 g g R g w * # . . : n B B ",
"      V B m , + > m B V                                       $ 4 u t t u * . . . + , m B B ",
"        B m < , n V V V V                                       3 l l A p + . X > < n m V G ",
"            m m V V V V V B B                                     N B A N = . : M m B       ",
"            B B V B B B V V B                                       V B M > X , Z C V       ",
"              V V V B B B B B                                         Z n , , < m V         ",
"                                                                        m m M m B           ",
"                                                                          B B B             ",
"                                                                          V V V             "
};
