/* XPM */
static char *_b271e2b9ab948e68e93dfa5df78f82aJvCATsYS55kAlmeB[] = {
/* columns rows colors chars-per-pixel */
"50 96 256 2 ",
"   c None",
".  c #000000",
"X  c #050208",
"o  c #190100",
"O  c #05141B",
"+  c #161717",
"@  c #000411",
"#  c #2A0201",
"$  c #350C03",
"%  c #370702",
"&  c #3B1303",
"*  c #371706",
"=  c #311414",
"-  c #041027",
";  c #102830",
":  c #262828",
">  c #393838",
",  c #302C2C",
"<  c #321924",
"1  c #441A04",
"2  c #471B02",
"3  c #4D1300",
"4  c #4D2305",
"5  c #4D2308",
"6  c #532503",
"7  c #5A2C08",
"8  c #562907",
"9  c #532F14",
"0  c #64330B",
"q  c #6D3A0B",
"w  c #683504",
"e  c #733E0D",
"r  c #753D02",
"t  c #6A3B15",
"y  c #6E2A05",
"u  c #453939",
"i  c #4E342A",
"p  c #710B00",
"a  c #7C440E",
"s  c #77410A",
"d  c #7B4511",
"f  c #7A4515",
"g  c #4E473D",
"h  c #6F492E",
"j  c #637131",
"k  c #464D0F",
"l  c #2C2D45",
"z  c #3E4345",
"x  c #354953",
"c  c #095E50",
"v  c #434444",
"b  c #4C4C4C",
"n  c #484848",
"m  c #555555",
"M  c #5A5B5B",
"N  c #56585A",
"B  c #4F4D50",
"V  c #6C574F",
"C  c #5E685B",
"Z  c #79665A",
"A  c #696D59",
"S  c #565C62",
"D  c #5A6164",
"F  c #626362",
"G  c #6A6B6B",
"H  c #68696A",
"J  c #737374",
"K  c #79797B",
"L  c #6F6E6D",
"P  c #615E62",
"I  c #843A01",
"U  c #9B2C00",
"Y  c #A12A00",
"T  c #884907",
"R  c #965605",
"E  c #844B12",
"W  c #8A4E12",
"Q  c #864E1C",
"!  c #8D5115",
"~  c #8D531B",
"^  c #87511E",
"/  c #92561B",
"(  c #95591B",
")  c #9A5C1C",
"_  c #965715",
"`  c #954C09",
"'  c #A54B00",
"]  c #A95800",
"[  c #A35E14",
"{  c #9A6410",
"}  c #AC6702",
"|  c #B36E00",
" . c #B87705",
".. c #A6651B",
"X. c #B6761B",
"o. c #AD7219",
"O. c #945A22",
"+. c #9B5E22",
"@. c #925825",
"#. c #87522B",
"$. c #AB5B2B",
"%. c #A74F2F",
"&. c #9D6125",
"*. c #9C632B",
"=. c #9D6C35",
"-. c #A26425",
";. c #AB6B24",
":. c #AC6B2B",
">. c #A86529",
",. c #B16B2D",
"<. c #AE7129",
"1. c #B27325",
"2. c #B2742C",
"3. c #B97A2C",
"4. c #A46B36",
"5. c #AB7537",
"6. c #B37431",
"7. c #B57933",
"8. c #BA7D34",
"9. c #B67939",
"0. c #B26B33",
"q. c #C17A00",
"w. c #C17F34",
"e. c #906F53",
"r. c #AC7644",
"t. c #B57A45",
"y. c #AC7452",
"u. c #877566",
"i. c #906551",
"p. c #C07C48",
"a. c #678253",
"s. c #BA8F08",
"d. c #B88628",
"f. c #BB8438",
"g. c #BC9536",
"h. c #B39029",
"j. c #BDAD00",
"k. c #C5890C",
"l. c #C9B00C",
"z. c #C4862B",
"x. c #CA9626",
"c. c #C48638",
"v. c #C69737",
"b. c #D29D38",
"n. c #C6A639",
"m. c #CCAE2F",
"M. c #D6CB10",
"N. c #D7C737",
"B. c #DAD431",
"V. c #E2E138",
"C. c #998A5A",
"Z. c #BA8546",
"A. c #BA8956",
"S. c #AB894F",
"D. c #AEAE50",
"F. c #B99268",
"G. c #97A56A",
"H. c #C58B47",
"J. c #C99649",
"K. c #D39847",
"L. c #C48D55",
"P. c #C59354",
"I. c #CA9859",
"U. c #D19B59",
"Y. c #C9A745",
"T. c #D5A74B",
"R. c #D7B946",
"E. c #D6A559",
"W. c #D7B956",
"Q. c #CBAE51",
"!. c #CA9A64",
"~. c #CB996D",
"^. c #CEA365",
"/. c #D6A867",
"(. c #DAB767",
"). c #D7AB7A",
"_. c #D8B376",
"`. c #CBB074",
"'. c #E9B777",
"]. c #EAB570",
"[. c #E1AA51",
"{. c #ABD571",
"}. c #D5C74A",
"|. c #DBD749",
" X c #DAC956",
".X c #DCD954",
"XX c #CBC549",
"oX c #E3D95A",
"OX c #E3CD50",
"+X c #E4E558",
"@X c #E7EB51",
"#X c #DCC664",
"$X c #D4D26E",
"%X c #E4D866",
"&X c #E5D879",
"*X c #E9CA6E",
"=X c #E6E767",
"-X c #E6E577",
";X c #D3E563",
":X c #027B88",
">X c #7C7E81",
",X c #7D8388",
"<X c #7D9283",
"1X c #588D82",
"2X c #3B8687",
"3X c #858587",
"4X c #989899",
"5X c #8E8F92",
"6X c #AF9895",
"7X c #B2AE8E",
"8X c #9E9DA1",
"9X c #A6A6A8",
"0X c #B7B6B8",
"qX c #B3AFB2",
"wX c #9FA898",
"eX c #C59C86",
"rX c #C7A287",
"tX c #DAB386",
"yX c #DBB895",
"uX c #D0AB91",
"iX c #E3BA92",
"pX c #D5B9A7",
"aX c #D1B8B3",
"sX c #B9C4B9",
"dX c #B4D18E",
"fX c #D9CC8B",
"gX c #E8CB8F",
"hX c #EDF38B",
"jX c #EDF293",
"kX c #EEED94",
"lX c #DCC3B0",
"zX c #E6C9AA",
"xX c #E6C9B5",
"cX c #EDD5B0",
"vX c #F3F7B9",
"bX c #F0F0AE",
"nX c #BCB9C2",
"mX c #AEC4C9",
"MX c #C8C7C9",
"NX c #D6D7D9",
"BX c #DAC9C6",
"VX c #EAD8C9",
"CX c #E9DAD7",
"ZX c #EDD9CC",
"AX c #F6FBCA",
"SX c #F4E7D7",
"DX c #F8FAD6",
"FX c #F2E3D1",
"GX c #EAE8E7",
"HX c #F3EAE9",
"JX c #FBF9E7",
"KX c #FEFEF4",
"LX c #FEFDFD",
"PX c #F8F5F5",
"IX c #EDF2F6",
"UX c #DFDDE1",
/* pixels */
"                                                  7.7.7.            7.7.7.2.                        ",
"                                                  7.7.7.            7.7.7.7.                        ",
"                                                2.7.7.7.            1.6.7.7.                        ",
"                          6.7.                1.2.2.7.7.        ' } | 3.9.9.                        ",
"                        7.7.7.7.            6.0.c.c.w.6.      | | w.w.w.7.9.                        ",
"                        6.6.7.2.          t.H.K.K.c.6.X.      eXuXiX).H.o.                          ",
"                        ,.,.,.,.        8.Z.L.U.U.H.9.} ' ' ~.BXCXCXlXL.|                           ",
"                        ,.6.,.0.      ,.8.P.!./.U.L.9.} ] ] eXCXPXPXVX~.}                           ",
"                        v.h.v.g.    ,.1.c.[.(.#XE.J.0.t.L.rXxXDXKXJXcX~.] ]                         ",
"                      d.m.M.M.l.d.%.%.$.c.T. X%X}.k.1.eXlXCXJXDXAXbXfXL.} ] X.,.,.$.$.              ",
"                    0.g.N.|.V.m.z.>.$.$.f.Q..X+X|.s.,.eXCXPXKXAXhX|.R.g.,.,.2.3.2.2.,.,.            ",
"                  ] } E.&XhXhXhXW.v.3.,.8.Y.+X@XV.l.9.uXCXPXJXbX.XM.l.f.0.9.c.c.K.T.v.g.            ",
"                  Y ' U.zXAXDXbX-XN.l.X.2.n.+X@X|.m.x.~.xXVXcXfXm.l.s.1.,.3.c.b.R.OX}.R.g.6.        ",
"                  Y ' ~.VXHXKXDXjXV.l.3.0.D.+X@X+XR.T.!.).tXtX!.g.d.X.;.0.w.H.T.OX+X@X}.v.,.$.      ",
"                  A.L.yXCXHXKXAXjX|.B.n.v.n.B.+X%XfXyXtX_.W.n.c.:.:.X.h.P.`.tXgXgX=XoXOXR.3.$.      ",
"                ~.pXBXFXSXAXvXbX&X X}.}.}.m.l.m.tXcXFXVXgXoXl.s.:.o.s.l. XzXVXFXbXhXOXOX[.w.,.      ",
"            ' } ~.BXPXPXDXkX=X X(.(.#XoX+XM.s.s.uXCXPXJXvX=XM.m.7.s.j.M.=XAXJXPXSXgXW.b.K.3.,.      ",
"            ] | iXZXPXLXAXjX+X X(./. X@X+X}.Z.F.aXGXLXJXvX=XM.x.f.Z.}.=XjXDXKXPXZXyXU.z.f.3.1.      ",
"            ] | ).xXFXSXDXAXbXkXfXOXN.M.N._.pXBXZXDXAXvXkX%X}.l.d.^.gXAXDXDXSXZXxXrXH.3.8.          ",
"            } 1.U./.tXzXSXKXKXAXhX@Xl.k.s.uXCXIXJXvXjX=X&X(.E.x.x._.VXKXLXDXcXtX/.U.8.1.            ",
"            2.2.c.k.x.tXVXPXKXDXhXV.M.h.F.aXHXLXJXjX@XM.R./.~./._.zXSXPXKXVX).x.k.w.q.,.            ",
"            } | q.q.q.U.lXCXFXcX$X}.`.pXMXCXSXDXvXkXOXl.x.L.~.pXcXFXSXGXZXpX^.q.q.w.0.,.            ",
"            ] }  .|  .A.).yXiX_.v.Q.lXSXPXJXvXkX-X&X(.T.k.1.rXVXPXPXSXzXyX~.H.X.3.z.2.7.            ",
"            A.A.L.Z.7.f.J.I.U.d.} y.aXHXLXDXjX@XM.W./.L. . .rXCXKXKXZX).z.k.9.3.3.w.7.7.            ",
"          eXpXaXxXuXL.c.z.v.z.| ` 4.6XBXSXvXhXV.M.m.I.L.6.w.rXBXSXZXpXI.k.k.H.H.H.c.8.2.            ",
"        | eXBXHXHXVX).J.v.H.3.} ` @.y.eXyXfX;X@XV.XX9.t.H.I.).iXzXyX).Z.1.H.U.^.U.H.2.,.            ",
"      ] | iXSXLXKXFXtXK.z.f.;.&.@.~ ` '  .n..X+X.Xn.9.t.I./._././.U.c.9.9.P.^./.U.H.2.1.            ",
"      ] X.gXFXJXDXcX_.c.1.o.) *.r.r.) U R s.m.}.W.J.H.P.(.#X#XW.T.J.c.d.f.H.I.I.J.H.2.2.            ",
"      ] 1./.kXkXjXfXU.7.[ R / r.A.L.r.! I ] h.J.J.P.I./.#X=X=X#X/.U.K.v.c.c.t.t.p.w.9.6.            ",
"      $.2.T.OX+X+X}.f.-.` T *.S.!./.I.=.W R ..6.H.I./.#X=X@XoX X/./.)._./.I.Z.3.8.w.6.6.            ",
"      0.7.b.N.V.N.m.o./ @.4.y.I.(.#XW.Y.h.h.o.0.Z./.#X%X.X|.XXW./.).gXxXxXyXQ.m.x.b.7.0.            ",
"      :.2.K.W.#XW.g.R T %.y.I. XoX+X+X|.XXD.d.6.Y. X=XoXR.n.Y.Y.E.gXVXHXGXbX-XN.M.b.0.,.            ",
"      ;.3.H././.^.t./ O.t.I.(.%X=X=X@X=X;X Xg.7.n..X@X.Xn.3.9.z.U.gXSXLXLXAXhXV.B.b.,.$.            ",
"      2.6.H.H.L.L.t.r.t.^.(.*X$X$X;X=X&XoXXXg.<.g.XX.X}.Y.p.t.0.Z.uXcXJXJXvXhXB.l.g.,.              ",
"      8.9.w.6.4.y.A.~.].#X+X=X$X{.7X$X$X#XQ.5.R { g.Y.Q.E.U.L.r.5.F.fXvXvXkX%Xn.x.h.                ",
"      8.6.3.R T r.L.'.*X-X@X=XdX7X8X6X)./.H.4.W R ..9.H.^./.!.r.^ 5.XX;X+XoXb.:.:.                  ",
"      8.0.w.:.*.y./.'.gX%X.X;XdXnXnXaXrX^.H.t.=.*.*.:.t.I.^.P.4.s { l.M.M.m.d.%.                    ",
"      2.w.K.H.L.!.].gX'.`.D.G.sXNXUXBXyX^.K.I.L.Z.9.6.8.H.P.Z.4.a R l.m.m.n.3.                      ",
"      1.2.K.U./.].*X].'.G.A 1XmXIXLXSXzXE.T././.U.Z.9.2.9.8.5.+.W _ 2.c.f.f.                        ",
"        6.9.L.!.].'.'.'.C.c :XmXIXLXSXzX/.T./.^.I.Z.2.:.;.;.....) ) $.$.>.                          ",
"          9.5.Z.U.(.'._.C.c :XmXIXLXJXcX].[.U.K.Z.5.&._ { ) &.1.3.:.:.>.                            ",
"            T ^ 9.I././.C.c 2XmXIXLXDXcX].[.K.9.;.) ~ W W W &.6.f.7.7.                              ",
"              r *.Z.P.!.C.a.5XsXGXJXFXcX].K.p.;.R R E E ! / +.:.6.f.                                ",
"                / 4.5.P.A.C.`.lXVXFXcX'.U.c.:._ R T W _ -.1.:.<.9.                                  ",
"                  W / 9.P.!._.iXgXgXtXU.9.;.) ~ T E W $.3.w.7.7.                                    ",
"                    y ) t.U.E.].].E.K.7...R _ / ! W ! ) :.7.f.                                      ",
"                      ( 5.Z.H.J.K.c.7...R R { ...._ ! ) :.                                          ",
"                        ..) -.>.=.$.O.T R _ ;.3.1.;._ !                                             ",
"                        f Q Q I I I T / +.4.r.t.5.:.! s                                             ",
"                      : B V V I p y R 6.Z.A.y.u.i.h q 6 #           M P                             ",
"                    . : B P Z h p I } J.^.~.C.J M g * o . . + v M F P P F                           ",
"                  o . : b P L u.u.y.F.^.^.F.C.D x ; X . . + n F >Xu.3X>XL G                         ",
"                r 3 . O l N K 4XaXaXuXrXF.C.H b ; - . @ : n G 3X8X8X4X5XK H m                       ",
"        I T ` / s 6 . @ ; b 3X0XUXGXMXwXu.g g : @ X . : v M >X4XqXqX9X4X3XL m u                     ",
"      &.O.-.-._ E w * ; ; n 3XsXGXIXNX8XN ; O . . . . > n C 3X8X0XaX0XqX9X8X5XK J                   ",
"    4.r.Z.Z.6.) E h g z v m ,X0XNXCXmX5XS ; - X . . . + , b K 4XqXmXMXNXNXNXMX9X4X>X                ",
"T W 5.A.^.I.Z.( f V V S S P >X4X9XsX8X,XD n : X . . . . . : M 3X8XmXNXIXKXPXIXNXqX3Xv               ",
"T ~ r.I./.^.t.( #.V G G P P L 3X4XwX5X,XC b > o . o o . . . n G 4XnXUXPXLXLXLXGXNX8XM n             ",
"R _ 9.P.U.I.9._ #.Z L L S B F G.dXwXG.a.B u i 5 6 8 6 1 o . u F 3X9XMXUXPXLXLXLXGXsX3XL L           ",
"R _ <.Z.Z.f.<.` #.Z L G B - n G.dXdX{.a.: = y t s s q y 3 % u m J 5X9X0XNXIXLXLXGXMX8X3XJ M         ",
"T W +.:.6.2.[ R #.V G S l - k G.;X{.{.j . # y d a d d s 6 3 i n M J >X5XqXNXPXLXGXMX0XwX3XH M       ",
"W W ( ....;.[ R #.i.L S - @ k D.{.;X{.j . . 3 e s s s w 6 2 < u n M H K 8XMXUXGXGXMX0XqX8X3XJ J     ",
"    _ ( +.....[ ~ #.    - . k C.W.(.D.j . . % 6 7 7 5 4 2 1 = = , b D J 5XqXnXMXMXMX0X0XqX4X3XK H F ",
"      ! ! _ [ / ~         . k =.J.P.r.h . . # * 1 * 4 & 1 4 & o . : v M K 3X4X9XqX0X0XqXqX4X5XK H F ",
"        E W W ! `         . 9 #.r.Z.=.h * & 6 7 7 8 6 5 5 1 $ o . X > m G K ,X5X4X9X9X9X8X5X5X,XJ G ",
"                              h #.#.h t w w s s f s q 0 8 1 $ #           J J ,X,X,X,X,X,X>X>XG G H ",
"                                * 5 w e a E W W E f d q 0 1 $             G G J J G H H H H G H H H ",
"                                . # 7 a ! _ / / ! W E s 0 1 $               V Z u.e.u.u.e.Z Z Z H Z ",
"                                . % t ^ +.) / ! W W E s 0 1 $             h h e.S.F.F.F.S.r.i.=.i.i.",
"                                # 5 f @.*.&.( W W E d e 0 1 $             I T >.A.^./.U.Z.5.-.) E ^ ",
"                              2 2 0 ^ *.>.&./ W E a t 0 8 1 & $             I ) Z.A./.U.f.o.} R T T ",
"                            4 8 w d / -.:.&./ W e q 0 8 1 * $ $ &               5.f.Z.H.3.o._ R     ",
"                          $ 4 0 a ! O.-.>.+.~ a q 7 1 & & & & & & &             @.( $.....! _       ",
"                        # # 8 d ! ) &.&.*.~ E e 7 4 & & 2 8 8 7 7 4 5             I I T T E         ",
"                          # 8 f / +.+.( ^ f t 0 6 1 & 1 7 0 q q q 0 7 6                             ",
"                          o 9 f O.-.&.~ d q 7 2 & & 1 6 0 s d d d e 7 2 $                           ",
"                        1 2 0 Q *.-.+.Q e 0 4 % % # 1 8 e a W W W a q 6 1 <                         ",
"                      5 6 w d O.*.>.+.~ s y 6 1 % % 1 7 e a W ! W E w 4 = > B   D N                 ",
"                    $ 5 0 a W +.*.*.+.~ E q 7 1 $ $ 1 7 q d W ! ! E w 2 < g m M M M M               ",
"                  = * 7 a W ) +.&.&.O.E e 0 5 * % % 1 8 0 s a E E E w 6 9 u B N M M B m             ",
"                n , = 6 a / &.&.+.~ Q d 0 7 5         8 7 0 e e e e q w t i g v v z z v b           ",
"m m m N N M M M b > = 4 d O.&.) ~ E e 0 5 1             4 4 8 8 8 0 e s f t , O O + : > b m M       ",
"M M N m N m N N B u 9 8 W *.-.&.E r 7 2 $ #             & $ $ % # 5 q a e 7 $ . . . X > N M M       ",
"F F N b z g x z g i t a / *.*.@.e 7 4 2 #                 $ % o o 1 0 t 0 6 o . . . X u N N M       ",
"M M B > + O O + i t d ! ) >.*.^ t 2 $                               6 6 4 & o . . . + > m m N       ",
"M N v > + . . . 1 w E / &.&.&.^ 0 # o                                 & * = + + . . + > m m M       ",
"M m b z > : @ . # 4 w f ! / / f 7 % o                                   $ , > > : . . > m m M       ",
"      B m b , . . o * 7 r T T r 7 & #                                     n B B > . . > N N M       ",
"      M M m > + X . . # 9 f f t 8 & $                                     M M m v : + > B m M       ",
"        M m v z , O . . i h h h 9 &                                       P M M m > > u b N         ",
"            m B b : . . g m V m                                       m m N M P M N b b             ",
"            M m m > + + > B N M                                     m m M N m m N N N m             ",
"              F m v , > z B S                                         m m m m m N M M               ",
"                  B b n B                                                                           ",
"                  m m m N                                                                           ",
"                  N N N N                                                                           "
};
